<mxfile host="app.diagrams.net" modified="2023-12-10T19:13:30.412Z" agent="Mozilla/5.0 (Windows NT 10.0; Win64; x64) AppleWebKit/537.36 (KHTML, like Gecko) Chrome/120.0.0.0 Safari/537.36" etag="zIeHSbsvK8VRWsQIgwlc" version="22.1.7" type="device" pages="7">
  <diagram id="JiSSRO_q8-Lz5THqgUoh" name="visualisation">
    <mxGraphModel dx="3441" dy="1382" grid="1" gridSize="10" guides="1" tooltips="1" connect="1" arrows="1" fold="1" page="0" pageScale="1" pageWidth="827" pageHeight="1169" math="0" shadow="0">
      <root>
        <mxCell id="0" />
        <mxCell id="1" parent="0" />
        <mxCell id="kKrUP3qh-PcEckTrJeX6-124" value="" style="ellipse;whiteSpace=wrap;html=1;aspect=fixed;fontSize=16;fillColor=none;strokeWidth=2;opacity=15;dashed=1;dashPattern=1 4;" parent="1" vertex="1">
          <mxGeometry x="-681" y="-121" width="361.5" height="361.5" as="geometry" />
        </mxCell>
        <mxCell id="kKrUP3qh-PcEckTrJeX6-13" value="" style="group;fontSize=16;" parent="1" vertex="1" connectable="0">
          <mxGeometry x="-517" y="-139" width="68.75" height="60" as="geometry" />
        </mxCell>
        <mxCell id="kKrUP3qh-PcEckTrJeX6-14" value="" style="group;fontSize=16;" parent="kKrUP3qh-PcEckTrJeX6-13" vertex="1" connectable="0">
          <mxGeometry y="10" width="52.5" height="50" as="geometry" />
        </mxCell>
        <mxCell id="kKrUP3qh-PcEckTrJeX6-15" value="" style="group;fontSize=16;" parent="kKrUP3qh-PcEckTrJeX6-14" vertex="1" connectable="0">
          <mxGeometry x="-3.75" width="56.25" height="48.75" as="geometry" />
        </mxCell>
        <object label="" markers="●" placeholders="1" id="kKrUP3qh-PcEckTrJeX6-16">
          <mxCell style="ellipse;whiteSpace=wrap;html=1;aspect=fixed;fontSize=16;direction=south;perimeterSpacing=0;strokeWidth=1;dashed=1;dashPattern=8 8;points=[[0,0.5,0,0,0],[0.5,0,0,0,0],[0.5,1,0,0,0],[1,0.5,0,0,0]];" parent="kKrUP3qh-PcEckTrJeX6-15" vertex="1">
            <mxGeometry y="6.25" width="42.5" height="42.5" as="geometry" />
          </mxCell>
        </object>
        <object label="" markers="●" placeholders="1" id="kKrUP3qh-PcEckTrJeX6-17">
          <mxCell style="ellipse;whiteSpace=wrap;html=1;aspect=fixed;fontSize=16;direction=south;perimeterSpacing=0;strokeWidth=1;points=[];" parent="kKrUP3qh-PcEckTrJeX6-15" vertex="1">
            <mxGeometry x="3.75" y="10" width="35" height="35" as="geometry" />
          </mxCell>
        </object>
        <mxCell id="kKrUP3qh-PcEckTrJeX6-18" value="&lt;b style=&quot;font-size: 9px;&quot;&gt;output_N&lt;/b&gt;" style="text;html=1;strokeColor=none;fillColor=none;align=center;verticalAlign=middle;whiteSpace=wrap;rounded=0;fontSize=16;" parent="kKrUP3qh-PcEckTrJeX6-13" vertex="1">
          <mxGeometry x="7" width="20" height="10" as="geometry" />
        </mxCell>
        <mxCell id="kKrUP3qh-PcEckTrJeX6-19" value="" style="group;fontSize=16;" parent="1" vertex="1" connectable="0">
          <mxGeometry x="-517" y="-59" width="68.75" height="60" as="geometry" />
        </mxCell>
        <mxCell id="kKrUP3qh-PcEckTrJeX6-20" value="" style="group;fontSize=16;" parent="kKrUP3qh-PcEckTrJeX6-19" vertex="1" connectable="0">
          <mxGeometry y="10" width="52.5" height="50" as="geometry" />
        </mxCell>
        <mxCell id="kKrUP3qh-PcEckTrJeX6-21" value="" style="group;fontSize=16;" parent="kKrUP3qh-PcEckTrJeX6-20" vertex="1" connectable="0">
          <mxGeometry x="-3.75" width="56.25" height="48.75" as="geometry" />
        </mxCell>
        <object label="" markers="●" placeholders="1" id="kKrUP3qh-PcEckTrJeX6-22">
          <mxCell style="ellipse;whiteSpace=wrap;html=1;aspect=fixed;fontSize=16;direction=south;perimeterSpacing=0;strokeWidth=1;dashed=1;dashPattern=8 8;points=[[0,0.5,0,0,0],[0.5,0,0,0,0],[0.5,1,0,0,0],[1,0.5,0,0,0]];" parent="kKrUP3qh-PcEckTrJeX6-21" vertex="1">
            <mxGeometry y="6.25" width="42.5" height="42.5" as="geometry" />
          </mxCell>
        </object>
        <object label="" markers="●" placeholders="1" id="kKrUP3qh-PcEckTrJeX6-23">
          <mxCell style="ellipse;whiteSpace=wrap;html=1;aspect=fixed;fontSize=16;direction=south;perimeterSpacing=0;strokeWidth=1;points=[];" parent="kKrUP3qh-PcEckTrJeX6-21" vertex="1">
            <mxGeometry x="3.75" y="10" width="35" height="35" as="geometry" />
          </mxCell>
        </object>
        <mxCell id="kKrUP3qh-PcEckTrJeX6-24" value="&lt;b style=&quot;font-size: 9px;&quot;&gt;core_N&lt;/b&gt;" style="text;html=1;strokeColor=none;fillColor=none;align=center;verticalAlign=middle;whiteSpace=wrap;rounded=0;fontSize=16;" parent="kKrUP3qh-PcEckTrJeX6-19" vertex="1">
          <mxGeometry x="7" width="20" height="10" as="geometry" />
        </mxCell>
        <mxCell id="kKrUP3qh-PcEckTrJeX6-25" value="" style="group;fontSize=16;" parent="1" vertex="1" connectable="0">
          <mxGeometry x="-437" y="21" width="68.75" height="60" as="geometry" />
        </mxCell>
        <mxCell id="kKrUP3qh-PcEckTrJeX6-26" value="" style="group;fontSize=16;" parent="kKrUP3qh-PcEckTrJeX6-25" vertex="1" connectable="0">
          <mxGeometry y="10" width="52.5" height="50" as="geometry" />
        </mxCell>
        <mxCell id="kKrUP3qh-PcEckTrJeX6-27" value="" style="group;fontSize=16;" parent="kKrUP3qh-PcEckTrJeX6-26" vertex="1" connectable="0">
          <mxGeometry x="-3.75" width="56.25" height="48.75" as="geometry" />
        </mxCell>
        <object label="" markers="●" placeholders="1" id="kKrUP3qh-PcEckTrJeX6-28">
          <mxCell style="ellipse;whiteSpace=wrap;html=1;aspect=fixed;fontSize=16;direction=south;perimeterSpacing=0;strokeWidth=1;dashed=1;dashPattern=8 8;points=[[0,0.5,0,0,0],[0.5,0,0,0,0],[0.5,1,0,0,0],[1,0.5,0,0,0]];" parent="kKrUP3qh-PcEckTrJeX6-27" vertex="1">
            <mxGeometry y="6.25" width="42.5" height="42.5" as="geometry" />
          </mxCell>
        </object>
        <object label="" markers="●" placeholders="1" id="kKrUP3qh-PcEckTrJeX6-29">
          <mxCell style="ellipse;whiteSpace=wrap;html=1;aspect=fixed;fontSize=16;direction=south;perimeterSpacing=0;strokeWidth=1;points=[];" parent="kKrUP3qh-PcEckTrJeX6-27" vertex="1">
            <mxGeometry x="3.75" y="10" width="35" height="35" as="geometry" />
          </mxCell>
        </object>
        <mxCell id="kKrUP3qh-PcEckTrJeX6-30" value="&lt;b style=&quot;font-size: 9px;&quot;&gt;core_E&lt;br&gt;&lt;/b&gt;" style="text;html=1;strokeColor=none;fillColor=none;align=center;verticalAlign=middle;whiteSpace=wrap;rounded=0;fontSize=16;" parent="kKrUP3qh-PcEckTrJeX6-25" vertex="1">
          <mxGeometry x="7" width="20" height="10" as="geometry" />
        </mxCell>
        <mxCell id="kKrUP3qh-PcEckTrJeX6-31" value="" style="group;fontSize=16;" parent="1" vertex="1" connectable="0">
          <mxGeometry x="-597" y="21" width="68.75" height="60" as="geometry" />
        </mxCell>
        <mxCell id="kKrUP3qh-PcEckTrJeX6-32" value="" style="group;fontSize=16;" parent="kKrUP3qh-PcEckTrJeX6-31" vertex="1" connectable="0">
          <mxGeometry y="10" width="52.5" height="50" as="geometry" />
        </mxCell>
        <mxCell id="kKrUP3qh-PcEckTrJeX6-33" value="" style="group;fontSize=16;" parent="kKrUP3qh-PcEckTrJeX6-32" vertex="1" connectable="0">
          <mxGeometry x="-3.75" width="56.25" height="48.75" as="geometry" />
        </mxCell>
        <object label="" markers="●" placeholders="1" id="kKrUP3qh-PcEckTrJeX6-34">
          <mxCell style="ellipse;whiteSpace=wrap;html=1;aspect=fixed;fontSize=16;direction=south;perimeterSpacing=0;strokeWidth=1;dashed=1;dashPattern=8 8;points=[[0,0.5,0,0,0],[0.5,0,0,0,0],[0.5,1,0,0,0],[1,0.5,0,0,0]];" parent="kKrUP3qh-PcEckTrJeX6-33" vertex="1">
            <mxGeometry y="6.25" width="42.5" height="42.5" as="geometry" />
          </mxCell>
        </object>
        <object label="" markers="●" placeholders="1" id="kKrUP3qh-PcEckTrJeX6-35">
          <mxCell style="ellipse;whiteSpace=wrap;html=1;aspect=fixed;fontSize=16;direction=south;perimeterSpacing=0;strokeWidth=1;points=[];" parent="kKrUP3qh-PcEckTrJeX6-33" vertex="1">
            <mxGeometry x="3.75" y="10" width="35" height="35" as="geometry" />
          </mxCell>
        </object>
        <mxCell id="kKrUP3qh-PcEckTrJeX6-36" value="&lt;b style=&quot;font-size: 9px;&quot;&gt;core_W&lt;/b&gt;" style="text;html=1;strokeColor=none;fillColor=none;align=center;verticalAlign=middle;whiteSpace=wrap;rounded=0;fontSize=16;" parent="kKrUP3qh-PcEckTrJeX6-31" vertex="1">
          <mxGeometry x="7" width="20" height="10" as="geometry" />
        </mxCell>
        <mxCell id="kKrUP3qh-PcEckTrJeX6-45" value="" style="group;fontSize=16;" parent="1" vertex="1" connectable="0">
          <mxGeometry x="-517" y="101" width="68.75" height="60" as="geometry" />
        </mxCell>
        <mxCell id="kKrUP3qh-PcEckTrJeX6-46" value="" style="group;fontSize=16;" parent="kKrUP3qh-PcEckTrJeX6-45" vertex="1" connectable="0">
          <mxGeometry y="10" width="52.5" height="50" as="geometry" />
        </mxCell>
        <mxCell id="kKrUP3qh-PcEckTrJeX6-47" value="" style="group;fontSize=16;" parent="kKrUP3qh-PcEckTrJeX6-46" vertex="1" connectable="0">
          <mxGeometry x="-3.75" width="56.25" height="48.75" as="geometry" />
        </mxCell>
        <object label="" markers="●" placeholders="1" id="kKrUP3qh-PcEckTrJeX6-48">
          <mxCell style="ellipse;whiteSpace=wrap;html=1;aspect=fixed;fontSize=16;direction=south;perimeterSpacing=0;strokeWidth=1;dashed=1;dashPattern=8 8;points=[[0,0.5,0,0,0],[0.5,0,0,0,0],[0.5,1,0,0,0],[1,0.5,0,0,0]];" parent="kKrUP3qh-PcEckTrJeX6-47" vertex="1">
            <mxGeometry y="6.25" width="42.5" height="42.5" as="geometry" />
          </mxCell>
        </object>
        <object label="" markers="●" placeholders="1" id="kKrUP3qh-PcEckTrJeX6-49">
          <mxCell style="ellipse;whiteSpace=wrap;html=1;aspect=fixed;fontSize=16;direction=south;perimeterSpacing=0;strokeWidth=1;points=[];" parent="kKrUP3qh-PcEckTrJeX6-47" vertex="1">
            <mxGeometry x="3.75" y="10" width="35" height="35" as="geometry" />
          </mxCell>
        </object>
        <mxCell id="kKrUP3qh-PcEckTrJeX6-50" value="&lt;b style=&quot;font-size: 9px;&quot;&gt;core_S&lt;/b&gt;" style="text;html=1;strokeColor=none;fillColor=none;align=center;verticalAlign=middle;whiteSpace=wrap;rounded=0;fontSize=16;" parent="kKrUP3qh-PcEckTrJeX6-45" vertex="1">
          <mxGeometry x="6.75" width="20" height="10" as="geometry" />
        </mxCell>
        <mxCell id="kKrUP3qh-PcEckTrJeX6-51" value="" style="group;fontSize=16;" parent="1" vertex="1" connectable="0">
          <mxGeometry x="-517" y="181" width="68.75" height="60" as="geometry" />
        </mxCell>
        <mxCell id="kKrUP3qh-PcEckTrJeX6-52" value="" style="group;fontSize=16;" parent="kKrUP3qh-PcEckTrJeX6-51" vertex="1" connectable="0">
          <mxGeometry y="10" width="52.5" height="50" as="geometry" />
        </mxCell>
        <mxCell id="kKrUP3qh-PcEckTrJeX6-53" value="" style="group;fontSize=16;" parent="kKrUP3qh-PcEckTrJeX6-52" vertex="1" connectable="0">
          <mxGeometry x="-3.75" width="56.25" height="48.75" as="geometry" />
        </mxCell>
        <object label="" markers="●" placeholders="1" id="kKrUP3qh-PcEckTrJeX6-54">
          <mxCell style="ellipse;whiteSpace=wrap;html=1;aspect=fixed;fontSize=16;direction=south;perimeterSpacing=0;strokeWidth=1;dashed=1;dashPattern=8 8;points=[[0,0.5,0,0,0],[0.5,0,0,0,0],[0.5,1,0,0,0],[1,0.5,0,0,0]];" parent="kKrUP3qh-PcEckTrJeX6-53" vertex="1">
            <mxGeometry y="6.25" width="42.5" height="42.5" as="geometry" />
          </mxCell>
        </object>
        <object label="" markers="●" placeholders="1" id="kKrUP3qh-PcEckTrJeX6-55">
          <mxCell style="ellipse;whiteSpace=wrap;html=1;aspect=fixed;fontSize=16;direction=south;perimeterSpacing=0;strokeWidth=1;points=[];" parent="kKrUP3qh-PcEckTrJeX6-53" vertex="1">
            <mxGeometry x="3.75" y="10" width="35" height="35" as="geometry" />
          </mxCell>
        </object>
        <mxCell id="kKrUP3qh-PcEckTrJeX6-57" value="" style="group;fontSize=16;" parent="1" vertex="1" connectable="0">
          <mxGeometry x="-357" y="21" width="68.75" height="60" as="geometry" />
        </mxCell>
        <mxCell id="kKrUP3qh-PcEckTrJeX6-58" value="" style="group;fontSize=16;" parent="kKrUP3qh-PcEckTrJeX6-57" vertex="1" connectable="0">
          <mxGeometry y="10" width="52.5" height="50" as="geometry" />
        </mxCell>
        <mxCell id="kKrUP3qh-PcEckTrJeX6-59" value="" style="group;fontSize=16;" parent="kKrUP3qh-PcEckTrJeX6-58" vertex="1" connectable="0">
          <mxGeometry x="-3.75" width="56.25" height="48.75" as="geometry" />
        </mxCell>
        <object label="" markers="●" placeholders="1" id="kKrUP3qh-PcEckTrJeX6-60">
          <mxCell style="ellipse;whiteSpace=wrap;html=1;aspect=fixed;fontSize=16;direction=south;perimeterSpacing=0;strokeWidth=1;dashed=1;dashPattern=8 8;points=[[0,0.5,0,0,0],[0.5,0,0,0,0],[0.5,1,0,0,0],[1,0.5,0,0,0]];" parent="kKrUP3qh-PcEckTrJeX6-59" vertex="1">
            <mxGeometry y="6.25" width="42.5" height="42.5" as="geometry" />
          </mxCell>
        </object>
        <object label="" markers="●" placeholders="1" id="kKrUP3qh-PcEckTrJeX6-61">
          <mxCell style="ellipse;whiteSpace=wrap;html=1;aspect=fixed;fontSize=16;direction=south;perimeterSpacing=0;strokeWidth=1;points=[];" parent="kKrUP3qh-PcEckTrJeX6-59" vertex="1">
            <mxGeometry x="3.75" y="10" width="35" height="35" as="geometry" />
          </mxCell>
        </object>
        <mxCell id="kKrUP3qh-PcEckTrJeX6-62" value="&lt;b style=&quot;font-size: 9px;&quot;&gt;input_E&lt;br&gt;&lt;/b&gt;" style="text;html=1;strokeColor=none;fillColor=none;align=center;verticalAlign=middle;whiteSpace=wrap;rounded=0;fontSize=16;" parent="kKrUP3qh-PcEckTrJeX6-57" vertex="1">
          <mxGeometry x="7" width="20" height="10" as="geometry" />
        </mxCell>
        <mxCell id="kKrUP3qh-PcEckTrJeX6-63" value="" style="group;fontSize=16;" parent="1" vertex="1" connectable="0">
          <mxGeometry x="-677" y="21" width="68.75" height="60" as="geometry" />
        </mxCell>
        <mxCell id="kKrUP3qh-PcEckTrJeX6-64" value="" style="group;fontSize=16;" parent="kKrUP3qh-PcEckTrJeX6-63" vertex="1" connectable="0">
          <mxGeometry y="10" width="52.5" height="50" as="geometry" />
        </mxCell>
        <mxCell id="kKrUP3qh-PcEckTrJeX6-65" value="" style="group;fontSize=16;" parent="kKrUP3qh-PcEckTrJeX6-64" vertex="1" connectable="0">
          <mxGeometry x="-3.75" width="56.25" height="48.75" as="geometry" />
        </mxCell>
        <object label="" markers="●" placeholders="1" id="kKrUP3qh-PcEckTrJeX6-66">
          <mxCell style="ellipse;whiteSpace=wrap;html=1;aspect=fixed;fontSize=16;direction=south;perimeterSpacing=0;strokeWidth=1;dashed=1;dashPattern=8 8;points=[[0,0.5,0,0,0],[0.5,0,0,0,0],[0.5,1,0,0,0],[1,0.5,0,0,0]];" parent="kKrUP3qh-PcEckTrJeX6-65" vertex="1">
            <mxGeometry y="6.25" width="42.5" height="42.5" as="geometry" />
          </mxCell>
        </object>
        <object label="" markers="●" placeholders="1" id="kKrUP3qh-PcEckTrJeX6-67">
          <mxCell style="ellipse;whiteSpace=wrap;html=1;aspect=fixed;fontSize=16;direction=south;perimeterSpacing=0;strokeWidth=1;points=[];" parent="kKrUP3qh-PcEckTrJeX6-65" vertex="1">
            <mxGeometry x="3.75" y="10" width="35" height="35" as="geometry" />
          </mxCell>
        </object>
        <mxCell id="kKrUP3qh-PcEckTrJeX6-68" value="&lt;b style=&quot;font-size: 9px;&quot;&gt;input_W&lt;br&gt;&lt;/b&gt;" style="text;html=1;strokeColor=none;fillColor=none;align=center;verticalAlign=middle;whiteSpace=wrap;rounded=0;fontSize=16;" parent="kKrUP3qh-PcEckTrJeX6-63" vertex="1">
          <mxGeometry x="7" width="20" height="10" as="geometry" />
        </mxCell>
        <mxCell id="kKrUP3qh-PcEckTrJeX6-69" value="" style="group;fontSize=16;" parent="1" vertex="1" connectable="0">
          <mxGeometry x="-757" y="21" width="68.75" height="60" as="geometry" />
        </mxCell>
        <mxCell id="kKrUP3qh-PcEckTrJeX6-70" value="" style="group;fontSize=16;" parent="kKrUP3qh-PcEckTrJeX6-69" vertex="1" connectable="0">
          <mxGeometry y="10" width="52.5" height="50" as="geometry" />
        </mxCell>
        <mxCell id="kKrUP3qh-PcEckTrJeX6-81" value="" style="group;fontSize=16;" parent="1" vertex="1" connectable="0">
          <mxGeometry x="-717" y="-119" width="68.75" height="60" as="geometry" />
        </mxCell>
        <mxCell id="kKrUP3qh-PcEckTrJeX6-82" value="" style="group;fontSize=16;" parent="kKrUP3qh-PcEckTrJeX6-81" vertex="1" connectable="0">
          <mxGeometry y="10" width="52.5" height="50" as="geometry" />
        </mxCell>
        <mxCell id="kKrUP3qh-PcEckTrJeX6-105" value="" style="group;fontSize=16;" parent="1" vertex="1" connectable="0">
          <mxGeometry x="-717" y="161" width="68.75" height="60" as="geometry" />
        </mxCell>
        <mxCell id="kKrUP3qh-PcEckTrJeX6-106" value="" style="group;fontSize=16;" parent="kKrUP3qh-PcEckTrJeX6-105" vertex="1" connectable="0">
          <mxGeometry y="10" width="52.5" height="50" as="geometry" />
        </mxCell>
        <mxCell id="kKrUP3qh-PcEckTrJeX6-56" value="&lt;b style=&quot;font-size: 9px;&quot;&gt;output_S&lt;/b&gt;" style="text;html=1;strokeColor=none;fillColor=none;align=center;verticalAlign=middle;whiteSpace=wrap;rounded=0;fontSize=16;" parent="1" vertex="1">
          <mxGeometry x="-508.5" y="181" width="20" height="10" as="geometry" />
        </mxCell>
      </root>
    </mxGraphModel>
  </diagram>
  <diagram name="inputs" id="RFGJTBIz5JLd-lF-9eUK">
    <mxGraphModel dx="2001" dy="491" grid="1" gridSize="10" guides="1" tooltips="1" connect="1" arrows="1" fold="1" page="1" pageScale="1" pageWidth="827" pageHeight="1169" math="0" shadow="0">
      <root>
        <mxCell id="eNtJud_d0ee5PfrYbiAu-0" />
        <mxCell id="eNtJud_d0ee5PfrYbiAu-1" parent="eNtJud_d0ee5PfrYbiAu-0" />
        <mxCell id="eNtJud_d0ee5PfrYbiAu-31" value="" style="group;fontSize=16;" parent="eNtJud_d0ee5PfrYbiAu-1" vertex="1" connectable="0">
          <mxGeometry x="-784.0600000000001" y="214.00000000000006" width="70.91" height="21.830000000000013" as="geometry" />
        </mxCell>
        <mxCell id="eNtJud_d0ee5PfrYbiAu-32" value="" style="group;points=[[0,0.5,0,0,0],[0.5,0,0,0,0],[0.5,1,0,0,0],[1,0.5,0,0,0]];fontSize=16;" parent="eNtJud_d0ee5PfrYbiAu-31" vertex="1" connectable="0">
          <mxGeometry y="5.460000000000008" width="60" height="16.37" as="geometry" />
        </mxCell>
        <mxCell id="eNtJud_d0ee5PfrYbiAu-33" value="" style="rounded=0;whiteSpace=wrap;html=1;fontSize=16;fillColor=#000000;points=[[0,0.5,0,0,0],[0.5,0,0,0,0],[0.5,1,0,0,0],[1,0.5,0,0,0]];" parent="eNtJud_d0ee5PfrYbiAu-32" vertex="1">
          <mxGeometry y="5.456666666666667" width="49.09090909090909" height="10.913333333333334" as="geometry" />
        </mxCell>
        <mxCell id="eNtJud_d0ee5PfrYbiAu-34" value="" style="group;fontSize=16;" parent="eNtJud_d0ee5PfrYbiAu-1" vertex="1" connectable="0">
          <mxGeometry x="-704.0600000000001" y="215.00000000000006" width="70.91" height="21.830000000000013" as="geometry" />
        </mxCell>
        <mxCell id="eNtJud_d0ee5PfrYbiAu-35" value="" style="group;points=[[0,0.5,0,0,0],[0.5,0,0,0,0],[0.5,1,0,0,0],[1,0.5,0,0,0]];fontSize=16;" parent="eNtJud_d0ee5PfrYbiAu-34" vertex="1" connectable="0">
          <mxGeometry y="5.460000000000008" width="60" height="16.37" as="geometry" />
        </mxCell>
        <mxCell id="eNtJud_d0ee5PfrYbiAu-36" value="" style="rounded=0;whiteSpace=wrap;html=1;fontSize=16;fillColor=#000000;points=[[0,0.5,0,0,0],[0.5,0,0,0,0],[0.5,1,0,0,0],[1,0.5,0,0,0]];" parent="eNtJud_d0ee5PfrYbiAu-35" vertex="1">
          <mxGeometry y="5.456666666666667" width="49.09090909090909" height="10.913333333333334" as="geometry" />
        </mxCell>
        <mxCell id="eNtJud_d0ee5PfrYbiAu-37" value="&lt;b style=&quot;font-size: 9px;&quot;&gt;skip_W&lt;/b&gt;" style="text;html=1;strokeColor=none;fillColor=none;align=center;verticalAlign=middle;whiteSpace=wrap;rounded=0;fontSize=16;" parent="eNtJud_d0ee5PfrYbiAu-34" vertex="1">
          <mxGeometry x="60.00090909090909" width="10.90909090909091" height="5.456666666666667" as="geometry" />
        </mxCell>
        <mxCell id="eNtJud_d0ee5PfrYbiAu-38" value="" style="group;fontSize=16;" parent="eNtJud_d0ee5PfrYbiAu-1" vertex="1" connectable="0">
          <mxGeometry x="-572.0600000000001" y="214.00000000000006" width="70.91" height="21.830000000000013" as="geometry" />
        </mxCell>
        <mxCell id="eNtJud_d0ee5PfrYbiAu-39" value="" style="group;points=[[0,0.5,0,0,0],[0.5,0,0,0,0],[0.5,1,0,0,0],[1,0.5,0,0,0]];fontSize=16;" parent="eNtJud_d0ee5PfrYbiAu-38" vertex="1" connectable="0">
          <mxGeometry y="5.460000000000008" width="60" height="16.37" as="geometry" />
        </mxCell>
        <mxCell id="eNtJud_d0ee5PfrYbiAu-40" value="" style="rounded=0;whiteSpace=wrap;html=1;fontSize=16;fillColor=#000000;points=[[0,0.5,0,0,0],[0.5,0,0,0,0],[0.5,1,0,0,0],[1,0.5,0,0,0]];" parent="eNtJud_d0ee5PfrYbiAu-39" vertex="1">
          <mxGeometry y="5.456666666666667" width="49.09090909090909" height="10.913333333333334" as="geometry" />
        </mxCell>
        <mxCell id="eNtJud_d0ee5PfrYbiAu-41" value="" style="group;fontSize=16;" parent="eNtJud_d0ee5PfrYbiAu-1" vertex="1" connectable="0">
          <mxGeometry x="-492.06000000000006" y="214.00000000000006" width="70.91" height="21.830000000000013" as="geometry" />
        </mxCell>
        <mxCell id="eNtJud_d0ee5PfrYbiAu-42" value="" style="group;points=[[0,0.5,0,0,0],[0.5,0,0,0,0],[0.5,1,0,0,0],[1,0.5,0,0,0]];fontSize=16;" parent="eNtJud_d0ee5PfrYbiAu-41" vertex="1" connectable="0">
          <mxGeometry y="5.460000000000008" width="60" height="16.37" as="geometry" />
        </mxCell>
        <mxCell id="eNtJud_d0ee5PfrYbiAu-43" value="" style="rounded=0;whiteSpace=wrap;html=1;fontSize=16;fillColor=#000000;points=[[0,0.5,0,0,0],[0.5,0,0,0,0],[0.5,1,0,0,0],[1,0.5,0,0,0]];" parent="eNtJud_d0ee5PfrYbiAu-42" vertex="1">
          <mxGeometry y="5.456666666666667" width="49.09090909090909" height="10.913333333333334" as="geometry" />
        </mxCell>
        <mxCell id="eNtJud_d0ee5PfrYbiAu-44" value="&lt;b style=&quot;font-size: 9px;&quot;&gt;generate_E&lt;/b&gt;" style="text;html=1;strokeColor=none;fillColor=none;align=center;verticalAlign=middle;whiteSpace=wrap;rounded=0;fontSize=16;" parent="eNtJud_d0ee5PfrYbiAu-41" vertex="1">
          <mxGeometry x="57.00090909090909" y="-1" width="10.90909090909091" height="5.456666666666667" as="geometry" />
        </mxCell>
        <mxCell id="eNtJud_d0ee5PfrYbiAu-68" value="&lt;b style=&quot;font-size: 9px;&quot;&gt;skip_E&lt;/b&gt;" style="text;html=1;strokeColor=none;fillColor=none;align=center;verticalAlign=middle;whiteSpace=wrap;rounded=0;fontSize=16;" parent="eNtJud_d0ee5PfrYbiAu-1" vertex="1">
          <mxGeometry x="-592.059090909091" y="215.00000000000006" width="10.90909090909091" height="5.456666666666667" as="geometry" />
        </mxCell>
        <mxCell id="eNtJud_d0ee5PfrYbiAu-69" value="&lt;b style=&quot;font-size: 9px;&quot;&gt;generate_W&lt;/b&gt;" style="text;html=1;strokeColor=none;fillColor=none;align=center;verticalAlign=middle;whiteSpace=wrap;rounded=0;fontSize=16;" parent="eNtJud_d0ee5PfrYbiAu-1" vertex="1">
          <mxGeometry x="-803.059090909091" y="212.00000000000006" width="10.90909090909091" height="5.456666666666667" as="geometry" />
        </mxCell>
        <mxCell id="eNtJud_d0ee5PfrYbiAu-78" value="" style="group" parent="eNtJud_d0ee5PfrYbiAu-1" vertex="1" connectable="0">
          <mxGeometry x="-779.06" y="248" width="68.75" height="70" as="geometry" />
        </mxCell>
        <mxCell id="eNtJud_d0ee5PfrYbiAu-79" value="" style="group;fontSize=16;" parent="eNtJud_d0ee5PfrYbiAu-78" vertex="1" connectable="0">
          <mxGeometry width="68.75" height="60" as="geometry" />
        </mxCell>
        <mxCell id="eNtJud_d0ee5PfrYbiAu-80" value="" style="group;fontSize=16;" parent="eNtJud_d0ee5PfrYbiAu-79" vertex="1" connectable="0">
          <mxGeometry y="13" width="52.5" height="50" as="geometry" />
        </mxCell>
        <mxCell id="eNtJud_d0ee5PfrYbiAu-81" value="" style="group;fontSize=16;" parent="eNtJud_d0ee5PfrYbiAu-80" vertex="1" connectable="0">
          <mxGeometry x="-3.75" width="56.25" height="48.75" as="geometry" />
        </mxCell>
        <object label="" markers="●" placeholders="1" id="eNtJud_d0ee5PfrYbiAu-82">
          <mxCell style="ellipse;whiteSpace=wrap;html=1;aspect=fixed;fontSize=16;direction=south;perimeterSpacing=0;strokeWidth=1;dashed=1;dashPattern=8 8;points=[[0,0.5,0,0,0],[0.5,0,0,0,0],[0.5,1,0,0,0],[1,0.5,0,0,0]];" parent="eNtJud_d0ee5PfrYbiAu-81" vertex="1">
            <mxGeometry y="6.25" width="42.5" height="42.5" as="geometry" />
          </mxCell>
        </object>
        <object label="" markers="●" placeholders="1" id="eNtJud_d0ee5PfrYbiAu-83">
          <mxCell style="ellipse;whiteSpace=wrap;html=1;aspect=fixed;fontSize=16;direction=south;perimeterSpacing=0;strokeWidth=1;points=[];" parent="eNtJud_d0ee5PfrYbiAu-81" vertex="1">
            <mxGeometry x="3.75" y="10" width="35" height="35" as="geometry" />
          </mxCell>
        </object>
        <mxCell id="eNtJud_d0ee5PfrYbiAu-84" value="&lt;b style=&quot;font-size: 9px;&quot;&gt;input_W&lt;/b&gt;" style="text;html=1;strokeColor=none;fillColor=none;align=center;verticalAlign=middle;whiteSpace=wrap;rounded=0;fontSize=16;" parent="eNtJud_d0ee5PfrYbiAu-78" vertex="1">
          <mxGeometry x="7.5" y="60" width="20" height="10" as="geometry" />
        </mxCell>
        <mxCell id="eNtJud_d0ee5PfrYbiAu-85" value="" style="group" parent="eNtJud_d0ee5PfrYbiAu-1" vertex="1" connectable="0">
          <mxGeometry x="-488.06" y="248" width="68.75" height="70" as="geometry" />
        </mxCell>
        <mxCell id="eNtJud_d0ee5PfrYbiAu-86" value="" style="group;fontSize=16;" parent="eNtJud_d0ee5PfrYbiAu-85" vertex="1" connectable="0">
          <mxGeometry width="68.75" height="60" as="geometry" />
        </mxCell>
        <mxCell id="eNtJud_d0ee5PfrYbiAu-87" value="" style="group;fontSize=16;" parent="eNtJud_d0ee5PfrYbiAu-86" vertex="1" connectable="0">
          <mxGeometry y="13" width="52.5" height="50" as="geometry" />
        </mxCell>
        <mxCell id="eNtJud_d0ee5PfrYbiAu-88" value="" style="group;fontSize=16;" parent="eNtJud_d0ee5PfrYbiAu-87" vertex="1" connectable="0">
          <mxGeometry x="-3.75" width="56.25" height="48.75" as="geometry" />
        </mxCell>
        <object label="" markers="●" placeholders="1" id="eNtJud_d0ee5PfrYbiAu-89">
          <mxCell style="ellipse;whiteSpace=wrap;html=1;aspect=fixed;fontSize=16;direction=south;perimeterSpacing=0;strokeWidth=1;dashed=1;dashPattern=8 8;points=[[0,0.5,0,0,0],[0.5,0,0,0,0],[0.5,1,0,0,0],[1,0.5,0,0,0]];" parent="eNtJud_d0ee5PfrYbiAu-88" vertex="1">
            <mxGeometry y="6.25" width="42.5" height="42.5" as="geometry" />
          </mxCell>
        </object>
        <object label="" markers="●" placeholders="1" id="eNtJud_d0ee5PfrYbiAu-90">
          <mxCell style="ellipse;whiteSpace=wrap;html=1;aspect=fixed;fontSize=16;direction=south;perimeterSpacing=0;strokeWidth=1;points=[];" parent="eNtJud_d0ee5PfrYbiAu-88" vertex="1">
            <mxGeometry x="3.75" y="10" width="35" height="35" as="geometry" />
          </mxCell>
        </object>
        <mxCell id="eNtJud_d0ee5PfrYbiAu-91" value="&lt;font size=&quot;1&quot;&gt;&lt;b style=&quot;font-size: 9px;&quot;&gt;input_E&lt;/b&gt;&lt;/font&gt;" style="text;html=1;strokeColor=none;fillColor=none;align=center;verticalAlign=middle;whiteSpace=wrap;rounded=0;fontSize=16;" parent="eNtJud_d0ee5PfrYbiAu-85" vertex="1">
          <mxGeometry x="7.5" y="60" width="20" height="10" as="geometry" />
        </mxCell>
        <mxCell id="eNtJud_d0ee5PfrYbiAu-92" style="edgeStyle=none;curved=1;rounded=0;orthogonalLoop=1;jettySize=auto;html=1;entryX=-0.011;entryY=0.425;entryDx=0;entryDy=0;entryPerimeter=0;fontSize=12;startSize=8;endSize=8;" parent="eNtJud_d0ee5PfrYbiAu-1" source="eNtJud_d0ee5PfrYbiAu-43" target="eNtJud_d0ee5PfrYbiAu-89" edge="1">
          <mxGeometry relative="1" as="geometry" />
        </mxCell>
        <mxCell id="eNtJud_d0ee5PfrYbiAu-93" style="edgeStyle=none;curved=1;rounded=0;orthogonalLoop=1;jettySize=auto;html=1;entryX=-0.011;entryY=0.464;entryDx=0;entryDy=0;entryPerimeter=0;fontSize=12;startSize=8;endSize=8;" parent="eNtJud_d0ee5PfrYbiAu-1" source="eNtJud_d0ee5PfrYbiAu-33" target="eNtJud_d0ee5PfrYbiAu-82" edge="1">
          <mxGeometry relative="1" as="geometry" />
        </mxCell>
      </root>
    </mxGraphModel>
  </diagram>
  <diagram name="inroads" id="mGslkG5DPnxcSYch1Hv4">
    <mxGraphModel dx="2001" dy="491" grid="1" gridSize="10" guides="1" tooltips="1" connect="1" arrows="1" fold="1" page="1" pageScale="1" pageWidth="827" pageHeight="1169" math="0" shadow="0">
      <root>
        <mxCell id="BLmH8TWVsbN_YLnvG7D1-0" />
        <mxCell id="BLmH8TWVsbN_YLnvG7D1-1" parent="BLmH8TWVsbN_YLnvG7D1-0" />
        <mxCell id="1Jp02DaxmbaqC7CHffP8-33" style="edgeStyle=none;rounded=0;orthogonalLoop=1;jettySize=auto;html=1;fontSize=12;startSize=8;endSize=3;fillColor=#fff2cc;strokeColor=#d6b656;endArrow=circle;endFill=0;" parent="BLmH8TWVsbN_YLnvG7D1-1" source="BLmH8TWVsbN_YLnvG7D1-28" edge="1">
          <mxGeometry relative="1" as="geometry">
            <mxPoint x="-477" y="229" as="targetPoint" />
            <Array as="points">
              <mxPoint x="-378" y="201" />
              <mxPoint x="-477" y="201" />
            </Array>
          </mxGeometry>
        </mxCell>
        <mxCell id="1Jp02DaxmbaqC7CHffP8-29" style="rounded=0;orthogonalLoop=1;jettySize=auto;html=1;entryX=0.256;entryY=-0.02;entryDx=0;entryDy=0;entryPerimeter=0;fontSize=12;startSize=8;endSize=3;fillColor=#fff2cc;strokeColor=#d6b656;endArrow=circle;endFill=0;" parent="BLmH8TWVsbN_YLnvG7D1-1" source="BLmH8TWVsbN_YLnvG7D1-22" target="BLmH8TWVsbN_YLnvG7D1-36" edge="1">
          <mxGeometry relative="1" as="geometry">
            <Array as="points">
              <mxPoint x="-720" y="191" />
              <mxPoint x="-627" y="191" />
            </Array>
          </mxGeometry>
        </mxCell>
        <mxCell id="BLmH8TWVsbN_YLnvG7D1-19" value="" style="group;fontSize=16;" parent="BLmH8TWVsbN_YLnvG7D1-1" vertex="1" connectable="0">
          <mxGeometry x="-777.06" y="122" width="68.75" height="60" as="geometry" />
        </mxCell>
        <mxCell id="BLmH8TWVsbN_YLnvG7D1-20" value="" style="group;fontSize=16;" parent="BLmH8TWVsbN_YLnvG7D1-19" vertex="1" connectable="0">
          <mxGeometry y="13" width="52.5" height="50" as="geometry" />
        </mxCell>
        <mxCell id="BLmH8TWVsbN_YLnvG7D1-21" value="" style="group;fontSize=16;" parent="BLmH8TWVsbN_YLnvG7D1-20" vertex="1" connectable="0">
          <mxGeometry x="-3.75" width="56.25" height="48.75" as="geometry" />
        </mxCell>
        <object label="" markers="●" placeholders="1" id="BLmH8TWVsbN_YLnvG7D1-22">
          <mxCell style="ellipse;whiteSpace=wrap;html=1;aspect=fixed;fontSize=16;direction=south;perimeterSpacing=0;strokeWidth=1;dashed=1;dashPattern=8 8;points=[[0,0.5,0,0,0],[0.5,0,0,0,0],[0.5,1,0,0,0],[1,0.5,0,0,0]];" parent="BLmH8TWVsbN_YLnvG7D1-21" vertex="1">
            <mxGeometry y="6.25" width="42.5" height="42.5" as="geometry" />
          </mxCell>
        </object>
        <object label="" markers="●" placeholders="1" id="BLmH8TWVsbN_YLnvG7D1-23">
          <mxCell style="ellipse;whiteSpace=wrap;html=1;aspect=fixed;fontSize=16;direction=south;perimeterSpacing=0;strokeWidth=1;points=[];" parent="BLmH8TWVsbN_YLnvG7D1-21" vertex="1">
            <mxGeometry x="3.75" y="10" width="35" height="35" as="geometry" />
          </mxCell>
        </object>
        <mxCell id="BLmH8TWVsbN_YLnvG7D1-24" value="&lt;b style=&quot;font-size: 9px;&quot;&gt;input_W&lt;/b&gt;" style="text;html=1;strokeColor=none;fillColor=none;align=center;verticalAlign=middle;whiteSpace=wrap;rounded=0;fontSize=16;" parent="BLmH8TWVsbN_YLnvG7D1-21" vertex="1">
          <mxGeometry x="11.25" y="-11" width="20" height="10" as="geometry" />
        </mxCell>
        <mxCell id="BLmH8TWVsbN_YLnvG7D1-25" value="" style="group;fontSize=16;" parent="BLmH8TWVsbN_YLnvG7D1-1" vertex="1" connectable="0">
          <mxGeometry x="-360" y="135.91" width="68.75" height="60" as="geometry" />
        </mxCell>
        <mxCell id="BLmH8TWVsbN_YLnvG7D1-26" value="" style="group;fontSize=16;" parent="BLmH8TWVsbN_YLnvG7D1-25" vertex="1" connectable="0">
          <mxGeometry y="-2" width="52.5" height="50" as="geometry" />
        </mxCell>
        <mxCell id="BLmH8TWVsbN_YLnvG7D1-27" value="" style="group;fontSize=16;" parent="BLmH8TWVsbN_YLnvG7D1-26" vertex="1" connectable="0">
          <mxGeometry x="-3.75" width="56.25" height="48.75" as="geometry" />
        </mxCell>
        <object label="" markers="●" placeholders="1" id="BLmH8TWVsbN_YLnvG7D1-28">
          <mxCell style="ellipse;whiteSpace=wrap;html=1;aspect=fixed;fontSize=16;direction=south;perimeterSpacing=0;strokeWidth=1;dashed=1;dashPattern=8 8;points=[[0,0.5,0,0,0],[0.5,0,0,0,0],[0.5,1,0,0,0],[1,0.5,0,0,0]];" parent="BLmH8TWVsbN_YLnvG7D1-27" vertex="1">
            <mxGeometry y="6.25" width="42.5" height="42.5" as="geometry" />
          </mxCell>
        </object>
        <object label="" markers="●" placeholders="1" id="BLmH8TWVsbN_YLnvG7D1-29">
          <mxCell style="ellipse;whiteSpace=wrap;html=1;aspect=fixed;fontSize=16;direction=south;perimeterSpacing=0;strokeWidth=1;points=[];" parent="BLmH8TWVsbN_YLnvG7D1-27" vertex="1">
            <mxGeometry x="3.75" y="10" width="35" height="35" as="geometry" />
          </mxCell>
        </object>
        <mxCell id="BLmH8TWVsbN_YLnvG7D1-30" value="&lt;font size=&quot;1&quot;&gt;&lt;b style=&quot;font-size: 9px;&quot;&gt;input_E&lt;/b&gt;&lt;/font&gt;" style="text;html=1;strokeColor=none;fillColor=none;align=center;verticalAlign=middle;whiteSpace=wrap;rounded=0;fontSize=16;" parent="BLmH8TWVsbN_YLnvG7D1-27" vertex="1">
          <mxGeometry x="11.25" y="-8.75" width="20" height="10" as="geometry" />
        </mxCell>
        <mxCell id="BLmH8TWVsbN_YLnvG7D1-31" value="" style="group;fontSize=16;" parent="BLmH8TWVsbN_YLnvG7D1-1" vertex="1" connectable="0">
          <mxGeometry x="-784.0600000000001" y="218.00000000000006" width="70.91" height="21.830000000000013" as="geometry" />
        </mxCell>
        <mxCell id="BLmH8TWVsbN_YLnvG7D1-32" value="" style="group;points=[[0,0.5,0,0,0],[0.5,0,0,0,0],[0.5,1,0,0,0],[1,0.5,0,0,0]];fontSize=16;" parent="BLmH8TWVsbN_YLnvG7D1-31" vertex="1" connectable="0">
          <mxGeometry y="5.460000000000008" width="60" height="16.37" as="geometry" />
        </mxCell>
        <mxCell id="BLmH8TWVsbN_YLnvG7D1-33" value="" style="rounded=0;whiteSpace=wrap;html=1;fontSize=16;fillColor=#000000;points=[[0,0.5,0,0,0],[0.5,0,0,0,0],[0.5,1,0,0,0],[1,0.5,0,0,0]];" parent="BLmH8TWVsbN_YLnvG7D1-32" vertex="1">
          <mxGeometry y="5.456666666666667" width="49.09090909090909" height="10.913333333333334" as="geometry" />
        </mxCell>
        <mxCell id="BLmH8TWVsbN_YLnvG7D1-34" value="" style="group;fontSize=16;" parent="BLmH8TWVsbN_YLnvG7D1-1" vertex="1" connectable="0">
          <mxGeometry x="-640" y="217.91000000000005" width="70.91" height="21.830000000000013" as="geometry" />
        </mxCell>
        <mxCell id="BLmH8TWVsbN_YLnvG7D1-35" value="" style="group;points=[[0,0.5,0,0,0],[0.5,0,0,0,0],[0.5,1,0,0,0],[1,0.5,0,0,0]];fontSize=16;" parent="BLmH8TWVsbN_YLnvG7D1-34" vertex="1" connectable="0">
          <mxGeometry y="5.460000000000008" width="60" height="16.37" as="geometry" />
        </mxCell>
        <mxCell id="BLmH8TWVsbN_YLnvG7D1-36" value="" style="rounded=0;whiteSpace=wrap;html=1;fontSize=16;fillColor=#000000;points=[[0,0.5,0,0,0],[0.5,0,0,0,0],[0.5,1,0,0,0],[1,0.5,0,0,0]];" parent="BLmH8TWVsbN_YLnvG7D1-35" vertex="1">
          <mxGeometry y="5.456666666666667" width="49.09090909090909" height="10.913333333333334" as="geometry" />
        </mxCell>
        <mxCell id="BLmH8TWVsbN_YLnvG7D1-37" value="&lt;b style=&quot;font-size: 9px;&quot;&gt;skip_W&lt;/b&gt;" style="text;html=1;strokeColor=none;fillColor=none;align=center;verticalAlign=middle;whiteSpace=wrap;rounded=0;fontSize=16;" parent="BLmH8TWVsbN_YLnvG7D1-34" vertex="1">
          <mxGeometry x="60.00090909090909" width="10.90909090909091" height="5.456666666666667" as="geometry" />
        </mxCell>
        <mxCell id="BLmH8TWVsbN_YLnvG7D1-41" value="" style="group;fontSize=16;" parent="BLmH8TWVsbN_YLnvG7D1-1" vertex="1" connectable="0">
          <mxGeometry x="-367.00000000000006" y="217.91000000000005" width="70.91" height="21.830000000000013" as="geometry" />
        </mxCell>
        <mxCell id="BLmH8TWVsbN_YLnvG7D1-42" value="" style="group;points=[[0,0.5,0,0,0],[0.5,0,0,0,0],[0.5,1,0,0,0],[1,0.5,0,0,0]];fontSize=16;" parent="BLmH8TWVsbN_YLnvG7D1-41" vertex="1" connectable="0">
          <mxGeometry y="5.460000000000008" width="60" height="16.37" as="geometry" />
        </mxCell>
        <mxCell id="BLmH8TWVsbN_YLnvG7D1-43" value="" style="rounded=0;whiteSpace=wrap;html=1;fontSize=16;fillColor=#000000;points=[[0,0.5,0,0,0],[0.5,0,0,0,0],[0.5,1,0,0,0],[1,0.5,0,0,0]];" parent="BLmH8TWVsbN_YLnvG7D1-42" vertex="1">
          <mxGeometry y="5.456666666666667" width="49.09090909090909" height="10.913333333333334" as="geometry" />
        </mxCell>
        <mxCell id="BLmH8TWVsbN_YLnvG7D1-44" value="&lt;b style=&quot;font-size: 9px;&quot;&gt;enter_E&lt;/b&gt;" style="text;html=1;strokeColor=none;fillColor=none;align=center;verticalAlign=middle;whiteSpace=wrap;rounded=0;fontSize=16;" parent="BLmH8TWVsbN_YLnvG7D1-41" vertex="1">
          <mxGeometry x="57.00090909090909" y="-1" width="10.90909090909091" height="5.456666666666667" as="geometry" />
        </mxCell>
        <mxCell id="BLmH8TWVsbN_YLnvG7D1-45" style="edgeStyle=none;curved=1;rounded=0;orthogonalLoop=1;jettySize=auto;html=1;exitX=1;exitY=0.5;exitDx=0;exitDy=0;exitPerimeter=0;entryX=0.5;entryY=0;entryDx=0;entryDy=0;entryPerimeter=0;fontSize=12;startSize=8;endSize=8;" parent="BLmH8TWVsbN_YLnvG7D1-1" source="BLmH8TWVsbN_YLnvG7D1-22" target="BLmH8TWVsbN_YLnvG7D1-33" edge="1">
          <mxGeometry relative="1" as="geometry" />
        </mxCell>
        <mxCell id="BLmH8TWVsbN_YLnvG7D1-48" style="edgeStyle=none;curved=1;rounded=0;orthogonalLoop=1;jettySize=auto;html=1;exitX=1;exitY=0.5;exitDx=0;exitDy=0;exitPerimeter=0;entryX=0.5;entryY=0;entryDx=0;entryDy=0;entryPerimeter=0;fontSize=12;startSize=8;endSize=8;" parent="BLmH8TWVsbN_YLnvG7D1-1" source="BLmH8TWVsbN_YLnvG7D1-28" target="BLmH8TWVsbN_YLnvG7D1-43" edge="1">
          <mxGeometry relative="1" as="geometry" />
        </mxCell>
        <mxCell id="BLmH8TWVsbN_YLnvG7D1-69" value="&lt;b style=&quot;font-size: 9px;&quot;&gt;enter_W&lt;/b&gt;" style="text;html=1;strokeColor=none;fillColor=none;align=center;verticalAlign=middle;whiteSpace=wrap;rounded=0;fontSize=16;" parent="BLmH8TWVsbN_YLnvG7D1-1" vertex="1">
          <mxGeometry x="-803.059090909091" y="216.00000000000006" width="10.90909090909091" height="5.456666666666667" as="geometry" />
        </mxCell>
        <mxCell id="BLmH8TWVsbN_YLnvG7D1-78" value="" style="group" parent="BLmH8TWVsbN_YLnvG7D1-1" vertex="1" connectable="0">
          <mxGeometry x="-779.06" y="297" width="68.75" height="70" as="geometry" />
        </mxCell>
        <mxCell id="BLmH8TWVsbN_YLnvG7D1-79" value="" style="group;fontSize=16;" parent="BLmH8TWVsbN_YLnvG7D1-78" vertex="1" connectable="0">
          <mxGeometry width="68.75" height="60" as="geometry" />
        </mxCell>
        <mxCell id="BLmH8TWVsbN_YLnvG7D1-80" value="" style="group;fontSize=16;" parent="BLmH8TWVsbN_YLnvG7D1-79" vertex="1" connectable="0">
          <mxGeometry y="13" width="52.5" height="50" as="geometry" />
        </mxCell>
        <mxCell id="BLmH8TWVsbN_YLnvG7D1-81" value="" style="group;fontSize=16;" parent="BLmH8TWVsbN_YLnvG7D1-80" vertex="1" connectable="0">
          <mxGeometry x="-3.75" width="56.25" height="48.75" as="geometry" />
        </mxCell>
        <object label="" markers="●" placeholders="1" id="BLmH8TWVsbN_YLnvG7D1-82">
          <mxCell style="ellipse;whiteSpace=wrap;html=1;aspect=fixed;fontSize=16;direction=south;perimeterSpacing=0;strokeWidth=1;dashed=1;dashPattern=8 8;points=[[0,0.5,0,0,0],[0.5,0,0,0,0],[0.5,1,0,0,0],[1,0.5,0,0,0]];" parent="BLmH8TWVsbN_YLnvG7D1-81" vertex="1">
            <mxGeometry y="6.25" width="42.5" height="42.5" as="geometry" />
          </mxCell>
        </object>
        <object label="" markers="●" placeholders="1" id="BLmH8TWVsbN_YLnvG7D1-83">
          <mxCell style="ellipse;whiteSpace=wrap;html=1;aspect=fixed;fontSize=16;direction=south;perimeterSpacing=0;strokeWidth=1;points=[];" parent="BLmH8TWVsbN_YLnvG7D1-81" vertex="1">
            <mxGeometry x="3.75" y="10" width="35" height="35" as="geometry" />
          </mxCell>
        </object>
        <mxCell id="BLmH8TWVsbN_YLnvG7D1-84" value="&lt;b style=&quot;font-size: 9px;&quot;&gt;core_W&lt;/b&gt;" style="text;html=1;strokeColor=none;fillColor=none;align=center;verticalAlign=middle;whiteSpace=wrap;rounded=0;fontSize=16;" parent="BLmH8TWVsbN_YLnvG7D1-78" vertex="1">
          <mxGeometry x="7.5" y="60" width="20" height="10" as="geometry" />
        </mxCell>
        <mxCell id="BLmH8TWVsbN_YLnvG7D1-85" value="" style="group" parent="BLmH8TWVsbN_YLnvG7D1-1" vertex="1" connectable="0">
          <mxGeometry x="-363" y="297.90999999999997" width="68.75" height="70" as="geometry" />
        </mxCell>
        <mxCell id="BLmH8TWVsbN_YLnvG7D1-86" value="" style="group;fontSize=16;" parent="BLmH8TWVsbN_YLnvG7D1-85" vertex="1" connectable="0">
          <mxGeometry width="68.75" height="60" as="geometry" />
        </mxCell>
        <mxCell id="BLmH8TWVsbN_YLnvG7D1-87" value="" style="group;fontSize=16;" parent="BLmH8TWVsbN_YLnvG7D1-86" vertex="1" connectable="0">
          <mxGeometry y="13" width="52.5" height="50" as="geometry" />
        </mxCell>
        <mxCell id="BLmH8TWVsbN_YLnvG7D1-88" value="" style="group;fontSize=16;" parent="BLmH8TWVsbN_YLnvG7D1-87" vertex="1" connectable="0">
          <mxGeometry x="-3.75" width="56.25" height="48.75" as="geometry" />
        </mxCell>
        <object label="" markers="●" placeholders="1" id="BLmH8TWVsbN_YLnvG7D1-89">
          <mxCell style="ellipse;whiteSpace=wrap;html=1;aspect=fixed;fontSize=16;direction=south;perimeterSpacing=0;strokeWidth=1;dashed=1;dashPattern=8 8;points=[[0,0.5,0,0,0],[0.5,0,0,0,0],[0.5,1,0,0,0],[1,0.5,0,0,0]];" parent="BLmH8TWVsbN_YLnvG7D1-88" vertex="1">
            <mxGeometry y="6.25" width="42.5" height="42.5" as="geometry" />
          </mxCell>
        </object>
        <object label="" markers="●" placeholders="1" id="BLmH8TWVsbN_YLnvG7D1-90">
          <mxCell style="ellipse;whiteSpace=wrap;html=1;aspect=fixed;fontSize=16;direction=south;perimeterSpacing=0;strokeWidth=1;points=[];" parent="BLmH8TWVsbN_YLnvG7D1-88" vertex="1">
            <mxGeometry x="3.75" y="10" width="35" height="35" as="geometry" />
          </mxCell>
        </object>
        <mxCell id="BLmH8TWVsbN_YLnvG7D1-91" value="&lt;font size=&quot;1&quot;&gt;&lt;b style=&quot;font-size: 9px;&quot;&gt;core_E&lt;/b&gt;&lt;/font&gt;" style="text;html=1;strokeColor=none;fillColor=none;align=center;verticalAlign=middle;whiteSpace=wrap;rounded=0;fontSize=16;" parent="BLmH8TWVsbN_YLnvG7D1-85" vertex="1">
          <mxGeometry x="7.5" y="60" width="20" height="10" as="geometry" />
        </mxCell>
        <mxCell id="BLmH8TWVsbN_YLnvG7D1-92" style="edgeStyle=none;curved=1;rounded=0;orthogonalLoop=1;jettySize=auto;html=1;entryX=-0.011;entryY=0.425;entryDx=0;entryDy=0;entryPerimeter=0;fontSize=12;startSize=8;endSize=8;" parent="BLmH8TWVsbN_YLnvG7D1-1" source="BLmH8TWVsbN_YLnvG7D1-43" target="BLmH8TWVsbN_YLnvG7D1-89" edge="1">
          <mxGeometry relative="1" as="geometry" />
        </mxCell>
        <mxCell id="BLmH8TWVsbN_YLnvG7D1-93" style="edgeStyle=none;curved=1;rounded=0;orthogonalLoop=1;jettySize=auto;html=1;entryX=-0.011;entryY=0.464;entryDx=0;entryDy=0;entryPerimeter=0;fontSize=12;startSize=8;endSize=8;" parent="BLmH8TWVsbN_YLnvG7D1-1" source="BLmH8TWVsbN_YLnvG7D1-33" target="BLmH8TWVsbN_YLnvG7D1-82" edge="1">
          <mxGeometry relative="1" as="geometry" />
        </mxCell>
        <mxCell id="BLmH8TWVsbN_YLnvG7D1-94" style="edgeStyle=orthogonalEdgeStyle;rounded=0;orthogonalLoop=1;jettySize=auto;html=1;entryX=0;entryY=0.5;entryDx=0;entryDy=0;entryPerimeter=0;fontSize=12;startSize=3;endSize=3;exitX=0.5;exitY=1;exitDx=0;exitDy=0;exitPerimeter=0;endArrow=circle;endFill=0;fillColor=#fff2cc;strokeColor=#d6b656;" parent="BLmH8TWVsbN_YLnvG7D1-1" source="BLmH8TWVsbN_YLnvG7D1-82" target="BLmH8TWVsbN_YLnvG7D1-33" edge="1">
          <mxGeometry relative="1" as="geometry">
            <Array as="points">
              <mxPoint x="-810" y="338" />
              <mxPoint x="-810" y="234" />
            </Array>
          </mxGeometry>
        </mxCell>
        <mxCell id="BLmH8TWVsbN_YLnvG7D1-95" style="edgeStyle=orthogonalEdgeStyle;rounded=0;orthogonalLoop=1;jettySize=auto;html=1;exitX=0.5;exitY=0;exitDx=0;exitDy=0;exitPerimeter=0;entryX=1;entryY=0.5;entryDx=0;entryDy=0;entryPerimeter=0;fontSize=12;startSize=3;endSize=3;endArrow=circle;endFill=0;fillColor=#fff2cc;strokeColor=#d6b656;" parent="BLmH8TWVsbN_YLnvG7D1-1" source="BLmH8TWVsbN_YLnvG7D1-89" target="BLmH8TWVsbN_YLnvG7D1-43" edge="1">
          <mxGeometry relative="1" as="geometry">
            <Array as="points">
              <mxPoint x="-294" y="338" />
              <mxPoint x="-294" y="234" />
            </Array>
          </mxGeometry>
        </mxCell>
        <mxCell id="1Jp02DaxmbaqC7CHffP8-4" value="" style="group;fontSize=16;" parent="BLmH8TWVsbN_YLnvG7D1-1" vertex="1" connectable="0">
          <mxGeometry x="-714" y="218.00000000000006" width="70.91" height="21.830000000000013" as="geometry" />
        </mxCell>
        <mxCell id="1Jp02DaxmbaqC7CHffP8-5" value="" style="group;points=[[0,0.5,0,0,0],[0.5,0,0,0,0],[0.5,1,0,0,0],[1,0.5,0,0,0]];fontSize=16;" parent="1Jp02DaxmbaqC7CHffP8-4" vertex="1" connectable="0">
          <mxGeometry y="5.460000000000008" width="60" height="16.37" as="geometry" />
        </mxCell>
        <mxCell id="1Jp02DaxmbaqC7CHffP8-6" value="" style="rounded=0;whiteSpace=wrap;html=1;fontSize=16;fillColor=#000000;points=[[0,0.5,0,0,0],[0.5,0,0,0,0],[0.5,1,0,0,0],[1,0.5,0,0,0]];" parent="1Jp02DaxmbaqC7CHffP8-5" vertex="1">
          <mxGeometry y="5.456666666666667" width="49.09090909090909" height="10.913333333333334" as="geometry" />
        </mxCell>
        <mxCell id="1Jp02DaxmbaqC7CHffP8-7" value="&lt;b style=&quot;font-size: 9px;&quot;&gt;stall_W&lt;/b&gt;" style="text;html=1;strokeColor=none;fillColor=none;align=center;verticalAlign=middle;whiteSpace=wrap;rounded=0;fontSize=16;" parent="1Jp02DaxmbaqC7CHffP8-4" vertex="1">
          <mxGeometry x="42.00090909090909" y="-2.0000000000000036" width="10.90909090909091" height="5.456666666666667" as="geometry" />
        </mxCell>
        <mxCell id="1Jp02DaxmbaqC7CHffP8-10" style="edgeStyle=none;rounded=0;orthogonalLoop=1;jettySize=auto;html=1;fontSize=12;startSize=8;endSize=8;jumpStyle=line;startArrow=classic;startFill=1;dashed=1;entryX=0.5;entryY=1;entryDx=0;entryDy=0;entryPerimeter=0;" parent="BLmH8TWVsbN_YLnvG7D1-1" source="BLmH8TWVsbN_YLnvG7D1-82" edge="1" target="1Jp02DaxmbaqC7CHffP8-6">
          <mxGeometry relative="1" as="geometry">
            <mxPoint x="-700" y="240" as="targetPoint" />
            <Array as="points">
              <mxPoint x="-690" y="338" />
            </Array>
          </mxGeometry>
        </mxCell>
        <mxCell id="1Jp02DaxmbaqC7CHffP8-20" value="" style="group" parent="BLmH8TWVsbN_YLnvG7D1-1" vertex="1" connectable="0">
          <mxGeometry x="-537.9990909090909" y="218.91000000000005" width="69.08999999999997" height="20.830000000000013" as="geometry" />
        </mxCell>
        <mxCell id="BLmH8TWVsbN_YLnvG7D1-68" value="&lt;b style=&quot;font-size: 9px;&quot;&gt;skip_E&lt;/b&gt;" style="text;html=1;strokeColor=none;fillColor=none;align=center;verticalAlign=middle;whiteSpace=wrap;rounded=0;fontSize=16;" parent="1Jp02DaxmbaqC7CHffP8-20" vertex="1">
          <mxGeometry y="-1" width="10.90909090909091" height="5.456666666666667" as="geometry" />
        </mxCell>
        <mxCell id="BLmH8TWVsbN_YLnvG7D1-40" value="" style="rounded=0;whiteSpace=wrap;html=1;fontSize=16;fillColor=#000000;points=[[0,0.5,0,0,0],[0.5,0,0,0,0],[0.5,1,0,0,0],[1,0.5,0,0,0]];" parent="1Jp02DaxmbaqC7CHffP8-20" vertex="1">
          <mxGeometry x="19.99909090909091" y="9.916666666666686" width="49.09090909090909" height="10.913333333333334" as="geometry" />
        </mxCell>
        <mxCell id="1Jp02DaxmbaqC7CHffP8-24" value="" style="group" parent="BLmH8TWVsbN_YLnvG7D1-1" vertex="1" connectable="0">
          <mxGeometry x="-463.99909090909097" y="219.00000000000006" width="69.08999999999997" height="20.830000000000013" as="geometry" />
        </mxCell>
        <mxCell id="1Jp02DaxmbaqC7CHffP8-25" value="&lt;b style=&quot;font-size: 9px;&quot;&gt;stall_E&lt;/b&gt;" style="text;html=1;strokeColor=none;fillColor=none;align=center;verticalAlign=middle;whiteSpace=wrap;rounded=0;fontSize=16;" parent="1Jp02DaxmbaqC7CHffP8-24" vertex="1">
          <mxGeometry x="16" y="-2" width="10.90909090909091" height="5.456666666666667" as="geometry" />
        </mxCell>
        <mxCell id="1Jp02DaxmbaqC7CHffP8-26" value="" style="rounded=0;whiteSpace=wrap;html=1;fontSize=16;fillColor=#000000;points=[[0,0.5,0,0,0],[0.5,0,0,0,0],[0.5,1,0,0,0],[1,0.5,0,0,0]];" parent="1Jp02DaxmbaqC7CHffP8-24" vertex="1">
          <mxGeometry x="19.99909090909091" y="9.916666666666686" width="49.09090909090909" height="10.913333333333334" as="geometry" />
        </mxCell>
        <mxCell id="1Jp02DaxmbaqC7CHffP8-31" style="edgeStyle=none;rounded=0;orthogonalLoop=1;jettySize=auto;html=1;exitX=0.5;exitY=1;exitDx=0;exitDy=0;exitPerimeter=0;fontSize=12;startSize=8;endSize=8;startArrow=classic;startFill=1;dashed=1;jumpStyle=line;entryX=0.5;entryY=1;entryDx=0;entryDy=0;entryPerimeter=0;" parent="BLmH8TWVsbN_YLnvG7D1-1" source="BLmH8TWVsbN_YLnvG7D1-89" edge="1" target="1Jp02DaxmbaqC7CHffP8-26">
          <mxGeometry relative="1" as="geometry">
            <mxPoint x="-408" y="240" as="targetPoint" />
            <Array as="points">
              <mxPoint x="-420" y="338" />
            </Array>
          </mxGeometry>
        </mxCell>
        <mxCell id="1Jp02DaxmbaqC7CHffP8-14" style="edgeStyle=none;rounded=0;orthogonalLoop=1;jettySize=auto;html=1;entryX=0.5;entryY=0;entryDx=0;entryDy=0;entryPerimeter=0;fontSize=12;startSize=8;endSize=8;startArrow=classic;startFill=1;exitX=0.5;exitY=0;exitDx=0;exitDy=0;exitPerimeter=0;jumpStyle=line;dashed=1;" parent="BLmH8TWVsbN_YLnvG7D1-1" source="BLmH8TWVsbN_YLnvG7D1-22" target="1Jp02DaxmbaqC7CHffP8-6" edge="1">
          <mxGeometry relative="1" as="geometry">
            <Array as="points">
              <mxPoint x="-690" y="163" />
            </Array>
          </mxGeometry>
        </mxCell>
        <mxCell id="1Jp02DaxmbaqC7CHffP8-32" style="rounded=0;orthogonalLoop=1;jettySize=auto;html=1;exitX=0.5;exitY=1;exitDx=0;exitDy=0;exitPerimeter=0;entryX=0.5;entryY=0;entryDx=0;entryDy=0;entryPerimeter=0;fontSize=12;startSize=8;endSize=8;edgeStyle=orthogonalEdgeStyle;jumpStyle=line;dashed=1;startArrow=classic;startFill=1;" parent="BLmH8TWVsbN_YLnvG7D1-1" source="BLmH8TWVsbN_YLnvG7D1-28" target="1Jp02DaxmbaqC7CHffP8-26" edge="1">
          <mxGeometry relative="1" as="geometry" />
        </mxCell>
      </root>
    </mxGraphModel>
  </diagram>
  <diagram id="t9hz9UERbOrSIitpHnG3" name="core">
    <mxGraphModel dx="2828" dy="491" grid="1" gridSize="10" guides="1" tooltips="1" connect="1" arrows="1" fold="1" page="1" pageScale="1" pageWidth="827" pageHeight="1169" math="0" shadow="0">
      <root>
        <mxCell id="0" />
        <mxCell id="1" parent="0" />
        <mxCell id="8Joogp2kNSr6ya6-F_BD-6" value="" style="group;fontSize=16;" vertex="1" connectable="0" parent="1">
          <mxGeometry x="-1280" y="150" width="58.75" height="52.5" as="geometry" />
        </mxCell>
        <object label="" markers="●" placeholders="1" id="8Joogp2kNSr6ya6-F_BD-7">
          <mxCell style="ellipse;whiteSpace=wrap;html=1;aspect=fixed;fontSize=16;direction=south;perimeterSpacing=0;strokeWidth=1;points=[];container=0;" vertex="1" parent="8Joogp2kNSr6ya6-F_BD-6">
            <mxGeometry x="3.75" y="13.75" width="35" height="35" as="geometry" />
          </mxCell>
        </object>
        <object label="" markers="●" placeholders="1" id="8Joogp2kNSr6ya6-F_BD-8">
          <mxCell style="ellipse;whiteSpace=wrap;html=1;aspect=fixed;fontSize=16;direction=south;perimeterSpacing=0;strokeWidth=1;dashed=1;dashPattern=8 8;points=[[0,0.5,0,0,0],[0.5,0,0,0,0],[0.5,1,0,0,0],[1,0.5,0,0,0]];container=0;fillColor=none;" vertex="1" parent="8Joogp2kNSr6ya6-F_BD-6">
            <mxGeometry y="10" width="42.5" height="42.5" as="geometry" />
          </mxCell>
        </object>
        <mxCell id="8Joogp2kNSr6ya6-F_BD-10" value="" style="group;fontSize=16;" vertex="1" connectable="0" parent="1">
          <mxGeometry x="-1280" y="465" width="58.75" height="52.5" as="geometry" />
        </mxCell>
        <object label="" markers="●" placeholders="1" id="8Joogp2kNSr6ya6-F_BD-11">
          <mxCell style="ellipse;whiteSpace=wrap;html=1;aspect=fixed;fontSize=16;direction=south;perimeterSpacing=0;strokeWidth=1;points=[];container=0;" vertex="1" parent="8Joogp2kNSr6ya6-F_BD-10">
            <mxGeometry x="3.75" y="13.75" width="35" height="35" as="geometry" />
          </mxCell>
        </object>
        <object label="" markers="●" placeholders="1" id="8Joogp2kNSr6ya6-F_BD-12">
          <mxCell style="ellipse;whiteSpace=wrap;html=1;aspect=fixed;fontSize=16;direction=south;perimeterSpacing=0;strokeWidth=1;dashed=1;dashPattern=8 8;points=[[0,0.5,0,0,0],[0.5,0,0,0,0],[0.5,1,0,0,0],[1,0.5,0,0,0]];container=0;fillColor=none;" vertex="1" parent="8Joogp2kNSr6ya6-F_BD-10">
            <mxGeometry y="10" width="42.5" height="42.5" as="geometry" />
          </mxCell>
        </object>
        <mxCell id="8Joogp2kNSr6ya6-F_BD-14" value="" style="group;fontSize=16;" vertex="1" connectable="0" parent="1">
          <mxGeometry x="-1120" y="310" width="58.75" height="52.5" as="geometry" />
        </mxCell>
        <object label="" markers="●" placeholders="1" id="8Joogp2kNSr6ya6-F_BD-15">
          <mxCell style="ellipse;whiteSpace=wrap;html=1;aspect=fixed;fontSize=16;direction=south;perimeterSpacing=0;strokeWidth=1;points=[];container=0;" vertex="1" parent="8Joogp2kNSr6ya6-F_BD-14">
            <mxGeometry x="3.75" y="13.75" width="35" height="35" as="geometry" />
          </mxCell>
        </object>
        <object label="" markers="●" placeholders="1" id="8Joogp2kNSr6ya6-F_BD-16">
          <mxCell style="ellipse;whiteSpace=wrap;html=1;aspect=fixed;fontSize=16;direction=south;perimeterSpacing=0;strokeWidth=1;dashed=1;dashPattern=8 8;points=[[0,0.5,0,0,0],[0.5,0,0,0,0],[0.5,1,0,0,0],[1,0.5,0,0,0]];container=0;fillColor=none;" vertex="1" parent="8Joogp2kNSr6ya6-F_BD-14">
            <mxGeometry y="10" width="42.5" height="42.5" as="geometry" />
          </mxCell>
        </object>
        <mxCell id="8Joogp2kNSr6ya6-F_BD-18" value="" style="group;fontSize=16;" vertex="1" connectable="0" parent="1">
          <mxGeometry x="-1440" y="310" width="58.75" height="52.5" as="geometry" />
        </mxCell>
        <object label="" markers="●" placeholders="1" id="8Joogp2kNSr6ya6-F_BD-19">
          <mxCell style="ellipse;whiteSpace=wrap;html=1;aspect=fixed;fontSize=16;direction=south;perimeterSpacing=0;strokeWidth=1;points=[];container=0;" vertex="1" parent="8Joogp2kNSr6ya6-F_BD-18">
            <mxGeometry x="3.75" y="13.75" width="35" height="35" as="geometry" />
          </mxCell>
        </object>
        <object label="" markers="●" placeholders="1" id="8Joogp2kNSr6ya6-F_BD-20">
          <mxCell style="ellipse;whiteSpace=wrap;html=1;aspect=fixed;fontSize=16;direction=south;perimeterSpacing=0;strokeWidth=1;dashed=1;dashPattern=8 8;points=[[0,0.5,0,0,0],[0.5,0,0,0,0],[0.5,1,0,0,0],[1,0.5,0,0,0]];container=0;fillColor=none;" vertex="1" parent="8Joogp2kNSr6ya6-F_BD-18">
            <mxGeometry y="10" width="42.5" height="42.5" as="geometry" />
          </mxCell>
        </object>
        <mxCell id="8Joogp2kNSr6ya6-F_BD-35" style="edgeStyle=none;curved=1;rounded=0;orthogonalLoop=1;jettySize=auto;html=1;exitX=0.179;exitY=0.087;exitDx=0;exitDy=0;exitPerimeter=0;entryX=0.5;entryY=1;entryDx=0;entryDy=0;entryPerimeter=0;fontSize=12;startSize=8;endSize=8;" edge="1" parent="1" source="8Joogp2kNSr6ya6-F_BD-12" target="8Joogp2kNSr6ya6-F_BD-24">
          <mxGeometry relative="1" as="geometry" />
        </mxCell>
        <mxCell id="8Joogp2kNSr6ya6-F_BD-36" style="edgeStyle=none;curved=1;rounded=0;orthogonalLoop=1;jettySize=auto;html=1;exitX=0.5;exitY=0;exitDx=0;exitDy=0;exitPerimeter=0;entryX=0.822;entryY=0.897;entryDx=0;entryDy=0;entryPerimeter=0;fontSize=12;startSize=8;endSize=8;" edge="1" parent="1" source="8Joogp2kNSr6ya6-F_BD-24" target="8Joogp2kNSr6ya6-F_BD-16">
          <mxGeometry relative="1" as="geometry" />
        </mxCell>
        <mxCell id="8Joogp2kNSr6ya6-F_BD-13" value="&lt;b style=&quot;font-size: 9px;&quot;&gt;core_S&lt;/b&gt;" style="text;html=1;strokeColor=none;fillColor=none;align=center;verticalAlign=middle;whiteSpace=wrap;rounded=0;fontSize=16;points=[];container=0;" vertex="1" parent="1">
          <mxGeometry x="-1268.75" y="517.5" width="20" height="10" as="geometry" />
        </mxCell>
        <mxCell id="8Joogp2kNSr6ya6-F_BD-17" value="&lt;b style=&quot;font-size: 9px;&quot;&gt;core_E&lt;/b&gt;" style="text;html=1;strokeColor=none;fillColor=none;align=center;verticalAlign=middle;whiteSpace=wrap;rounded=0;fontSize=16;points=[];container=0;" vertex="1" parent="1">
          <mxGeometry x="-1070" y="331.25" width="20" height="10" as="geometry" />
        </mxCell>
        <mxCell id="8Joogp2kNSr6ya6-F_BD-21" value="&lt;b style=&quot;font-size: 9px;&quot;&gt;core_W&lt;/b&gt;" style="text;html=1;strokeColor=none;fillColor=none;align=center;verticalAlign=middle;whiteSpace=wrap;rounded=0;fontSize=16;points=[];container=0;" vertex="1" parent="1">
          <mxGeometry x="-1470" y="336.25" width="20" height="10" as="geometry" />
        </mxCell>
        <mxCell id="8Joogp2kNSr6ya6-F_BD-9" value="&lt;b style=&quot;font-size: 9px;&quot;&gt;core_N&lt;/b&gt;" style="text;html=1;strokeColor=none;fillColor=none;align=center;verticalAlign=middle;whiteSpace=wrap;rounded=0;fontSize=16;points=[];container=0;" vertex="1" parent="1">
          <mxGeometry x="-1268.75" y="140" width="20" height="10" as="geometry" />
        </mxCell>
        <mxCell id="8Joogp2kNSr6ya6-F_BD-39" value="" style="group" vertex="1" connectable="0" parent="1">
          <mxGeometry x="-1200.999248813617" y="398.9986299742617" width="51.489248813616996" height="45.38803669240491" as="geometry" />
        </mxCell>
        <mxCell id="8Joogp2kNSr6ya6-F_BD-24" value="" style="rounded=0;whiteSpace=wrap;html=1;fontSize=16;fillColor=#000000;points=[[0,0.5,0,0,0],[0.5,0,0,0,0],[0.5,1,0,0,0],[1,0.5,0,0,0]];rotation=45;container=0;" vertex="1" parent="8Joogp2kNSr6ya6-F_BD-39">
          <mxGeometry x="-3.3307511863829404" y="15.758036692404971" width="49.09090909090909" height="10.913333333333334" as="geometry" />
        </mxCell>
        <mxCell id="8Joogp2kNSr6ya6-F_BD-40" value="" style="group" vertex="1" connectable="0" parent="1">
          <mxGeometry x="-1361.999248813617" y="238.9986299742617" width="51.489248813616996" height="45.38803669240491" as="geometry" />
        </mxCell>
        <mxCell id="8Joogp2kNSr6ya6-F_BD-42" value="" style="rounded=0;whiteSpace=wrap;html=1;fontSize=16;fillColor=#000000;points=[[0,0.5,0,0,0],[0.5,0,0,0,0],[0.5,1,0,0,0],[1,0.5,0,0,0]];rotation=45;container=0;" vertex="1" parent="8Joogp2kNSr6ya6-F_BD-40">
          <mxGeometry x="-3.3307511863829404" y="15.758036692404971" width="49.09090909090909" height="10.913333333333334" as="geometry" />
        </mxCell>
        <mxCell id="8Joogp2kNSr6ya6-F_BD-43" style="edgeStyle=none;curved=1;rounded=0;orthogonalLoop=1;jettySize=auto;html=1;entryX=0.5;entryY=0;entryDx=0;entryDy=0;entryPerimeter=0;fontSize=12;startSize=8;endSize=8;" edge="1" parent="1" source="8Joogp2kNSr6ya6-F_BD-8" target="8Joogp2kNSr6ya6-F_BD-42">
          <mxGeometry relative="1" as="geometry" />
        </mxCell>
        <mxCell id="8Joogp2kNSr6ya6-F_BD-44" style="edgeStyle=none;curved=1;rounded=0;orthogonalLoop=1;jettySize=auto;html=1;exitX=0.5;exitY=1;exitDx=0;exitDy=0;exitPerimeter=0;entryX=0.133;entryY=0.137;entryDx=0;entryDy=0;entryPerimeter=0;fontSize=12;startSize=8;endSize=8;" edge="1" parent="1" source="8Joogp2kNSr6ya6-F_BD-42" target="8Joogp2kNSr6ya6-F_BD-20">
          <mxGeometry relative="1" as="geometry" />
        </mxCell>
        <mxCell id="8Joogp2kNSr6ya6-F_BD-41" value="&lt;b style=&quot;font-size: 9px;&quot;&gt;move_N&lt;/b&gt;" style="text;html=1;strokeColor=none;fillColor=none;align=center;verticalAlign=middle;whiteSpace=wrap;rounded=0;fontSize=16;points=[];container=0;" vertex="1" parent="1">
          <mxGeometry x="-1333.999090909091" y="285.99999999999994" width="10.90909090909091" height="5.456666666666667" as="geometry" />
        </mxCell>
        <mxCell id="8Joogp2kNSr6ya6-F_BD-45" style="edgeStyle=none;rounded=0;orthogonalLoop=1;jettySize=auto;html=1;entryX=0.963;entryY=0.092;entryDx=0;entryDy=0;entryPerimeter=0;fontSize=12;startSize=8;endSize=3;fillColor=#fff2cc;strokeColor=#d6b656;endArrow=circle;endFill=0;" edge="1" parent="1" source="8Joogp2kNSr6ya6-F_BD-16" target="8Joogp2kNSr6ya6-F_BD-24">
          <mxGeometry relative="1" as="geometry">
            <Array as="points">
              <mxPoint x="-1080" y="370" />
            </Array>
          </mxGeometry>
        </mxCell>
        <mxCell id="8Joogp2kNSr6ya6-F_BD-46" style="edgeStyle=none;rounded=0;orthogonalLoop=1;jettySize=auto;html=1;entryX=-0.001;entryY=1.04;entryDx=0;entryDy=0;entryPerimeter=0;fontSize=12;startSize=8;endSize=3;fillColor=#fff2cc;strokeColor=#d6b656;endArrow=circle;endFill=0;" edge="1" parent="1" source="8Joogp2kNSr6ya6-F_BD-20" target="8Joogp2kNSr6ya6-F_BD-42">
          <mxGeometry relative="1" as="geometry">
            <Array as="points">
              <mxPoint x="-1440" y="310" />
            </Array>
          </mxGeometry>
        </mxCell>
        <mxCell id="8Joogp2kNSr6ya6-F_BD-53" style="edgeStyle=none;curved=1;rounded=0;orthogonalLoop=1;jettySize=auto;html=1;entryX=0.5;entryY=0;entryDx=0;entryDy=0;entryPerimeter=0;fontSize=12;startSize=8;endSize=8;" edge="1" parent="1" source="8Joogp2kNSr6ya6-F_BD-20" target="8Joogp2kNSr6ya6-F_BD-51">
          <mxGeometry relative="1" as="geometry" />
        </mxCell>
        <mxCell id="8Joogp2kNSr6ya6-F_BD-54" style="edgeStyle=none;curved=1;rounded=0;orthogonalLoop=1;jettySize=auto;html=1;exitX=0.5;exitY=1;exitDx=0;exitDy=0;exitPerimeter=0;entryX=0.231;entryY=0.917;entryDx=0;entryDy=0;entryPerimeter=0;fontSize=12;startSize=8;endSize=8;" edge="1" parent="1" source="8Joogp2kNSr6ya6-F_BD-51" target="8Joogp2kNSr6ya6-F_BD-12">
          <mxGeometry relative="1" as="geometry" />
        </mxCell>
        <mxCell id="8Joogp2kNSr6ya6-F_BD-55" style="edgeStyle=none;rounded=0;orthogonalLoop=1;jettySize=auto;html=1;entryX=0.005;entryY=0.995;entryDx=0;entryDy=0;entryPerimeter=0;fontSize=12;startSize=8;endSize=3;fillColor=#fff2cc;strokeColor=#d6b656;endArrow=circle;endFill=0;" edge="1" parent="1" source="8Joogp2kNSr6ya6-F_BD-12" target="8Joogp2kNSr6ya6-F_BD-51">
          <mxGeometry relative="1" as="geometry">
            <Array as="points">
              <mxPoint x="-1290" y="520" />
            </Array>
          </mxGeometry>
        </mxCell>
        <mxCell id="8Joogp2kNSr6ya6-F_BD-58" value="" style="group" vertex="1" connectable="0" parent="1">
          <mxGeometry x="-1389" y="398.4486299742617" width="70.58015790452623" height="43.381370025738306" as="geometry" />
        </mxCell>
        <mxCell id="8Joogp2kNSr6ya6-F_BD-52" value="" style="group" vertex="1" connectable="0" parent="8Joogp2kNSr6ya6-F_BD-58">
          <mxGeometry x="6" width="64.58015790452623" height="43.381370025738306" as="geometry" />
        </mxCell>
        <mxCell id="8Joogp2kNSr6ya6-F_BD-51" value="" style="rounded=0;whiteSpace=wrap;html=1;fontSize=16;fillColor=#000000;points=[[0,0.5,0,0,0],[0.5,0,0,0,0],[0.5,1,0,0,0],[1,0.5,0,0,0]];rotation=315;container=0;" vertex="1" parent="8Joogp2kNSr6ya6-F_BD-52">
          <mxGeometry x="18.820000000000164" y="15.758036692404971" width="49.09090909090909" height="10.913333333333334" as="geometry" />
        </mxCell>
        <mxCell id="8Joogp2kNSr6ya6-F_BD-59" value="" style="group" vertex="1" connectable="0" parent="1">
          <mxGeometry x="-1228" y="236.9986299742617" width="70.58015790452623" height="43.381370025738306" as="geometry" />
        </mxCell>
        <mxCell id="8Joogp2kNSr6ya6-F_BD-60" value="" style="group" vertex="1" connectable="0" parent="8Joogp2kNSr6ya6-F_BD-59">
          <mxGeometry x="6" width="64.58015790452623" height="43.381370025738306" as="geometry" />
        </mxCell>
        <mxCell id="8Joogp2kNSr6ya6-F_BD-61" value="" style="rounded=0;whiteSpace=wrap;html=1;fontSize=16;fillColor=#000000;points=[[0,0.5,0,0,0],[0.5,0,0,0,0],[0.5,1,0,0,0],[1,0.5,0,0,0]];rotation=315;container=0;" vertex="1" parent="8Joogp2kNSr6ya6-F_BD-60">
          <mxGeometry x="18.820000000000164" y="15.758036692404971" width="49.09090909090909" height="10.913333333333334" as="geometry" />
        </mxCell>
        <mxCell id="8Joogp2kNSr6ya6-F_BD-62" value="&lt;b style=&quot;font-size: 9px;&quot;&gt;move_E&lt;/b&gt;" style="text;html=1;strokeColor=none;fillColor=none;align=center;verticalAlign=middle;whiteSpace=wrap;rounded=0;fontSize=16;points=[];container=0;" vertex="1" parent="1">
          <mxGeometry x="-1198" y="284.99999999999994" width="10.91" height="4.54" as="geometry" />
        </mxCell>
        <mxCell id="8Joogp2kNSr6ya6-F_BD-65" style="edgeStyle=none;curved=1;rounded=0;orthogonalLoop=1;jettySize=auto;html=1;entryX=0.5;entryY=1;entryDx=0;entryDy=0;entryPerimeter=0;fontSize=12;startSize=8;endSize=8;" edge="1" parent="1" source="8Joogp2kNSr6ya6-F_BD-16" target="8Joogp2kNSr6ya6-F_BD-61">
          <mxGeometry relative="1" as="geometry" />
        </mxCell>
        <mxCell id="8Joogp2kNSr6ya6-F_BD-66" style="edgeStyle=none;curved=1;rounded=0;orthogonalLoop=1;jettySize=auto;html=1;exitX=0.5;exitY=0;exitDx=0;exitDy=0;exitPerimeter=0;entryX=0.824;entryY=0.098;entryDx=0;entryDy=0;entryPerimeter=0;fontSize=12;startSize=8;endSize=8;" edge="1" parent="1" source="8Joogp2kNSr6ya6-F_BD-61" target="8Joogp2kNSr6ya6-F_BD-8">
          <mxGeometry relative="1" as="geometry" />
        </mxCell>
        <mxCell id="8Joogp2kNSr6ya6-F_BD-67" style="edgeStyle=none;rounded=0;orthogonalLoop=1;jettySize=auto;html=1;entryX=0.968;entryY=-0.056;entryDx=0;entryDy=0;entryPerimeter=0;fontSize=12;startSize=8;endSize=3;fillColor=#fff2cc;strokeColor=#d6b656;endArrow=circle;endFill=0;" edge="1" parent="1" source="8Joogp2kNSr6ya6-F_BD-8" target="8Joogp2kNSr6ya6-F_BD-61">
          <mxGeometry relative="1" as="geometry">
            <Array as="points">
              <mxPoint x="-1230" y="160" />
            </Array>
          </mxGeometry>
        </mxCell>
        <mxCell id="8Joogp2kNSr6ya6-F_BD-68" value="" style="group" vertex="1" connectable="0" parent="1">
          <mxGeometry x="-1283" y="274.99666666666667" width="49.09090909090901" height="15.539999999999992" as="geometry" />
        </mxCell>
        <mxCell id="8Joogp2kNSr6ya6-F_BD-32" value="&lt;b style=&quot;font-size: 9px;&quot;&gt;skip_N&lt;/b&gt;" style="text;html=1;strokeColor=none;fillColor=none;align=center;verticalAlign=middle;whiteSpace=wrap;rounded=0;fontSize=16;points=[];" vertex="1" parent="8Joogp2kNSr6ya6-F_BD-68">
          <mxGeometry x="18.00090909090909" y="10.083333333333314" width="10.90909090909091" height="5.456666666666667" as="geometry" />
        </mxCell>
        <mxCell id="8Joogp2kNSr6ya6-F_BD-31" value="" style="rounded=0;whiteSpace=wrap;html=1;fontSize=16;fillColor=#000000;points=[[0,0.5,0,0,0],[0.5,0,0,0,0],[0.5,1,0,0,0],[1,0.5,0,0,0]];" vertex="1" parent="8Joogp2kNSr6ya6-F_BD-68">
          <mxGeometry width="49.09090909090909" height="10.913333333333334" as="geometry" />
        </mxCell>
        <mxCell id="8Joogp2kNSr6ya6-F_BD-69" value="" style="group" vertex="1" connectable="0" parent="1">
          <mxGeometry x="-1283" y="380" width="49.09090909090901" height="25.83000000000004" as="geometry" />
        </mxCell>
        <mxCell id="8Joogp2kNSr6ya6-F_BD-28" value="&lt;font size=&quot;1&quot;&gt;&lt;b style=&quot;font-size: 9px;&quot;&gt;skip_S&lt;/b&gt;&lt;/font&gt;" style="text;html=1;strokeColor=none;fillColor=none;align=center;verticalAlign=middle;whiteSpace=wrap;rounded=0;fontSize=16;points=[];" vertex="1" parent="8Joogp2kNSr6ya6-F_BD-69">
          <mxGeometry x="20.00090909090909" width="10.90909090909091" height="5.456666666666667" as="geometry" />
        </mxCell>
        <mxCell id="8Joogp2kNSr6ya6-F_BD-27" value="" style="rounded=0;whiteSpace=wrap;html=1;fontSize=16;fillColor=#000000;points=[[0,0.5,0,0,0],[0.5,0,0,0,0],[0.5,1,0,0,0],[1,0.5,0,0,0]];" vertex="1" parent="8Joogp2kNSr6ya6-F_BD-69">
          <mxGeometry y="14.916666666666686" width="49.09090909090909" height="10.913333333333334" as="geometry" />
        </mxCell>
        <mxCell id="8Joogp2kNSr6ya6-F_BD-50" value="&lt;b style=&quot;font-size: 9px;&quot;&gt;move_W&lt;/b&gt;" style="text;html=1;strokeColor=none;fillColor=none;align=center;verticalAlign=middle;whiteSpace=wrap;rounded=0;fontSize=16;points=[];container=0;" vertex="1" parent="1">
          <mxGeometry x="-1331" y="380.99999999999994" width="10.91" height="4.54" as="geometry" />
        </mxCell>
        <mxCell id="8Joogp2kNSr6ya6-F_BD-23" value="&lt;b style=&quot;font-size: 9px;&quot;&gt;move_S&lt;/b&gt;" style="text;html=1;strokeColor=none;fillColor=none;align=center;verticalAlign=middle;whiteSpace=wrap;rounded=0;fontSize=16;points=[];container=0;" vertex="1" parent="1">
          <mxGeometry x="-1195.999090909091" y="377.99999999999994" width="10.90909090909091" height="5.456666666666667" as="geometry" />
        </mxCell>
        <mxCell id="zovPisd81LJqoq4hTalb-9" value="" style="group;fontSize=16;" vertex="1" connectable="0" parent="1">
          <mxGeometry x="-1444.1599999999999" y="420" width="70.91" height="21.830000000000013" as="geometry" />
        </mxCell>
        <mxCell id="zovPisd81LJqoq4hTalb-10" value="" style="group;points=[[0,0.5,0,0,0],[0.5,0,0,0,0],[0.5,1,0,0,0],[1,0.5,0,0,0]];fontSize=16;" vertex="1" connectable="0" parent="zovPisd81LJqoq4hTalb-9">
          <mxGeometry y="5.460000000000008" width="60" height="16.37" as="geometry" />
        </mxCell>
        <mxCell id="zovPisd81LJqoq4hTalb-11" value="" style="rounded=0;whiteSpace=wrap;html=1;fontSize=16;fillColor=#000000;points=[[0,0.5,0,0,0],[0.5,0,0,0,0],[0.5,1,0,0,0],[1,0.5,0,0,0]];" vertex="1" parent="zovPisd81LJqoq4hTalb-10">
          <mxGeometry y="5.456666666666667" width="49.09090909090909" height="10.913333333333334" as="geometry" />
        </mxCell>
        <mxCell id="zovPisd81LJqoq4hTalb-12" value="&lt;b style=&quot;font-size: 9px;&quot;&gt;stall_W&lt;/b&gt;" style="text;html=1;strokeColor=none;fillColor=none;align=center;verticalAlign=middle;whiteSpace=wrap;rounded=0;fontSize=16;points=[];" vertex="1" parent="zovPisd81LJqoq4hTalb-9">
          <mxGeometry x="60.00090909090909" width="10.90909090909091" height="5.456666666666667" as="geometry" />
        </mxCell>
        <mxCell id="zovPisd81LJqoq4hTalb-13" style="edgeStyle=none;curved=1;rounded=0;orthogonalLoop=1;jettySize=auto;html=1;entryX=0.5;entryY=0;entryDx=0;entryDy=0;entryPerimeter=0;fontSize=12;startSize=8;endSize=8;startArrow=classic;startFill=1;dashed=1;" edge="1" parent="1" source="8Joogp2kNSr6ya6-F_BD-20" target="zovPisd81LJqoq4hTalb-11">
          <mxGeometry relative="1" as="geometry" />
        </mxCell>
        <mxCell id="zovPisd81LJqoq4hTalb-14" style="edgeStyle=none;rounded=0;orthogonalLoop=1;jettySize=auto;html=1;fontSize=12;startSize=8;endSize=8;startArrow=classic;startFill=1;dashed=1;entryX=0.5;entryY=1;entryDx=0;entryDy=0;entryPerimeter=0;" edge="1" parent="1" source="8Joogp2kNSr6ya6-F_BD-12" target="zovPisd81LJqoq4hTalb-11">
          <mxGeometry relative="1" as="geometry">
            <mxPoint x="-1420" y="496.25" as="targetPoint" />
            <Array as="points">
              <mxPoint x="-1420" y="495" />
            </Array>
          </mxGeometry>
        </mxCell>
        <mxCell id="zovPisd81LJqoq4hTalb-15" value="" style="group;fontSize=16;" vertex="1" connectable="0" parent="1">
          <mxGeometry x="-1122.9999999999998" y="222" width="70.91" height="21.830000000000013" as="geometry" />
        </mxCell>
        <mxCell id="zovPisd81LJqoq4hTalb-16" value="" style="group;points=[[0,0.5,0,0,0],[0.5,0,0,0,0],[0.5,1,0,0,0],[1,0.5,0,0,0]];fontSize=16;" vertex="1" connectable="0" parent="zovPisd81LJqoq4hTalb-15">
          <mxGeometry y="5.460000000000008" width="60" height="16.37" as="geometry" />
        </mxCell>
        <mxCell id="zovPisd81LJqoq4hTalb-17" value="" style="rounded=0;whiteSpace=wrap;html=1;fontSize=16;fillColor=#000000;points=[[0,0.5,0,0,0],[0.5,0,0,0,0],[0.5,1,0,0,0],[1,0.5,0,0,0]];" vertex="1" parent="zovPisd81LJqoq4hTalb-16">
          <mxGeometry y="5.456666666666667" width="49.09090909090909" height="10.913333333333334" as="geometry" />
        </mxCell>
        <mxCell id="zovPisd81LJqoq4hTalb-18" value="&lt;b style=&quot;font-size: 9px;&quot;&gt;stall_E&lt;/b&gt;" style="text;html=1;strokeColor=none;fillColor=none;align=center;verticalAlign=middle;whiteSpace=wrap;rounded=0;fontSize=16;points=[];" vertex="1" parent="zovPisd81LJqoq4hTalb-15">
          <mxGeometry x="60.00090909090909" width="10.90909090909091" height="5.456666666666667" as="geometry" />
        </mxCell>
        <mxCell id="zovPisd81LJqoq4hTalb-19" style="edgeStyle=none;curved=1;rounded=0;orthogonalLoop=1;jettySize=auto;html=1;exitX=0;exitY=0.5;exitDx=0;exitDy=0;exitPerimeter=0;entryX=0.5;entryY=1;entryDx=0;entryDy=0;entryPerimeter=0;fontSize=12;startSize=8;endSize=8;startArrow=classic;startFill=1;dashed=1;" edge="1" parent="1" source="8Joogp2kNSr6ya6-F_BD-16" target="zovPisd81LJqoq4hTalb-17">
          <mxGeometry relative="1" as="geometry" />
        </mxCell>
        <mxCell id="zovPisd81LJqoq4hTalb-20" style="edgeStyle=none;rounded=0;orthogonalLoop=1;jettySize=auto;html=1;exitX=0.5;exitY=0;exitDx=0;exitDy=0;exitPerimeter=0;entryX=0.5;entryY=0;entryDx=0;entryDy=0;entryPerimeter=0;fontSize=12;startSize=8;endSize=8;dashed=1;startArrow=classic;startFill=1;" edge="1" parent="1" source="8Joogp2kNSr6ya6-F_BD-8" target="zovPisd81LJqoq4hTalb-17">
          <mxGeometry relative="1" as="geometry">
            <Array as="points">
              <mxPoint x="-1099" y="183" />
            </Array>
          </mxGeometry>
        </mxCell>
        <mxCell id="zovPisd81LJqoq4hTalb-21" value="" style="group;fontSize=16;" vertex="1" connectable="0" parent="1">
          <mxGeometry x="-1330.0012121212121" y="305" width="25.82121212121217" height="60.918787878787896" as="geometry" />
        </mxCell>
        <mxCell id="zovPisd81LJqoq4hTalb-23" value="" style="rounded=0;whiteSpace=wrap;html=1;fontSize=16;fillColor=#000000;points=[[0,0.5,0,0,0],[0.5,0,0,0,0],[0.5,1,0,0,0],[1,0.5,0,0,0]];rotation=90;container=0;" vertex="1" parent="zovPisd81LJqoq4hTalb-21">
          <mxGeometry x="-19.088787878787855" y="30.916666666666686" width="49.09090909090909" height="10.913333333333334" as="geometry" />
        </mxCell>
        <mxCell id="zovPisd81LJqoq4hTalb-24" style="edgeStyle=none;curved=1;rounded=0;orthogonalLoop=1;jettySize=auto;html=1;exitX=0.5;exitY=0;exitDx=0;exitDy=0;exitPerimeter=0;entryX=0.5;entryY=1;entryDx=0;entryDy=0;entryPerimeter=0;fontSize=12;startSize=8;endSize=3;endArrow=circle;endFill=0;fillColor=#fff2cc;strokeColor=#d6b656;" edge="1" parent="1" source="8Joogp2kNSr6ya6-F_BD-20" target="zovPisd81LJqoq4hTalb-23">
          <mxGeometry relative="1" as="geometry" />
        </mxCell>
        <mxCell id="zovPisd81LJqoq4hTalb-22" value="&lt;b style=&quot;font-size: 9px;&quot;&gt;skip_W&lt;/b&gt;" style="text;html=1;strokeColor=none;fillColor=none;align=center;verticalAlign=middle;whiteSpace=wrap;rounded=0;fontSize=16;points=[];container=0;" vertex="1" parent="1">
          <mxGeometry x="-1304.179090909091" y="335" width="10.90909090909091" height="5.456666666666667" as="geometry" />
        </mxCell>
        <mxCell id="zovPisd81LJqoq4hTalb-25" value="" style="group;fontSize=16;" vertex="1" connectable="0" parent="1">
          <mxGeometry x="-1211.0012121212121" y="305" width="25.82121212121217" height="60.918787878787896" as="geometry" />
        </mxCell>
        <mxCell id="zovPisd81LJqoq4hTalb-27" value="" style="rounded=0;whiteSpace=wrap;html=1;fontSize=16;fillColor=#000000;points=[[0,0.5,0,0,0],[0.5,0,0,0,0],[0.5,1,0,0,0],[1,0.5,0,0,0]];rotation=90;container=0;" vertex="1" parent="zovPisd81LJqoq4hTalb-25">
          <mxGeometry x="-19.088787878787855" y="30.916666666666686" width="49.09090909090909" height="10.913333333333334" as="geometry" />
        </mxCell>
        <mxCell id="zovPisd81LJqoq4hTalb-26" value="&lt;b style=&quot;font-size: 9px;&quot;&gt;skip_E&lt;/b&gt;" style="text;html=1;strokeColor=none;fillColor=none;align=center;verticalAlign=middle;whiteSpace=wrap;rounded=0;fontSize=16;points=[];container=0;" vertex="1" parent="1">
          <mxGeometry x="-1233.999090909091" y="334" width="10.90909090909091" height="5.456666666666667" as="geometry" />
        </mxCell>
        <mxCell id="zovPisd81LJqoq4hTalb-28" style="edgeStyle=none;curved=1;rounded=0;orthogonalLoop=1;jettySize=auto;html=1;exitX=0.5;exitY=1;exitDx=0;exitDy=0;exitPerimeter=0;entryX=0.5;entryY=0;entryDx=0;entryDy=0;entryPerimeter=0;fontSize=12;startSize=8;endSize=3;fillColor=#fff2cc;strokeColor=#d6b656;endArrow=circle;endFill=0;" edge="1" parent="1" source="8Joogp2kNSr6ya6-F_BD-16" target="zovPisd81LJqoq4hTalb-27">
          <mxGeometry relative="1" as="geometry" />
        </mxCell>
      </root>
    </mxGraphModel>
  </diagram>
  <diagram name="outroads" id="PqRBGe3SUlGsaYvd4jA0">
    <mxGraphModel dx="2001" dy="491" grid="1" gridSize="10" guides="1" tooltips="1" connect="1" arrows="1" fold="1" page="1" pageScale="1" pageWidth="827" pageHeight="1169" math="0" shadow="0">
      <root>
        <mxCell id="EbmPIoyvLXl5pACf4xWa-0" />
        <mxCell id="EbmPIoyvLXl5pACf4xWa-1" parent="EbmPIoyvLXl5pACf4xWa-0" />
        <mxCell id="EbmPIoyvLXl5pACf4xWa-19" value="" style="group;fontSize=16;" parent="EbmPIoyvLXl5pACf4xWa-1" vertex="1" connectable="0">
          <mxGeometry x="-777.06" y="130" width="68.75" height="60" as="geometry" />
        </mxCell>
        <mxCell id="EbmPIoyvLXl5pACf4xWa-20" value="" style="group;fontSize=16;" parent="EbmPIoyvLXl5pACf4xWa-19" vertex="1" connectable="0">
          <mxGeometry y="13" width="52.5" height="50" as="geometry" />
        </mxCell>
        <mxCell id="EbmPIoyvLXl5pACf4xWa-21" value="" style="group;fontSize=16;" parent="EbmPIoyvLXl5pACf4xWa-20" vertex="1" connectable="0">
          <mxGeometry x="-3.75" width="56.25" height="48.75" as="geometry" />
        </mxCell>
        <object label="" markers="●" placeholders="1" id="EbmPIoyvLXl5pACf4xWa-22">
          <mxCell style="ellipse;whiteSpace=wrap;html=1;aspect=fixed;fontSize=16;direction=south;perimeterSpacing=0;strokeWidth=1;dashed=1;dashPattern=8 8;points=[[0,0.5,0,0,0],[0.5,0,0,0,0],[0.5,1,0,0,0],[1,0.5,0,0,0]];" parent="EbmPIoyvLXl5pACf4xWa-21" vertex="1">
            <mxGeometry y="6.25" width="42.5" height="42.5" as="geometry" />
          </mxCell>
        </object>
        <object label="" markers="●" placeholders="1" id="EbmPIoyvLXl5pACf4xWa-23">
          <mxCell style="ellipse;whiteSpace=wrap;html=1;aspect=fixed;fontSize=16;direction=south;perimeterSpacing=0;strokeWidth=1;points=[];" parent="EbmPIoyvLXl5pACf4xWa-21" vertex="1">
            <mxGeometry x="3.75" y="10" width="35" height="35" as="geometry" />
          </mxCell>
        </object>
        <mxCell id="EbmPIoyvLXl5pACf4xWa-24" value="&lt;b style=&quot;font-size: 9px;&quot;&gt;core_N&lt;/b&gt;" style="text;html=1;strokeColor=none;fillColor=none;align=center;verticalAlign=middle;whiteSpace=wrap;rounded=0;fontSize=16;" parent="EbmPIoyvLXl5pACf4xWa-21" vertex="1">
          <mxGeometry x="11.25" y="-11" width="20" height="10" as="geometry" />
        </mxCell>
        <mxCell id="EbmPIoyvLXl5pACf4xWa-25" value="" style="group;fontSize=16;" parent="EbmPIoyvLXl5pACf4xWa-1" vertex="1" connectable="0">
          <mxGeometry x="-492.06" y="132" width="68.75" height="60" as="geometry" />
        </mxCell>
        <mxCell id="EbmPIoyvLXl5pACf4xWa-26" value="" style="group;fontSize=16;" parent="EbmPIoyvLXl5pACf4xWa-25" vertex="1" connectable="0">
          <mxGeometry y="10" width="52.5" height="50" as="geometry" />
        </mxCell>
        <mxCell id="EbmPIoyvLXl5pACf4xWa-27" value="" style="group;fontSize=16;" parent="EbmPIoyvLXl5pACf4xWa-26" vertex="1" connectable="0">
          <mxGeometry x="-3.75" width="56.25" height="48.75" as="geometry" />
        </mxCell>
        <object label="" markers="●" placeholders="1" id="EbmPIoyvLXl5pACf4xWa-28">
          <mxCell style="ellipse;whiteSpace=wrap;html=1;aspect=fixed;fontSize=16;direction=south;perimeterSpacing=0;strokeWidth=1;dashed=1;dashPattern=8 8;points=[[0,0.5,0,0,0],[0.5,0,0,0,0],[0.5,1,0,0,0],[1,0.5,0,0,0]];" parent="EbmPIoyvLXl5pACf4xWa-27" vertex="1">
            <mxGeometry y="6.25" width="42.5" height="42.5" as="geometry" />
          </mxCell>
        </object>
        <object label="" markers="●" placeholders="1" id="EbmPIoyvLXl5pACf4xWa-29">
          <mxCell style="ellipse;whiteSpace=wrap;html=1;aspect=fixed;fontSize=16;direction=south;perimeterSpacing=0;strokeWidth=1;points=[];" parent="EbmPIoyvLXl5pACf4xWa-27" vertex="1">
            <mxGeometry x="3.75" y="10" width="35" height="35" as="geometry" />
          </mxCell>
        </object>
        <mxCell id="EbmPIoyvLXl5pACf4xWa-30" value="&lt;font size=&quot;1&quot;&gt;&lt;b&gt;core_S&lt;/b&gt;&lt;/font&gt;" style="text;html=1;strokeColor=none;fillColor=none;align=center;verticalAlign=middle;whiteSpace=wrap;rounded=0;fontSize=16;" parent="EbmPIoyvLXl5pACf4xWa-27" vertex="1">
          <mxGeometry x="11.25" y="-8.75" width="20" height="10" as="geometry" />
        </mxCell>
        <mxCell id="EbmPIoyvLXl5pACf4xWa-31" value="" style="group;fontSize=16;" parent="EbmPIoyvLXl5pACf4xWa-1" vertex="1" connectable="0">
          <mxGeometry x="-784.0600000000001" y="214.00000000000006" width="70.91" height="21.830000000000013" as="geometry" />
        </mxCell>
        <mxCell id="EbmPIoyvLXl5pACf4xWa-32" value="" style="group;points=[[0,0.5,0,0,0],[0.5,0,0,0,0],[0.5,1,0,0,0],[1,0.5,0,0,0]];fontSize=16;" parent="EbmPIoyvLXl5pACf4xWa-31" vertex="1" connectable="0">
          <mxGeometry y="5.460000000000008" width="60" height="16.37" as="geometry" />
        </mxCell>
        <mxCell id="EbmPIoyvLXl5pACf4xWa-33" value="" style="rounded=0;whiteSpace=wrap;html=1;fontSize=16;fillColor=#000000;points=[[0,0.5,0,0,0],[0.5,0,0,0,0],[0.5,1,0,0,0],[1,0.5,0,0,0]];" parent="EbmPIoyvLXl5pACf4xWa-32" vertex="1">
          <mxGeometry y="5.456666666666667" width="49.09090909090909" height="10.913333333333334" as="geometry" />
        </mxCell>
        <mxCell id="EbmPIoyvLXl5pACf4xWa-34" value="" style="group;fontSize=16;" parent="EbmPIoyvLXl5pACf4xWa-1" vertex="1" connectable="0">
          <mxGeometry x="-704.0600000000001" y="215.00000000000006" width="70.91" height="21.830000000000013" as="geometry" />
        </mxCell>
        <mxCell id="EbmPIoyvLXl5pACf4xWa-35" value="" style="group;points=[[0,0.5,0,0,0],[0.5,0,0,0,0],[0.5,1,0,0,0],[1,0.5,0,0,0]];fontSize=16;" parent="EbmPIoyvLXl5pACf4xWa-34" vertex="1" connectable="0">
          <mxGeometry y="5.460000000000008" width="60" height="16.37" as="geometry" />
        </mxCell>
        <mxCell id="EbmPIoyvLXl5pACf4xWa-36" value="" style="rounded=0;whiteSpace=wrap;html=1;fontSize=16;fillColor=#000000;points=[[0,0.5,0,0,0],[0.5,0,0,0,0],[0.5,1,0,0,0],[1,0.5,0,0,0]];" parent="EbmPIoyvLXl5pACf4xWa-35" vertex="1">
          <mxGeometry y="5.456666666666667" width="49.09090909090909" height="10.913333333333334" as="geometry" />
        </mxCell>
        <mxCell id="EbmPIoyvLXl5pACf4xWa-37" value="&lt;b style=&quot;font-size: 9px;&quot;&gt;skip_N&lt;/b&gt;" style="text;html=1;strokeColor=none;fillColor=none;align=center;verticalAlign=middle;whiteSpace=wrap;rounded=0;fontSize=16;" parent="EbmPIoyvLXl5pACf4xWa-34" vertex="1">
          <mxGeometry x="60.00090909090909" width="10.90909090909091" height="5.456666666666667" as="geometry" />
        </mxCell>
        <mxCell id="EbmPIoyvLXl5pACf4xWa-38" value="" style="group;fontSize=16;" parent="EbmPIoyvLXl5pACf4xWa-1" vertex="1" connectable="0">
          <mxGeometry x="-579.0600000000001" y="214.00000000000006" width="70.91" height="21.830000000000013" as="geometry" />
        </mxCell>
        <mxCell id="EbmPIoyvLXl5pACf4xWa-39" value="" style="group;points=[[0,0.5,0,0,0],[0.5,0,0,0,0],[0.5,1,0,0,0],[1,0.5,0,0,0]];fontSize=16;" parent="EbmPIoyvLXl5pACf4xWa-38" vertex="1" connectable="0">
          <mxGeometry y="5.460000000000008" width="60" height="16.37" as="geometry" />
        </mxCell>
        <mxCell id="EbmPIoyvLXl5pACf4xWa-40" value="" style="rounded=0;whiteSpace=wrap;html=1;fontSize=16;fillColor=#000000;points=[[0,0.5,0,0,0],[0.5,0,0,0,0],[0.5,1,0,0,0],[1,0.5,0,0,0]];" parent="EbmPIoyvLXl5pACf4xWa-39" vertex="1">
          <mxGeometry y="5.456666666666667" width="49.09090909090909" height="10.913333333333334" as="geometry" />
        </mxCell>
        <mxCell id="EbmPIoyvLXl5pACf4xWa-41" value="" style="group;fontSize=16;" parent="EbmPIoyvLXl5pACf4xWa-1" vertex="1" connectable="0">
          <mxGeometry x="-499.06000000000006" y="214.00000000000006" width="70.91" height="21.830000000000013" as="geometry" />
        </mxCell>
        <mxCell id="EbmPIoyvLXl5pACf4xWa-42" value="" style="group;points=[[0,0.5,0,0,0],[0.5,0,0,0,0],[0.5,1,0,0,0],[1,0.5,0,0,0]];fontSize=16;" parent="EbmPIoyvLXl5pACf4xWa-41" vertex="1" connectable="0">
          <mxGeometry y="5.460000000000008" width="60" height="16.37" as="geometry" />
        </mxCell>
        <mxCell id="EbmPIoyvLXl5pACf4xWa-43" value="" style="rounded=0;whiteSpace=wrap;html=1;fontSize=16;fillColor=#000000;points=[[0,0.5,0,0,0],[0.5,0,0,0,0],[0.5,1,0,0,0],[1,0.5,0,0,0]];" parent="EbmPIoyvLXl5pACf4xWa-42" vertex="1">
          <mxGeometry y="5.456666666666667" width="49.09090909090909" height="10.913333333333334" as="geometry" />
        </mxCell>
        <mxCell id="EbmPIoyvLXl5pACf4xWa-44" value="&lt;b style=&quot;font-size: 9px;&quot;&gt;exit_S&lt;/b&gt;" style="text;html=1;strokeColor=none;fillColor=none;align=center;verticalAlign=middle;whiteSpace=wrap;rounded=0;fontSize=16;" parent="EbmPIoyvLXl5pACf4xWa-41" vertex="1">
          <mxGeometry x="57.00090909090909" y="-1" width="10.90909090909091" height="5.456666666666667" as="geometry" />
        </mxCell>
        <mxCell id="EbmPIoyvLXl5pACf4xWa-45" style="edgeStyle=none;curved=1;rounded=0;orthogonalLoop=1;jettySize=auto;html=1;exitX=1;exitY=0.5;exitDx=0;exitDy=0;exitPerimeter=0;entryX=0.5;entryY=0;entryDx=0;entryDy=0;entryPerimeter=0;fontSize=12;startSize=8;endSize=8;" parent="EbmPIoyvLXl5pACf4xWa-1" source="EbmPIoyvLXl5pACf4xWa-22" target="EbmPIoyvLXl5pACf4xWa-33" edge="1">
          <mxGeometry relative="1" as="geometry" />
        </mxCell>
        <mxCell id="EbmPIoyvLXl5pACf4xWa-48" style="edgeStyle=none;curved=1;rounded=0;orthogonalLoop=1;jettySize=auto;html=1;exitX=1;exitY=0.5;exitDx=0;exitDy=0;exitPerimeter=0;entryX=0.5;entryY=0;entryDx=0;entryDy=0;entryPerimeter=0;fontSize=12;startSize=8;endSize=8;" parent="EbmPIoyvLXl5pACf4xWa-1" source="EbmPIoyvLXl5pACf4xWa-28" target="EbmPIoyvLXl5pACf4xWa-43" edge="1">
          <mxGeometry relative="1" as="geometry" />
        </mxCell>
        <mxCell id="EbmPIoyvLXl5pACf4xWa-68" value="&lt;b style=&quot;font-size: 9px;&quot;&gt;skip_S&lt;/b&gt;" style="text;html=1;strokeColor=none;fillColor=none;align=center;verticalAlign=middle;whiteSpace=wrap;rounded=0;fontSize=16;" parent="EbmPIoyvLXl5pACf4xWa-1" vertex="1">
          <mxGeometry x="-599.059090909091" y="215.00000000000006" width="10.90909090909091" height="5.456666666666667" as="geometry" />
        </mxCell>
        <mxCell id="EbmPIoyvLXl5pACf4xWa-69" value="&lt;b style=&quot;font-size: 9px;&quot;&gt;exit_N&lt;/b&gt;" style="text;html=1;strokeColor=none;fillColor=none;align=center;verticalAlign=middle;whiteSpace=wrap;rounded=0;fontSize=16;" parent="EbmPIoyvLXl5pACf4xWa-1" vertex="1">
          <mxGeometry x="-803.059090909091" y="212.00000000000006" width="10.90909090909091" height="5.456666666666667" as="geometry" />
        </mxCell>
        <mxCell id="agMplDie6IslOT2xBsOy-6" value="" style="group" parent="EbmPIoyvLXl5pACf4xWa-1" vertex="1" connectable="0">
          <mxGeometry x="-779.06" y="248" width="68.75" height="70" as="geometry" />
        </mxCell>
        <mxCell id="agMplDie6IslOT2xBsOy-0" value="" style="group;fontSize=16;" parent="agMplDie6IslOT2xBsOy-6" vertex="1" connectable="0">
          <mxGeometry width="68.75" height="60" as="geometry" />
        </mxCell>
        <mxCell id="agMplDie6IslOT2xBsOy-1" value="" style="group;fontSize=16;" parent="agMplDie6IslOT2xBsOy-0" vertex="1" connectable="0">
          <mxGeometry y="13" width="52.5" height="50" as="geometry" />
        </mxCell>
        <mxCell id="agMplDie6IslOT2xBsOy-2" value="" style="group;fontSize=16;" parent="agMplDie6IslOT2xBsOy-1" vertex="1" connectable="0">
          <mxGeometry x="-3.75" width="56.25" height="48.75" as="geometry" />
        </mxCell>
        <object label="" markers="●" placeholders="1" id="agMplDie6IslOT2xBsOy-3">
          <mxCell style="ellipse;whiteSpace=wrap;html=1;aspect=fixed;fontSize=16;direction=south;perimeterSpacing=0;strokeWidth=1;dashed=1;dashPattern=8 8;points=[[0,0.5,0,0,0],[0.5,0,0,0,0],[0.5,1,0,0,0],[1,0.5,0,0,0]];" parent="agMplDie6IslOT2xBsOy-2" vertex="1">
            <mxGeometry y="6.25" width="42.5" height="42.5" as="geometry" />
          </mxCell>
        </object>
        <object label="" markers="●" placeholders="1" id="agMplDie6IslOT2xBsOy-4">
          <mxCell style="ellipse;whiteSpace=wrap;html=1;aspect=fixed;fontSize=16;direction=south;perimeterSpacing=0;strokeWidth=1;points=[];" parent="agMplDie6IslOT2xBsOy-2" vertex="1">
            <mxGeometry x="3.75" y="10" width="35" height="35" as="geometry" />
          </mxCell>
        </object>
        <mxCell id="agMplDie6IslOT2xBsOy-5" value="&lt;b style=&quot;font-size: 9px;&quot;&gt;output_N&lt;/b&gt;" style="text;html=1;strokeColor=none;fillColor=none;align=center;verticalAlign=middle;whiteSpace=wrap;rounded=0;fontSize=16;" parent="agMplDie6IslOT2xBsOy-6" vertex="1">
          <mxGeometry x="7.5" y="60" width="20" height="10" as="geometry" />
        </mxCell>
        <mxCell id="agMplDie6IslOT2xBsOy-7" value="" style="group" parent="EbmPIoyvLXl5pACf4xWa-1" vertex="1" connectable="0">
          <mxGeometry x="-495.06" y="248" width="68.75" height="70" as="geometry" />
        </mxCell>
        <mxCell id="agMplDie6IslOT2xBsOy-8" value="" style="group;fontSize=16;" parent="agMplDie6IslOT2xBsOy-7" vertex="1" connectable="0">
          <mxGeometry width="68.75" height="60" as="geometry" />
        </mxCell>
        <mxCell id="agMplDie6IslOT2xBsOy-9" value="" style="group;fontSize=16;" parent="agMplDie6IslOT2xBsOy-8" vertex="1" connectable="0">
          <mxGeometry y="13" width="52.5" height="50" as="geometry" />
        </mxCell>
        <mxCell id="agMplDie6IslOT2xBsOy-10" value="" style="group;fontSize=16;" parent="agMplDie6IslOT2xBsOy-9" vertex="1" connectable="0">
          <mxGeometry x="-3.75" width="56.25" height="48.75" as="geometry" />
        </mxCell>
        <object label="" markers="●" placeholders="1" id="agMplDie6IslOT2xBsOy-11">
          <mxCell style="ellipse;whiteSpace=wrap;html=1;aspect=fixed;fontSize=16;direction=south;perimeterSpacing=0;strokeWidth=1;dashed=1;dashPattern=8 8;points=[[0,0.5,0,0,0],[0.5,0,0,0,0],[0.5,1,0,0,0],[1,0.5,0,0,0]];" parent="agMplDie6IslOT2xBsOy-10" vertex="1">
            <mxGeometry y="6.25" width="42.5" height="42.5" as="geometry" />
          </mxCell>
        </object>
        <object label="" markers="●" placeholders="1" id="agMplDie6IslOT2xBsOy-12">
          <mxCell style="ellipse;whiteSpace=wrap;html=1;aspect=fixed;fontSize=16;direction=south;perimeterSpacing=0;strokeWidth=1;points=[];" parent="agMplDie6IslOT2xBsOy-10" vertex="1">
            <mxGeometry x="3.75" y="10" width="35" height="35" as="geometry" />
          </mxCell>
        </object>
        <mxCell id="agMplDie6IslOT2xBsOy-13" value="&lt;b style=&quot;font-size: 9px;&quot;&gt;output_S&lt;/b&gt;" style="text;html=1;strokeColor=none;fillColor=none;align=center;verticalAlign=middle;whiteSpace=wrap;rounded=0;fontSize=16;" parent="agMplDie6IslOT2xBsOy-7" vertex="1">
          <mxGeometry x="7.5" y="60" width="20" height="10" as="geometry" />
        </mxCell>
        <mxCell id="agMplDie6IslOT2xBsOy-14" style="edgeStyle=none;curved=1;rounded=0;orthogonalLoop=1;jettySize=auto;html=1;entryX=-0.011;entryY=0.425;entryDx=0;entryDy=0;entryPerimeter=0;fontSize=12;startSize=8;endSize=8;" parent="EbmPIoyvLXl5pACf4xWa-1" source="EbmPIoyvLXl5pACf4xWa-43" target="agMplDie6IslOT2xBsOy-11" edge="1">
          <mxGeometry relative="1" as="geometry" />
        </mxCell>
        <mxCell id="agMplDie6IslOT2xBsOy-15" style="edgeStyle=none;curved=1;rounded=0;orthogonalLoop=1;jettySize=auto;html=1;entryX=-0.011;entryY=0.464;entryDx=0;entryDy=0;entryPerimeter=0;fontSize=12;startSize=8;endSize=8;" parent="EbmPIoyvLXl5pACf4xWa-1" source="EbmPIoyvLXl5pACf4xWa-33" target="agMplDie6IslOT2xBsOy-3" edge="1">
          <mxGeometry relative="1" as="geometry" />
        </mxCell>
        <mxCell id="agMplDie6IslOT2xBsOy-17" style="edgeStyle=orthogonalEdgeStyle;rounded=0;orthogonalLoop=1;jettySize=auto;html=1;entryX=0;entryY=0.5;entryDx=0;entryDy=0;entryPerimeter=0;fontSize=12;startSize=3;endSize=3;exitX=0.5;exitY=1;exitDx=0;exitDy=0;exitPerimeter=0;endArrow=circle;endFill=0;fillColor=#fff2cc;strokeColor=#d6b656;" parent="EbmPIoyvLXl5pACf4xWa-1" source="agMplDie6IslOT2xBsOy-3" target="EbmPIoyvLXl5pACf4xWa-33" edge="1">
          <mxGeometry relative="1" as="geometry">
            <Array as="points">
              <mxPoint x="-811.06" y="288" />
              <mxPoint x="-811.06" y="230" />
            </Array>
          </mxGeometry>
        </mxCell>
        <mxCell id="agMplDie6IslOT2xBsOy-18" style="edgeStyle=orthogonalEdgeStyle;rounded=0;orthogonalLoop=1;jettySize=auto;html=1;exitX=0.5;exitY=0;exitDx=0;exitDy=0;exitPerimeter=0;entryX=1;entryY=0.5;entryDx=0;entryDy=0;entryPerimeter=0;fontSize=12;startSize=3;endSize=3;endArrow=circle;endFill=0;fillColor=#fff2cc;strokeColor=#d6b656;" parent="EbmPIoyvLXl5pACf4xWa-1" source="agMplDie6IslOT2xBsOy-11" target="EbmPIoyvLXl5pACf4xWa-43" edge="1">
          <mxGeometry relative="1" as="geometry">
            <Array as="points">
              <mxPoint x="-426.06" y="288" />
              <mxPoint x="-426.06" y="230" />
            </Array>
          </mxGeometry>
        </mxCell>
      </root>
    </mxGraphModel>
  </diagram>
  <diagram id="tTxY7AdbnjMqPqRqKhTw" name="outputs">
    <mxGraphModel dx="2001" dy="491" grid="1" gridSize="10" guides="1" tooltips="1" connect="1" arrows="1" fold="1" page="1" pageScale="1" pageWidth="827" pageHeight="1169" math="0" shadow="0">
      <root>
        <mxCell id="0" />
        <mxCell id="1" parent="0" />
        <mxCell id="x_W74j9Griuf9NP2CxeH-18" value="" style="group;fontSize=16;" parent="1" vertex="1" connectable="0">
          <mxGeometry x="-777" y="140" width="68.75" height="60" as="geometry" />
        </mxCell>
        <mxCell id="x_W74j9Griuf9NP2CxeH-19" value="" style="group;fontSize=16;" parent="x_W74j9Griuf9NP2CxeH-18" vertex="1" connectable="0">
          <mxGeometry y="13" width="52.5" height="50" as="geometry" />
        </mxCell>
        <mxCell id="x_W74j9Griuf9NP2CxeH-20" value="" style="group;fontSize=16;" parent="x_W74j9Griuf9NP2CxeH-19" vertex="1" connectable="0">
          <mxGeometry x="-3.75" width="56.25" height="48.75" as="geometry" />
        </mxCell>
        <object label="" markers="●" placeholders="1" id="x_W74j9Griuf9NP2CxeH-21">
          <mxCell style="ellipse;whiteSpace=wrap;html=1;aspect=fixed;fontSize=16;direction=south;perimeterSpacing=0;strokeWidth=1;dashed=1;dashPattern=8 8;points=[[0,0.5,0,0,0],[0.5,0,0,0,0],[0.5,1,0,0,0],[1,0.5,0,0,0]];" parent="x_W74j9Griuf9NP2CxeH-20" vertex="1">
            <mxGeometry y="6.25" width="42.5" height="42.5" as="geometry" />
          </mxCell>
        </object>
        <object label="" markers="●" placeholders="1" id="x_W74j9Griuf9NP2CxeH-22">
          <mxCell style="ellipse;whiteSpace=wrap;html=1;aspect=fixed;fontSize=16;direction=south;perimeterSpacing=0;strokeWidth=1;points=[];" parent="x_W74j9Griuf9NP2CxeH-20" vertex="1">
            <mxGeometry x="3.75" y="10" width="35" height="35" as="geometry" />
          </mxCell>
        </object>
        <mxCell id="x_W74j9Griuf9NP2CxeH-23" value="&lt;b style=&quot;font-size: 9px;&quot;&gt;output_N&lt;/b&gt;" style="text;html=1;strokeColor=none;fillColor=none;align=center;verticalAlign=middle;whiteSpace=wrap;rounded=0;fontSize=16;" parent="x_W74j9Griuf9NP2CxeH-20" vertex="1">
          <mxGeometry x="11.25" y="-8" width="20" height="10" as="geometry" />
        </mxCell>
        <mxCell id="x_W74j9Griuf9NP2CxeH-24" value="" style="group;fontSize=16;" parent="1" vertex="1" connectable="0">
          <mxGeometry x="-487" y="142" width="68.75" height="60" as="geometry" />
        </mxCell>
        <mxCell id="x_W74j9Griuf9NP2CxeH-25" value="" style="group;fontSize=16;" parent="x_W74j9Griuf9NP2CxeH-24" vertex="1" connectable="0">
          <mxGeometry y="10" width="52.5" height="50" as="geometry" />
        </mxCell>
        <mxCell id="x_W74j9Griuf9NP2CxeH-26" value="" style="group;fontSize=16;" parent="x_W74j9Griuf9NP2CxeH-25" vertex="1" connectable="0">
          <mxGeometry x="-3.75" width="56.25" height="48.75" as="geometry" />
        </mxCell>
        <object label="" markers="●" placeholders="1" id="x_W74j9Griuf9NP2CxeH-27">
          <mxCell style="ellipse;whiteSpace=wrap;html=1;aspect=fixed;fontSize=16;direction=south;perimeterSpacing=0;strokeWidth=1;dashed=1;dashPattern=8 8;points=[[0,0.5,0,0,0],[0.5,0,0,0,0],[0.5,1,0,0,0],[1,0.5,0,0,0]];" parent="x_W74j9Griuf9NP2CxeH-26" vertex="1">
            <mxGeometry y="6.25" width="42.5" height="42.5" as="geometry" />
          </mxCell>
        </object>
        <object label="" markers="●" placeholders="1" id="x_W74j9Griuf9NP2CxeH-28">
          <mxCell style="ellipse;whiteSpace=wrap;html=1;aspect=fixed;fontSize=16;direction=south;perimeterSpacing=0;strokeWidth=1;points=[];" parent="x_W74j9Griuf9NP2CxeH-26" vertex="1">
            <mxGeometry x="3.75" y="10" width="35" height="35" as="geometry" />
          </mxCell>
        </object>
        <mxCell id="x_W74j9Griuf9NP2CxeH-29" value="&lt;b style=&quot;font-size: 9px;&quot;&gt;output_S&lt;/b&gt;" style="text;html=1;strokeColor=none;fillColor=none;align=center;verticalAlign=middle;whiteSpace=wrap;rounded=0;fontSize=16;" parent="x_W74j9Griuf9NP2CxeH-26" vertex="1">
          <mxGeometry x="11.25" y="-6.75" width="20" height="10" as="geometry" />
        </mxCell>
        <mxCell id="x_W74j9Griuf9NP2CxeH-30" value="" style="group;fontSize=16;" parent="1" vertex="1" connectable="0">
          <mxGeometry x="-784" y="224.00000000000006" width="70.91" height="21.830000000000013" as="geometry" />
        </mxCell>
        <mxCell id="x_W74j9Griuf9NP2CxeH-31" value="" style="group;points=[[0,0.5,0,0,0],[0.5,0,0,0,0],[0.5,1,0,0,0],[1,0.5,0,0,0]];fontSize=16;" parent="x_W74j9Griuf9NP2CxeH-30" vertex="1" connectable="0">
          <mxGeometry y="5.460000000000008" width="60" height="16.37" as="geometry" />
        </mxCell>
        <mxCell id="x_W74j9Griuf9NP2CxeH-32" value="" style="rounded=0;whiteSpace=wrap;html=1;fontSize=16;fillColor=#000000;points=[[0,0.5,0,0,0],[0.5,0,0,0,0],[0.5,1,0,0,0],[1,0.5,0,0,0]];" parent="x_W74j9Griuf9NP2CxeH-31" vertex="1">
          <mxGeometry y="5.456666666666667" width="49.09090909090909" height="10.913333333333334" as="geometry" />
        </mxCell>
        <mxCell id="x_W74j9Griuf9NP2CxeH-34" value="" style="group;fontSize=16;" parent="1" vertex="1" connectable="0">
          <mxGeometry x="-704" y="225.00000000000006" width="70.91" height="21.830000000000013" as="geometry" />
        </mxCell>
        <mxCell id="x_W74j9Griuf9NP2CxeH-35" value="" style="group;points=[[0,0.5,0,0,0],[0.5,0,0,0,0],[0.5,1,0,0,0],[1,0.5,0,0,0]];fontSize=16;" parent="x_W74j9Griuf9NP2CxeH-34" vertex="1" connectable="0">
          <mxGeometry y="5.460000000000008" width="60" height="16.37" as="geometry" />
        </mxCell>
        <mxCell id="x_W74j9Griuf9NP2CxeH-36" value="" style="rounded=0;whiteSpace=wrap;html=1;fontSize=16;fillColor=#000000;points=[[0,0.5,0,0,0],[0.5,0,0,0,0],[0.5,1,0,0,0],[1,0.5,0,0,0]];" parent="x_W74j9Griuf9NP2CxeH-35" vertex="1">
          <mxGeometry y="5.456666666666667" width="49.09090909090909" height="10.913333333333334" as="geometry" />
        </mxCell>
        <mxCell id="x_W74j9Griuf9NP2CxeH-37" value="&lt;b style=&quot;font-size: 9px;&quot;&gt;skip_N&lt;/b&gt;" style="text;html=1;strokeColor=none;fillColor=none;align=center;verticalAlign=middle;whiteSpace=wrap;rounded=0;fontSize=16;" parent="x_W74j9Griuf9NP2CxeH-34" vertex="1">
          <mxGeometry x="60.00090909090909" width="10.90909090909091" height="5.456666666666667" as="geometry" />
        </mxCell>
        <mxCell id="x_W74j9Griuf9NP2CxeH-38" value="" style="group;fontSize=16;" parent="1" vertex="1" connectable="0">
          <mxGeometry x="-574" y="224.00000000000006" width="70.91" height="21.830000000000013" as="geometry" />
        </mxCell>
        <mxCell id="x_W74j9Griuf9NP2CxeH-39" value="" style="group;points=[[0,0.5,0,0,0],[0.5,0,0,0,0],[0.5,1,0,0,0],[1,0.5,0,0,0]];fontSize=16;" parent="x_W74j9Griuf9NP2CxeH-38" vertex="1" connectable="0">
          <mxGeometry y="5.460000000000008" width="60" height="16.37" as="geometry" />
        </mxCell>
        <mxCell id="x_W74j9Griuf9NP2CxeH-40" value="" style="rounded=0;whiteSpace=wrap;html=1;fontSize=16;fillColor=#000000;points=[[0,0.5,0,0,0],[0.5,0,0,0,0],[0.5,1,0,0,0],[1,0.5,0,0,0]];" parent="x_W74j9Griuf9NP2CxeH-39" vertex="1">
          <mxGeometry y="5.456666666666667" width="49.09090909090909" height="10.913333333333334" as="geometry" />
        </mxCell>
        <mxCell id="x_W74j9Griuf9NP2CxeH-42" value="" style="group;fontSize=16;" parent="1" vertex="1" connectable="0">
          <mxGeometry x="-494.00000000000006" y="224.00000000000006" width="70.91" height="21.830000000000013" as="geometry" />
        </mxCell>
        <mxCell id="x_W74j9Griuf9NP2CxeH-43" value="" style="group;points=[[0,0.5,0,0,0],[0.5,0,0,0,0],[0.5,1,0,0,0],[1,0.5,0,0,0]];fontSize=16;" parent="x_W74j9Griuf9NP2CxeH-42" vertex="1" connectable="0">
          <mxGeometry y="5.460000000000008" width="60" height="16.37" as="geometry" />
        </mxCell>
        <mxCell id="x_W74j9Griuf9NP2CxeH-44" value="" style="rounded=0;whiteSpace=wrap;html=1;fontSize=16;fillColor=#000000;points=[[0,0.5,0,0,0],[0.5,0,0,0,0],[0.5,1,0,0,0],[1,0.5,0,0,0]];" parent="x_W74j9Griuf9NP2CxeH-43" vertex="1">
          <mxGeometry y="5.456666666666667" width="49.09090909090909" height="10.913333333333334" as="geometry" />
        </mxCell>
        <mxCell id="x_W74j9Griuf9NP2CxeH-45" value="&lt;b style=&quot;font-size: 9px;&quot;&gt;consume_S&lt;/b&gt;" style="text;html=1;strokeColor=none;fillColor=none;align=center;verticalAlign=middle;whiteSpace=wrap;rounded=0;fontSize=16;" parent="x_W74j9Griuf9NP2CxeH-42" vertex="1">
          <mxGeometry x="57.00090909090909" y="-1" width="10.90909090909091" height="5.456666666666667" as="geometry" />
        </mxCell>
        <mxCell id="x_W74j9Griuf9NP2CxeH-46" style="edgeStyle=none;curved=1;rounded=0;orthogonalLoop=1;jettySize=auto;html=1;exitX=1;exitY=0.5;exitDx=0;exitDy=0;exitPerimeter=0;entryX=0.5;entryY=0;entryDx=0;entryDy=0;entryPerimeter=0;fontSize=12;startSize=8;endSize=8;" parent="1" source="x_W74j9Griuf9NP2CxeH-21" target="x_W74j9Griuf9NP2CxeH-32" edge="1">
          <mxGeometry relative="1" as="geometry" />
        </mxCell>
        <mxCell id="x_W74j9Griuf9NP2CxeH-49" style="edgeStyle=none;curved=1;rounded=0;orthogonalLoop=1;jettySize=auto;html=1;exitX=1;exitY=0.5;exitDx=0;exitDy=0;exitPerimeter=0;entryX=0.5;entryY=0;entryDx=0;entryDy=0;entryPerimeter=0;fontSize=12;startSize=8;endSize=8;" parent="1" source="x_W74j9Griuf9NP2CxeH-27" target="x_W74j9Griuf9NP2CxeH-44" edge="1">
          <mxGeometry relative="1" as="geometry" />
        </mxCell>
        <mxCell id="x_W74j9Griuf9NP2CxeH-41" value="&lt;b style=&quot;font-size: 9px;&quot;&gt;skip_S&lt;/b&gt;" style="text;html=1;strokeColor=none;fillColor=none;align=center;verticalAlign=middle;whiteSpace=wrap;rounded=0;fontSize=16;" parent="1" vertex="1">
          <mxGeometry x="-593.9990909090909" y="225.00000000000006" width="10.90909090909091" height="5.456666666666667" as="geometry" />
        </mxCell>
        <mxCell id="x_W74j9Griuf9NP2CxeH-33" value="&lt;b style=&quot;font-size: 9px;&quot;&gt;consume_N&lt;/b&gt;" style="text;html=1;strokeColor=none;fillColor=none;align=center;verticalAlign=middle;whiteSpace=wrap;rounded=0;fontSize=16;" parent="1" vertex="1">
          <mxGeometry x="-802.9990909090909" y="222.00000000000006" width="10.90909090909091" height="5.456666666666667" as="geometry" />
        </mxCell>
      </root>
    </mxGraphModel>
  </diagram>
  <diagram name="full_roundabout" id="cZ5Yu7u7q_Z-AqZyqa0k">
    <mxGraphModel dx="4682" dy="818" grid="1" gridSize="10" guides="1" tooltips="1" connect="1" arrows="1" fold="1" page="1" pageScale="1" pageWidth="827" pageHeight="1169" math="0" shadow="0">
      <root>
        <mxCell id="lydrGFN5QWvYqXAOOCpk-0" />
        <mxCell id="lydrGFN5QWvYqXAOOCpk-1" parent="lydrGFN5QWvYqXAOOCpk-0" />
        <mxCell id="HSOn5zOCnuacAM8XR8tr-0" value="" style="group;fontSize=16;" vertex="1" connectable="0" parent="lydrGFN5QWvYqXAOOCpk-1">
          <mxGeometry x="-1680" y="324.83000000000004" width="58.75" height="52.5" as="geometry" />
        </mxCell>
        <object label="" markers="●" placeholders="1" id="HSOn5zOCnuacAM8XR8tr-1">
          <mxCell style="ellipse;whiteSpace=wrap;html=1;aspect=fixed;fontSize=16;direction=south;perimeterSpacing=0;strokeWidth=1;points=[];container=0;" vertex="1" parent="HSOn5zOCnuacAM8XR8tr-0">
            <mxGeometry x="3.75" y="13.75" width="35" height="35" as="geometry" />
          </mxCell>
        </object>
        <object label="" markers="●" placeholders="1" id="HSOn5zOCnuacAM8XR8tr-2">
          <mxCell style="ellipse;whiteSpace=wrap;html=1;aspect=fixed;fontSize=16;direction=south;perimeterSpacing=0;strokeWidth=1;dashed=1;dashPattern=8 8;points=[[0,0.5,0,0,0],[0.5,0,0,0,0],[0.5,1,0,0,0],[1,0.5,0,0,0]];container=0;fillColor=none;" vertex="1" parent="HSOn5zOCnuacAM8XR8tr-0">
            <mxGeometry y="10" width="42.5" height="42.5" as="geometry" />
          </mxCell>
        </object>
        <mxCell id="HSOn5zOCnuacAM8XR8tr-3" value="" style="group;fontSize=16;" vertex="1" connectable="0" parent="lydrGFN5QWvYqXAOOCpk-1">
          <mxGeometry x="-1680" y="639.83" width="58.75" height="52.5" as="geometry" />
        </mxCell>
        <object label="" markers="●" placeholders="1" id="HSOn5zOCnuacAM8XR8tr-4">
          <mxCell style="ellipse;whiteSpace=wrap;html=1;aspect=fixed;fontSize=16;direction=south;perimeterSpacing=0;strokeWidth=1;points=[];container=0;" vertex="1" parent="HSOn5zOCnuacAM8XR8tr-3">
            <mxGeometry x="3.75" y="13.75" width="35" height="35" as="geometry" />
          </mxCell>
        </object>
        <object label="" markers="●" placeholders="1" id="HSOn5zOCnuacAM8XR8tr-5">
          <mxCell style="ellipse;whiteSpace=wrap;html=1;aspect=fixed;fontSize=16;direction=south;perimeterSpacing=0;strokeWidth=1;dashed=1;dashPattern=8 8;points=[[0,0.5,0,0,0],[0.5,0,0,0,0],[0.5,1,0,0,0],[1,0.5,0,0,0]];container=0;fillColor=none;" vertex="1" parent="HSOn5zOCnuacAM8XR8tr-3">
            <mxGeometry y="10" width="42.5" height="42.5" as="geometry" />
          </mxCell>
        </object>
        <mxCell id="HSOn5zOCnuacAM8XR8tr-6" value="" style="group;fontSize=16;" vertex="1" connectable="0" parent="lydrGFN5QWvYqXAOOCpk-1">
          <mxGeometry x="-1520" y="484.83000000000004" width="58.75" height="52.5" as="geometry" />
        </mxCell>
        <object label="" markers="●" placeholders="1" id="HSOn5zOCnuacAM8XR8tr-7">
          <mxCell style="ellipse;whiteSpace=wrap;html=1;aspect=fixed;fontSize=16;direction=south;perimeterSpacing=0;strokeWidth=1;points=[];container=0;" vertex="1" parent="HSOn5zOCnuacAM8XR8tr-6">
            <mxGeometry x="3.75" y="13.75" width="35" height="35" as="geometry" />
          </mxCell>
        </object>
        <object label="" markers="●" placeholders="1" id="HSOn5zOCnuacAM8XR8tr-8">
          <mxCell style="ellipse;whiteSpace=wrap;html=1;aspect=fixed;fontSize=16;direction=south;perimeterSpacing=0;strokeWidth=1;dashed=1;dashPattern=8 8;points=[[0,0.5,0,0,0],[0.5,0,0,0,0],[0.5,1,0,0,0],[1,0.5,0,0,0]];container=0;fillColor=none;" vertex="1" parent="HSOn5zOCnuacAM8XR8tr-6">
            <mxGeometry y="10" width="42.5" height="42.5" as="geometry" />
          </mxCell>
        </object>
        <mxCell id="HSOn5zOCnuacAM8XR8tr-9" value="" style="group;fontSize=16;" vertex="1" connectable="0" parent="lydrGFN5QWvYqXAOOCpk-1">
          <mxGeometry x="-1840" y="484.83000000000004" width="58.75" height="52.5" as="geometry" />
        </mxCell>
        <object label="" markers="●" placeholders="1" id="HSOn5zOCnuacAM8XR8tr-10">
          <mxCell style="ellipse;whiteSpace=wrap;html=1;aspect=fixed;fontSize=16;direction=south;perimeterSpacing=0;strokeWidth=1;points=[];container=0;" vertex="1" parent="HSOn5zOCnuacAM8XR8tr-9">
            <mxGeometry x="3.75" y="13.75" width="35" height="35" as="geometry" />
          </mxCell>
        </object>
        <object label="" markers="●" placeholders="1" id="HSOn5zOCnuacAM8XR8tr-11">
          <mxCell style="ellipse;whiteSpace=wrap;html=1;aspect=fixed;fontSize=16;direction=south;perimeterSpacing=0;strokeWidth=1;dashed=1;dashPattern=8 8;points=[[0,0.5,0,0,0],[0.5,0,0,0,0],[0.5,1,0,0,0],[1,0.5,0,0,0]];container=0;fillColor=none;" vertex="1" parent="HSOn5zOCnuacAM8XR8tr-9">
            <mxGeometry y="10" width="42.5" height="42.5" as="geometry" />
          </mxCell>
        </object>
        <mxCell id="HSOn5zOCnuacAM8XR8tr-12" style="edgeStyle=none;curved=1;rounded=0;orthogonalLoop=1;jettySize=auto;html=1;exitX=0.179;exitY=0.087;exitDx=0;exitDy=0;exitPerimeter=0;entryX=0.5;entryY=1;entryDx=0;entryDy=0;entryPerimeter=0;fontSize=12;startSize=8;endSize=8;" edge="1" parent="lydrGFN5QWvYqXAOOCpk-1" source="HSOn5zOCnuacAM8XR8tr-5" target="HSOn5zOCnuacAM8XR8tr-19">
          <mxGeometry relative="1" as="geometry" />
        </mxCell>
        <mxCell id="HSOn5zOCnuacAM8XR8tr-13" style="edgeStyle=none;curved=1;rounded=0;orthogonalLoop=1;jettySize=auto;html=1;exitX=0.5;exitY=0;exitDx=0;exitDy=0;exitPerimeter=0;entryX=0.822;entryY=0.897;entryDx=0;entryDy=0;entryPerimeter=0;fontSize=12;startSize=8;endSize=8;" edge="1" parent="lydrGFN5QWvYqXAOOCpk-1" source="HSOn5zOCnuacAM8XR8tr-19" target="HSOn5zOCnuacAM8XR8tr-8">
          <mxGeometry relative="1" as="geometry" />
        </mxCell>
        <mxCell id="HSOn5zOCnuacAM8XR8tr-14" value="&lt;b style=&quot;font-size: 9px;&quot;&gt;core_S&lt;/b&gt;" style="text;html=1;strokeColor=none;fillColor=none;align=center;verticalAlign=middle;whiteSpace=wrap;rounded=0;fontSize=16;points=[];container=0;" vertex="1" parent="lydrGFN5QWvYqXAOOCpk-1">
          <mxGeometry x="-1629.09" y="660" width="20" height="10" as="geometry" />
        </mxCell>
        <mxCell id="HSOn5zOCnuacAM8XR8tr-15" value="&lt;b style=&quot;font-size: 9px;&quot;&gt;core_E&lt;/b&gt;" style="text;html=1;strokeColor=none;fillColor=none;align=center;verticalAlign=middle;whiteSpace=wrap;rounded=0;fontSize=16;points=[];container=0;" vertex="1" parent="lydrGFN5QWvYqXAOOCpk-1">
          <mxGeometry x="-1469" y="497.83000000000004" width="20" height="10" as="geometry" />
        </mxCell>
        <mxCell id="HSOn5zOCnuacAM8XR8tr-16" value="&lt;b style=&quot;font-size: 9px;&quot;&gt;core_W&lt;/b&gt;" style="text;html=1;strokeColor=none;fillColor=none;align=center;verticalAlign=middle;whiteSpace=wrap;rounded=0;fontSize=16;points=[];container=0;" vertex="1" parent="lydrGFN5QWvYqXAOOCpk-1">
          <mxGeometry x="-1870" y="511.08000000000004" width="20" height="10" as="geometry" />
        </mxCell>
        <mxCell id="HSOn5zOCnuacAM8XR8tr-17" value="&lt;b style=&quot;font-size: 9px;&quot;&gt;core_N&lt;/b&gt;" style="text;html=1;strokeColor=none;fillColor=none;align=center;verticalAlign=middle;whiteSpace=wrap;rounded=0;fontSize=16;points=[];container=0;" vertex="1" parent="lydrGFN5QWvYqXAOOCpk-1">
          <mxGeometry x="-1713.27" y="347.21000000000004" width="20" height="10" as="geometry" />
        </mxCell>
        <mxCell id="HSOn5zOCnuacAM8XR8tr-18" value="" style="group" vertex="1" connectable="0" parent="lydrGFN5QWvYqXAOOCpk-1">
          <mxGeometry x="-1600.999248813617" y="573.8286299742617" width="51.489248813616996" height="45.38803669240491" as="geometry" />
        </mxCell>
        <mxCell id="HSOn5zOCnuacAM8XR8tr-19" value="" style="rounded=0;whiteSpace=wrap;html=1;fontSize=16;fillColor=#000000;points=[[0,0.5,0,0,0],[0.5,0,0,0,0],[0.5,1,0,0,0],[1,0.5,0,0,0]];rotation=45;container=0;" vertex="1" parent="HSOn5zOCnuacAM8XR8tr-18">
          <mxGeometry x="-3.3307511863829404" y="15.758036692404971" width="49.09090909090909" height="10.913333333333334" as="geometry" />
        </mxCell>
        <mxCell id="HSOn5zOCnuacAM8XR8tr-20" value="" style="group" vertex="1" connectable="0" parent="lydrGFN5QWvYqXAOOCpk-1">
          <mxGeometry x="-1761.999248813617" y="413.82862997426173" width="51.489248813616996" height="45.38803669240491" as="geometry" />
        </mxCell>
        <mxCell id="HSOn5zOCnuacAM8XR8tr-21" value="" style="rounded=0;whiteSpace=wrap;html=1;fontSize=16;fillColor=#000000;points=[[0,0.5,0,0,0],[0.5,0,0,0,0],[0.5,1,0,0,0],[1,0.5,0,0,0]];rotation=45;container=0;" vertex="1" parent="HSOn5zOCnuacAM8XR8tr-20">
          <mxGeometry x="-3.3307511863829404" y="15.758036692404971" width="49.09090909090909" height="10.913333333333334" as="geometry" />
        </mxCell>
        <mxCell id="HSOn5zOCnuacAM8XR8tr-22" style="edgeStyle=none;curved=1;rounded=0;orthogonalLoop=1;jettySize=auto;html=1;entryX=0.5;entryY=0;entryDx=0;entryDy=0;entryPerimeter=0;fontSize=12;startSize=8;endSize=8;" edge="1" parent="lydrGFN5QWvYqXAOOCpk-1" source="HSOn5zOCnuacAM8XR8tr-2" target="HSOn5zOCnuacAM8XR8tr-21">
          <mxGeometry relative="1" as="geometry" />
        </mxCell>
        <mxCell id="HSOn5zOCnuacAM8XR8tr-23" style="edgeStyle=none;curved=1;rounded=0;orthogonalLoop=1;jettySize=auto;html=1;exitX=0.5;exitY=1;exitDx=0;exitDy=0;exitPerimeter=0;entryX=0.133;entryY=0.137;entryDx=0;entryDy=0;entryPerimeter=0;fontSize=12;startSize=8;endSize=8;" edge="1" parent="lydrGFN5QWvYqXAOOCpk-1" source="HSOn5zOCnuacAM8XR8tr-21" target="HSOn5zOCnuacAM8XR8tr-11">
          <mxGeometry relative="1" as="geometry" />
        </mxCell>
        <mxCell id="HSOn5zOCnuacAM8XR8tr-24" value="&lt;b style=&quot;font-size: 9px;&quot;&gt;move_N&lt;/b&gt;" style="text;html=1;strokeColor=none;fillColor=none;align=center;verticalAlign=middle;whiteSpace=wrap;rounded=0;fontSize=16;points=[];container=0;" vertex="1" parent="lydrGFN5QWvYqXAOOCpk-1">
          <mxGeometry x="-1733.999090909091" y="460.8299999999999" width="10.90909090909091" height="5.456666666666667" as="geometry" />
        </mxCell>
        <mxCell id="HSOn5zOCnuacAM8XR8tr-25" style="edgeStyle=none;rounded=0;orthogonalLoop=1;jettySize=auto;html=1;entryX=0.963;entryY=0.092;entryDx=0;entryDy=0;entryPerimeter=0;fontSize=12;startSize=8;endSize=3;fillColor=#fff2cc;strokeColor=#d6b656;endArrow=circle;endFill=0;" edge="1" parent="lydrGFN5QWvYqXAOOCpk-1" source="HSOn5zOCnuacAM8XR8tr-8" target="HSOn5zOCnuacAM8XR8tr-19">
          <mxGeometry relative="1" as="geometry">
            <Array as="points">
              <mxPoint x="-1480" y="544.83" />
            </Array>
          </mxGeometry>
        </mxCell>
        <mxCell id="HSOn5zOCnuacAM8XR8tr-26" style="edgeStyle=none;rounded=0;orthogonalLoop=1;jettySize=auto;html=1;entryX=-0.001;entryY=1.04;entryDx=0;entryDy=0;entryPerimeter=0;fontSize=12;startSize=8;endSize=3;fillColor=#fff2cc;strokeColor=#d6b656;endArrow=circle;endFill=0;" edge="1" parent="lydrGFN5QWvYqXAOOCpk-1" source="HSOn5zOCnuacAM8XR8tr-11" target="HSOn5zOCnuacAM8XR8tr-21">
          <mxGeometry relative="1" as="geometry">
            <Array as="points">
              <mxPoint x="-1840" y="484.83000000000004" />
            </Array>
          </mxGeometry>
        </mxCell>
        <mxCell id="HSOn5zOCnuacAM8XR8tr-27" style="edgeStyle=none;curved=1;rounded=0;orthogonalLoop=1;jettySize=auto;html=1;entryX=0.5;entryY=0;entryDx=0;entryDy=0;entryPerimeter=0;fontSize=12;startSize=8;endSize=8;" edge="1" parent="lydrGFN5QWvYqXAOOCpk-1" source="HSOn5zOCnuacAM8XR8tr-11" target="HSOn5zOCnuacAM8XR8tr-32">
          <mxGeometry relative="1" as="geometry" />
        </mxCell>
        <mxCell id="HSOn5zOCnuacAM8XR8tr-28" style="edgeStyle=none;curved=1;rounded=0;orthogonalLoop=1;jettySize=auto;html=1;exitX=0.5;exitY=1;exitDx=0;exitDy=0;exitPerimeter=0;entryX=0.231;entryY=0.917;entryDx=0;entryDy=0;entryPerimeter=0;fontSize=12;startSize=8;endSize=8;" edge="1" parent="lydrGFN5QWvYqXAOOCpk-1" source="HSOn5zOCnuacAM8XR8tr-32" target="HSOn5zOCnuacAM8XR8tr-5">
          <mxGeometry relative="1" as="geometry" />
        </mxCell>
        <mxCell id="HSOn5zOCnuacAM8XR8tr-29" style="edgeStyle=none;rounded=0;orthogonalLoop=1;jettySize=auto;html=1;entryX=0.005;entryY=0.995;entryDx=0;entryDy=0;entryPerimeter=0;fontSize=12;startSize=8;endSize=3;fillColor=#fff2cc;strokeColor=#d6b656;endArrow=circle;endFill=0;" edge="1" parent="lydrGFN5QWvYqXAOOCpk-1" source="HSOn5zOCnuacAM8XR8tr-5" target="HSOn5zOCnuacAM8XR8tr-32">
          <mxGeometry relative="1" as="geometry">
            <Array as="points">
              <mxPoint x="-1690" y="694.83" />
            </Array>
          </mxGeometry>
        </mxCell>
        <mxCell id="HSOn5zOCnuacAM8XR8tr-30" value="" style="group" vertex="1" connectable="0" parent="lydrGFN5QWvYqXAOOCpk-1">
          <mxGeometry x="-1789" y="573.2786299742617" width="70.58015790452623" height="43.381370025738306" as="geometry" />
        </mxCell>
        <mxCell id="HSOn5zOCnuacAM8XR8tr-31" value="" style="group" vertex="1" connectable="0" parent="HSOn5zOCnuacAM8XR8tr-30">
          <mxGeometry x="6" width="64.58015790452623" height="43.381370025738306" as="geometry" />
        </mxCell>
        <mxCell id="HSOn5zOCnuacAM8XR8tr-32" value="" style="rounded=0;whiteSpace=wrap;html=1;fontSize=16;fillColor=#000000;points=[[0,0.5,0,0,0],[0.5,0,0,0,0],[0.5,1,0,0,0],[1,0.5,0,0,0]];rotation=315;container=0;" vertex="1" parent="HSOn5zOCnuacAM8XR8tr-31">
          <mxGeometry x="18.820000000000164" y="15.758036692404971" width="49.09090909090909" height="10.913333333333334" as="geometry" />
        </mxCell>
        <mxCell id="HSOn5zOCnuacAM8XR8tr-33" value="" style="group" vertex="1" connectable="0" parent="lydrGFN5QWvYqXAOOCpk-1">
          <mxGeometry x="-1628" y="411.82862997426173" width="70.58015790452623" height="43.381370025738306" as="geometry" />
        </mxCell>
        <mxCell id="HSOn5zOCnuacAM8XR8tr-34" value="" style="group" vertex="1" connectable="0" parent="HSOn5zOCnuacAM8XR8tr-33">
          <mxGeometry x="6" width="64.58015790452623" height="43.381370025738306" as="geometry" />
        </mxCell>
        <mxCell id="HSOn5zOCnuacAM8XR8tr-35" value="" style="rounded=0;whiteSpace=wrap;html=1;fontSize=16;fillColor=#000000;points=[[0,0.5,0,0,0],[0.5,0,0,0,0],[0.5,1,0,0,0],[1,0.5,0,0,0]];rotation=315;container=0;" vertex="1" parent="HSOn5zOCnuacAM8XR8tr-34">
          <mxGeometry x="18.820000000000164" y="15.758036692404971" width="49.09090909090909" height="10.913333333333334" as="geometry" />
        </mxCell>
        <mxCell id="HSOn5zOCnuacAM8XR8tr-36" value="&lt;b style=&quot;font-size: 9px;&quot;&gt;move_E&lt;/b&gt;" style="text;html=1;strokeColor=none;fillColor=none;align=center;verticalAlign=middle;whiteSpace=wrap;rounded=0;fontSize=16;points=[];container=0;" vertex="1" parent="lydrGFN5QWvYqXAOOCpk-1">
          <mxGeometry x="-1598" y="459.8299999999999" width="10.91" height="4.54" as="geometry" />
        </mxCell>
        <mxCell id="HSOn5zOCnuacAM8XR8tr-37" style="edgeStyle=none;curved=1;rounded=0;orthogonalLoop=1;jettySize=auto;html=1;entryX=0.5;entryY=1;entryDx=0;entryDy=0;entryPerimeter=0;fontSize=12;startSize=8;endSize=8;" edge="1" parent="lydrGFN5QWvYqXAOOCpk-1" source="HSOn5zOCnuacAM8XR8tr-8" target="HSOn5zOCnuacAM8XR8tr-35">
          <mxGeometry relative="1" as="geometry" />
        </mxCell>
        <mxCell id="HSOn5zOCnuacAM8XR8tr-38" style="edgeStyle=none;curved=1;rounded=0;orthogonalLoop=1;jettySize=auto;html=1;exitX=0.5;exitY=0;exitDx=0;exitDy=0;exitPerimeter=0;entryX=0.824;entryY=0.098;entryDx=0;entryDy=0;entryPerimeter=0;fontSize=12;startSize=8;endSize=8;" edge="1" parent="lydrGFN5QWvYqXAOOCpk-1" source="HSOn5zOCnuacAM8XR8tr-35" target="HSOn5zOCnuacAM8XR8tr-2">
          <mxGeometry relative="1" as="geometry" />
        </mxCell>
        <mxCell id="HSOn5zOCnuacAM8XR8tr-39" style="edgeStyle=none;rounded=0;orthogonalLoop=1;jettySize=auto;html=1;entryX=0.968;entryY=-0.056;entryDx=0;entryDy=0;entryPerimeter=0;fontSize=12;startSize=8;endSize=3;fillColor=#fff2cc;strokeColor=#d6b656;endArrow=circle;endFill=0;" edge="1" parent="lydrGFN5QWvYqXAOOCpk-1" source="HSOn5zOCnuacAM8XR8tr-2" target="HSOn5zOCnuacAM8XR8tr-35">
          <mxGeometry relative="1" as="geometry">
            <Array as="points">
              <mxPoint x="-1630" y="334.83000000000004" />
            </Array>
          </mxGeometry>
        </mxCell>
        <mxCell id="HSOn5zOCnuacAM8XR8tr-40" value="" style="group" vertex="1" connectable="0" parent="lydrGFN5QWvYqXAOOCpk-1">
          <mxGeometry x="-1683" y="449.8266666666667" width="49.09090909090901" height="15.539999999999992" as="geometry" />
        </mxCell>
        <mxCell id="HSOn5zOCnuacAM8XR8tr-41" value="&lt;b style=&quot;font-size: 9px;&quot;&gt;skip_N&lt;/b&gt;" style="text;html=1;strokeColor=none;fillColor=none;align=center;verticalAlign=middle;whiteSpace=wrap;rounded=0;fontSize=16;points=[];" vertex="1" parent="HSOn5zOCnuacAM8XR8tr-40">
          <mxGeometry x="18.00090909090909" y="10.083333333333314" width="10.90909090909091" height="5.456666666666667" as="geometry" />
        </mxCell>
        <mxCell id="HSOn5zOCnuacAM8XR8tr-42" value="" style="rounded=0;whiteSpace=wrap;html=1;fontSize=16;fillColor=#000000;points=[[0,0.5,0,0,0],[0.5,0,0,0,0],[0.5,1,0,0,0],[1,0.5,0,0,0]];" vertex="1" parent="HSOn5zOCnuacAM8XR8tr-40">
          <mxGeometry width="49.09090909090909" height="10.913333333333334" as="geometry" />
        </mxCell>
        <mxCell id="HSOn5zOCnuacAM8XR8tr-43" value="" style="group" vertex="1" connectable="0" parent="lydrGFN5QWvYqXAOOCpk-1">
          <mxGeometry x="-1683" y="554.83" width="49.09090909090901" height="25.83000000000004" as="geometry" />
        </mxCell>
        <mxCell id="HSOn5zOCnuacAM8XR8tr-44" value="&lt;font size=&quot;1&quot;&gt;&lt;b style=&quot;font-size: 9px;&quot;&gt;skip_S&lt;/b&gt;&lt;/font&gt;" style="text;html=1;strokeColor=none;fillColor=none;align=center;verticalAlign=middle;whiteSpace=wrap;rounded=0;fontSize=16;points=[];" vertex="1" parent="HSOn5zOCnuacAM8XR8tr-43">
          <mxGeometry x="20.00090909090909" width="10.90909090909091" height="5.456666666666667" as="geometry" />
        </mxCell>
        <mxCell id="HSOn5zOCnuacAM8XR8tr-45" value="" style="rounded=0;whiteSpace=wrap;html=1;fontSize=16;fillColor=#000000;points=[[0,0.5,0,0,0],[0.5,0,0,0,0],[0.5,1,0,0,0],[1,0.5,0,0,0]];" vertex="1" parent="HSOn5zOCnuacAM8XR8tr-43">
          <mxGeometry y="14.916666666666686" width="49.09090909090909" height="10.913333333333334" as="geometry" />
        </mxCell>
        <mxCell id="HSOn5zOCnuacAM8XR8tr-46" value="&lt;b style=&quot;font-size: 9px;&quot;&gt;move_W&lt;/b&gt;" style="text;html=1;strokeColor=none;fillColor=none;align=center;verticalAlign=middle;whiteSpace=wrap;rounded=0;fontSize=16;points=[];container=0;" vertex="1" parent="lydrGFN5QWvYqXAOOCpk-1">
          <mxGeometry x="-1731" y="555.8299999999999" width="10.91" height="4.54" as="geometry" />
        </mxCell>
        <mxCell id="HSOn5zOCnuacAM8XR8tr-47" value="&lt;b style=&quot;font-size: 9px;&quot;&gt;move_S&lt;/b&gt;" style="text;html=1;strokeColor=none;fillColor=none;align=center;verticalAlign=middle;whiteSpace=wrap;rounded=0;fontSize=16;points=[];container=0;" vertex="1" parent="lydrGFN5QWvYqXAOOCpk-1">
          <mxGeometry x="-1595.999090909091" y="552.8299999999999" width="10.90909090909091" height="5.456666666666667" as="geometry" />
        </mxCell>
        <mxCell id="HSOn5zOCnuacAM8XR8tr-48" value="" style="group;fontSize=16;" vertex="1" connectable="0" parent="lydrGFN5QWvYqXAOOCpk-1">
          <mxGeometry x="-1844.1599999999999" y="594.83" width="70.91" height="21.830000000000013" as="geometry" />
        </mxCell>
        <mxCell id="HSOn5zOCnuacAM8XR8tr-49" value="" style="group;points=[[0,0.5,0,0,0],[0.5,0,0,0,0],[0.5,1,0,0,0],[1,0.5,0,0,0]];fontSize=16;" vertex="1" connectable="0" parent="HSOn5zOCnuacAM8XR8tr-48">
          <mxGeometry y="5.460000000000008" width="60" height="16.37" as="geometry" />
        </mxCell>
        <mxCell id="HSOn5zOCnuacAM8XR8tr-50" value="" style="rounded=0;whiteSpace=wrap;html=1;fontSize=16;fillColor=#000000;points=[[0,0.5,0,0,0],[0.5,0,0,0,0],[0.5,1,0,0,0],[1,0.5,0,0,0]];" vertex="1" parent="HSOn5zOCnuacAM8XR8tr-49">
          <mxGeometry y="5.456666666666667" width="49.09090909090909" height="10.913333333333334" as="geometry" />
        </mxCell>
        <mxCell id="HSOn5zOCnuacAM8XR8tr-51" value="&lt;b style=&quot;font-size: 9px;&quot;&gt;stall_W&lt;/b&gt;" style="text;html=1;strokeColor=none;fillColor=none;align=center;verticalAlign=middle;whiteSpace=wrap;rounded=0;fontSize=16;points=[];" vertex="1" parent="HSOn5zOCnuacAM8XR8tr-48">
          <mxGeometry x="60.00090909090909" width="10.90909090909091" height="5.456666666666667" as="geometry" />
        </mxCell>
        <mxCell id="HSOn5zOCnuacAM8XR8tr-52" style="edgeStyle=none;curved=1;rounded=0;orthogonalLoop=1;jettySize=auto;html=1;entryX=0.5;entryY=0;entryDx=0;entryDy=0;entryPerimeter=0;fontSize=12;startSize=8;endSize=8;startArrow=classic;startFill=1;dashed=1;" edge="1" parent="lydrGFN5QWvYqXAOOCpk-1" source="HSOn5zOCnuacAM8XR8tr-11" target="HSOn5zOCnuacAM8XR8tr-50">
          <mxGeometry relative="1" as="geometry" />
        </mxCell>
        <mxCell id="HSOn5zOCnuacAM8XR8tr-53" style="edgeStyle=none;rounded=0;orthogonalLoop=1;jettySize=auto;html=1;fontSize=12;startSize=8;endSize=8;startArrow=classic;startFill=1;dashed=1;entryX=0.5;entryY=1;entryDx=0;entryDy=0;entryPerimeter=0;" edge="1" parent="lydrGFN5QWvYqXAOOCpk-1" source="HSOn5zOCnuacAM8XR8tr-5" target="HSOn5zOCnuacAM8XR8tr-50">
          <mxGeometry relative="1" as="geometry">
            <mxPoint x="-1820" y="671.08" as="targetPoint" />
            <Array as="points">
              <mxPoint x="-1820" y="669.83" />
            </Array>
          </mxGeometry>
        </mxCell>
        <mxCell id="HSOn5zOCnuacAM8XR8tr-54" value="" style="group;fontSize=16;" vertex="1" connectable="0" parent="lydrGFN5QWvYqXAOOCpk-1">
          <mxGeometry x="-1522.9999999999998" y="396.83000000000004" width="70.91" height="21.830000000000013" as="geometry" />
        </mxCell>
        <mxCell id="HSOn5zOCnuacAM8XR8tr-55" value="" style="group;points=[[0,0.5,0,0,0],[0.5,0,0,0,0],[0.5,1,0,0,0],[1,0.5,0,0,0]];fontSize=16;" vertex="1" connectable="0" parent="HSOn5zOCnuacAM8XR8tr-54">
          <mxGeometry y="5.460000000000008" width="60" height="16.37" as="geometry" />
        </mxCell>
        <mxCell id="HSOn5zOCnuacAM8XR8tr-56" value="" style="rounded=0;whiteSpace=wrap;html=1;fontSize=16;fillColor=#000000;points=[[0,0.5,0,0,0],[0.5,0,0,0,0],[0.5,1,0,0,0],[1,0.5,0,0,0]];" vertex="1" parent="HSOn5zOCnuacAM8XR8tr-55">
          <mxGeometry y="5.456666666666667" width="49.09090909090909" height="10.913333333333334" as="geometry" />
        </mxCell>
        <mxCell id="HSOn5zOCnuacAM8XR8tr-57" value="&lt;b style=&quot;font-size: 9px;&quot;&gt;stall_E&lt;/b&gt;" style="text;html=1;strokeColor=none;fillColor=none;align=center;verticalAlign=middle;whiteSpace=wrap;rounded=0;fontSize=16;points=[];" vertex="1" parent="HSOn5zOCnuacAM8XR8tr-54">
          <mxGeometry x="60.00090909090909" width="10.90909090909091" height="5.456666666666667" as="geometry" />
        </mxCell>
        <mxCell id="HSOn5zOCnuacAM8XR8tr-58" style="edgeStyle=none;curved=1;rounded=0;orthogonalLoop=1;jettySize=auto;html=1;exitX=0;exitY=0.5;exitDx=0;exitDy=0;exitPerimeter=0;entryX=0.5;entryY=1;entryDx=0;entryDy=0;entryPerimeter=0;fontSize=12;startSize=8;endSize=8;startArrow=classic;startFill=1;dashed=1;" edge="1" parent="lydrGFN5QWvYqXAOOCpk-1" source="HSOn5zOCnuacAM8XR8tr-8" target="HSOn5zOCnuacAM8XR8tr-56">
          <mxGeometry relative="1" as="geometry" />
        </mxCell>
        <mxCell id="HSOn5zOCnuacAM8XR8tr-59" style="edgeStyle=none;rounded=0;orthogonalLoop=1;jettySize=auto;html=1;exitX=0.5;exitY=0;exitDx=0;exitDy=0;exitPerimeter=0;entryX=0.5;entryY=0;entryDx=0;entryDy=0;entryPerimeter=0;fontSize=12;startSize=8;endSize=8;dashed=1;startArrow=classic;startFill=1;" edge="1" parent="lydrGFN5QWvYqXAOOCpk-1" source="HSOn5zOCnuacAM8XR8tr-2" target="HSOn5zOCnuacAM8XR8tr-56">
          <mxGeometry relative="1" as="geometry">
            <Array as="points">
              <mxPoint x="-1499" y="357.83000000000004" />
            </Array>
          </mxGeometry>
        </mxCell>
        <mxCell id="HSOn5zOCnuacAM8XR8tr-60" value="" style="group;fontSize=16;" vertex="1" connectable="0" parent="lydrGFN5QWvYqXAOOCpk-1">
          <mxGeometry x="-1730.0012121212121" y="479.83000000000004" width="25.82121212121217" height="60.918787878787896" as="geometry" />
        </mxCell>
        <mxCell id="HSOn5zOCnuacAM8XR8tr-61" value="" style="rounded=0;whiteSpace=wrap;html=1;fontSize=16;fillColor=#000000;points=[[0,0.5,0,0,0],[0.5,0,0,0,0],[0.5,1,0,0,0],[1,0.5,0,0,0]];rotation=90;container=0;" vertex="1" parent="HSOn5zOCnuacAM8XR8tr-60">
          <mxGeometry x="-19.088787878787855" y="30.916666666666686" width="49.09090909090909" height="10.913333333333334" as="geometry" />
        </mxCell>
        <mxCell id="HSOn5zOCnuacAM8XR8tr-62" style="edgeStyle=none;curved=1;rounded=0;orthogonalLoop=1;jettySize=auto;html=1;exitX=0.5;exitY=0;exitDx=0;exitDy=0;exitPerimeter=0;entryX=0.5;entryY=1;entryDx=0;entryDy=0;entryPerimeter=0;fontSize=12;startSize=8;endSize=3;endArrow=circle;endFill=0;fillColor=#fff2cc;strokeColor=#d6b656;" edge="1" parent="lydrGFN5QWvYqXAOOCpk-1" source="HSOn5zOCnuacAM8XR8tr-11" target="HSOn5zOCnuacAM8XR8tr-61">
          <mxGeometry relative="1" as="geometry" />
        </mxCell>
        <mxCell id="HSOn5zOCnuacAM8XR8tr-63" value="&lt;b style=&quot;font-size: 9px;&quot;&gt;skip_W&lt;/b&gt;" style="text;html=1;strokeColor=none;fillColor=none;align=center;verticalAlign=middle;whiteSpace=wrap;rounded=0;fontSize=16;points=[];container=0;" vertex="1" parent="lydrGFN5QWvYqXAOOCpk-1">
          <mxGeometry x="-1704.179090909091" y="509.83000000000004" width="10.90909090909091" height="5.456666666666667" as="geometry" />
        </mxCell>
        <mxCell id="HSOn5zOCnuacAM8XR8tr-64" value="" style="group;fontSize=16;" vertex="1" connectable="0" parent="lydrGFN5QWvYqXAOOCpk-1">
          <mxGeometry x="-1611.0012121212121" y="479.83000000000004" width="25.82121212121217" height="60.918787878787896" as="geometry" />
        </mxCell>
        <mxCell id="HSOn5zOCnuacAM8XR8tr-65" value="" style="rounded=0;whiteSpace=wrap;html=1;fontSize=16;fillColor=#000000;points=[[0,0.5,0,0,0],[0.5,0,0,0,0],[0.5,1,0,0,0],[1,0.5,0,0,0]];rotation=90;container=0;" vertex="1" parent="HSOn5zOCnuacAM8XR8tr-64">
          <mxGeometry x="-19.088787878787855" y="30.916666666666686" width="49.09090909090909" height="10.913333333333334" as="geometry" />
        </mxCell>
        <mxCell id="HSOn5zOCnuacAM8XR8tr-66" value="&lt;b style=&quot;font-size: 9px;&quot;&gt;skip_E&lt;/b&gt;" style="text;html=1;strokeColor=none;fillColor=none;align=center;verticalAlign=middle;whiteSpace=wrap;rounded=0;fontSize=16;points=[];container=0;" vertex="1" parent="lydrGFN5QWvYqXAOOCpk-1">
          <mxGeometry x="-1633.999090909091" y="508.83000000000004" width="10.90909090909091" height="5.456666666666667" as="geometry" />
        </mxCell>
        <mxCell id="HSOn5zOCnuacAM8XR8tr-67" style="edgeStyle=none;curved=1;rounded=0;orthogonalLoop=1;jettySize=auto;html=1;exitX=0.5;exitY=1;exitDx=0;exitDy=0;exitPerimeter=0;entryX=0.5;entryY=0;entryDx=0;entryDy=0;entryPerimeter=0;fontSize=12;startSize=8;endSize=3;fillColor=#fff2cc;strokeColor=#d6b656;endArrow=circle;endFill=0;" edge="1" parent="lydrGFN5QWvYqXAOOCpk-1" source="HSOn5zOCnuacAM8XR8tr-8" target="HSOn5zOCnuacAM8XR8tr-65">
          <mxGeometry relative="1" as="geometry" />
        </mxCell>
        <mxCell id="HSOn5zOCnuacAM8XR8tr-68" value="" style="group;fontSize=16;" vertex="1" connectable="0" parent="lydrGFN5QWvYqXAOOCpk-1">
          <mxGeometry x="-2063.75" y="616.6600000000001" width="68.75" height="60" as="geometry" />
        </mxCell>
        <mxCell id="HSOn5zOCnuacAM8XR8tr-69" value="" style="group;fontSize=16;" vertex="1" connectable="0" parent="HSOn5zOCnuacAM8XR8tr-68">
          <mxGeometry y="13" width="52.5" height="50" as="geometry" />
        </mxCell>
        <mxCell id="HSOn5zOCnuacAM8XR8tr-70" value="" style="group;fontSize=16;" vertex="1" connectable="0" parent="HSOn5zOCnuacAM8XR8tr-69">
          <mxGeometry x="-3.75" width="56.25" height="48.75" as="geometry" />
        </mxCell>
        <object label="" markers="●" placeholders="1" id="HSOn5zOCnuacAM8XR8tr-71">
          <mxCell style="ellipse;whiteSpace=wrap;html=1;aspect=fixed;fontSize=16;direction=south;perimeterSpacing=0;strokeWidth=1;dashed=1;dashPattern=8 8;points=[[0,0.5,0,0,0],[0.5,0,0,0,0],[0.5,1,0,0,0],[1,0.5,0,0,0]];" vertex="1" parent="HSOn5zOCnuacAM8XR8tr-70">
            <mxGeometry y="6.25" width="42.5" height="42.5" as="geometry" />
          </mxCell>
        </object>
        <object label="" markers="●" placeholders="1" id="HSOn5zOCnuacAM8XR8tr-72">
          <mxCell style="ellipse;whiteSpace=wrap;html=1;aspect=fixed;fontSize=16;direction=south;perimeterSpacing=0;strokeWidth=1;points=[];" vertex="1" parent="HSOn5zOCnuacAM8XR8tr-70">
            <mxGeometry x="3.75" y="10" width="35" height="35" as="geometry" />
          </mxCell>
        </object>
        <mxCell id="HSOn5zOCnuacAM8XR8tr-73" value="" style="group;fontSize=16;" vertex="1" connectable="0" parent="lydrGFN5QWvYqXAOOCpk-1">
          <mxGeometry x="-2071" y="573.83" width="70.91" height="21.830000000000013" as="geometry" />
        </mxCell>
        <mxCell id="HSOn5zOCnuacAM8XR8tr-74" value="" style="group;points=[[0,0.5,0,0,0],[0.5,0,0,0,0],[0.5,1,0,0,0],[1,0.5,0,0,0]];fontSize=16;" vertex="1" connectable="0" parent="HSOn5zOCnuacAM8XR8tr-73">
          <mxGeometry y="5.460000000000008" width="60" height="16.37" as="geometry" />
        </mxCell>
        <mxCell id="HSOn5zOCnuacAM8XR8tr-75" value="" style="rounded=0;whiteSpace=wrap;html=1;fontSize=16;fillColor=#000000;points=[[0,0.5,0,0,0],[0.5,0,0,0,0],[0.5,1,0,0,0],[1,0.5,0,0,0]];" vertex="1" parent="HSOn5zOCnuacAM8XR8tr-74">
          <mxGeometry y="5.456666666666667" width="49.09090909090909" height="10.913333333333334" as="geometry" />
        </mxCell>
        <mxCell id="HSOn5zOCnuacAM8XR8tr-76" value="&lt;b style=&quot;font-size: 9px;&quot;&gt;enter_W&lt;/b&gt;" style="text;html=1;strokeColor=none;fillColor=none;align=center;verticalAlign=middle;whiteSpace=wrap;rounded=0;fontSize=16;" vertex="1" parent="HSOn5zOCnuacAM8XR8tr-73">
          <mxGeometry x="42.25090909090886" width="10.90909090909091" height="5.456666666666667" as="geometry" />
        </mxCell>
        <mxCell id="HSOn5zOCnuacAM8XR8tr-77" value="" style="group;fontSize=16;" vertex="1" connectable="0" parent="lydrGFN5QWvYqXAOOCpk-1">
          <mxGeometry x="-1930" y="573.8300000000002" width="70.91" height="21.830000000000013" as="geometry" />
        </mxCell>
        <mxCell id="HSOn5zOCnuacAM8XR8tr-78" value="&lt;b style=&quot;font-size: 9px;&quot;&gt;skip_W&lt;/b&gt;" style="text;html=1;strokeColor=none;fillColor=none;align=center;verticalAlign=middle;whiteSpace=wrap;rounded=0;fontSize=16;" vertex="1" parent="HSOn5zOCnuacAM8XR8tr-77">
          <mxGeometry x="60.00090909090909" width="10.90909090909091" height="5.456666666666667" as="geometry" />
        </mxCell>
        <mxCell id="HSOn5zOCnuacAM8XR8tr-79" value="" style="rounded=0;whiteSpace=wrap;html=1;fontSize=16;fillColor=#000000;points=[[0,0.5,0,0,0],[0.5,0,0,0,0],[0.5,1,0,0,0],[1,0.5,0,0,0]];" vertex="1" parent="HSOn5zOCnuacAM8XR8tr-77">
          <mxGeometry y="10.916666666666675" width="49.09090909090909" height="10.913333333333334" as="geometry" />
        </mxCell>
        <mxCell id="HSOn5zOCnuacAM8XR8tr-80" style="rounded=0;orthogonalLoop=1;jettySize=auto;html=1;fontSize=12;startSize=8;endSize=3;fillColor=#fff2cc;strokeColor=#d6b656;endArrow=circle;endFill=0;entryX=0.225;entryY=1.007;entryDx=0;entryDy=0;entryPerimeter=0;" edge="1" parent="lydrGFN5QWvYqXAOOCpk-1" source="HSOn5zOCnuacAM8XR8tr-71" target="HSOn5zOCnuacAM8XR8tr-79">
          <mxGeometry relative="1" as="geometry">
            <Array as="points">
              <mxPoint x="-2000" y="640" />
              <mxPoint x="-1920" y="640" />
            </Array>
            <mxPoint x="-1920" y="590" as="targetPoint" />
          </mxGeometry>
        </mxCell>
        <mxCell id="HSOn5zOCnuacAM8XR8tr-81" style="edgeStyle=none;curved=1;rounded=0;orthogonalLoop=1;jettySize=auto;html=1;exitX=0;exitY=0.5;exitDx=0;exitDy=0;exitPerimeter=0;entryX=0.5;entryY=1;entryDx=0;entryDy=0;entryPerimeter=0;fontSize=12;startSize=8;endSize=8;" edge="1" parent="lydrGFN5QWvYqXAOOCpk-1" source="HSOn5zOCnuacAM8XR8tr-71" target="HSOn5zOCnuacAM8XR8tr-75">
          <mxGeometry relative="1" as="geometry" />
        </mxCell>
        <mxCell id="HSOn5zOCnuacAM8XR8tr-82" style="edgeStyle=orthogonalEdgeStyle;rounded=0;orthogonalLoop=1;jettySize=auto;html=1;entryX=0.326;entryY=0.992;entryDx=0;entryDy=0;entryPerimeter=0;fontSize=12;startSize=8;endSize=8;" edge="1" parent="lydrGFN5QWvYqXAOOCpk-1" source="HSOn5zOCnuacAM8XR8tr-75" target="HSOn5zOCnuacAM8XR8tr-11">
          <mxGeometry relative="1" as="geometry">
            <Array as="points">
              <mxPoint x="-2046" y="509" />
              <mxPoint x="-2030" y="509" />
            </Array>
          </mxGeometry>
        </mxCell>
        <mxCell id="HSOn5zOCnuacAM8XR8tr-83" style="edgeStyle=orthogonalEdgeStyle;rounded=0;orthogonalLoop=1;jettySize=auto;html=1;entryX=0.163;entryY=-0.05;entryDx=0;entryDy=0;entryPerimeter=0;fontSize=12;startSize=3;endSize=3;endArrow=circle;endFill=0;fillColor=#fff2cc;strokeColor=#d6b656;exitX=0.203;exitY=0.916;exitDx=0;exitDy=0;exitPerimeter=0;" edge="1" parent="lydrGFN5QWvYqXAOOCpk-1" source="HSOn5zOCnuacAM8XR8tr-11" target="HSOn5zOCnuacAM8XR8tr-75">
          <mxGeometry relative="1" as="geometry">
            <Array as="points">
              <mxPoint x="-2063" y="503" />
            </Array>
            <mxPoint x="-1840" y="540" as="sourcePoint" />
          </mxGeometry>
        </mxCell>
        <mxCell id="HSOn5zOCnuacAM8XR8tr-84" value="" style="group;fontSize=16;" vertex="1" connectable="0" parent="lydrGFN5QWvYqXAOOCpk-1">
          <mxGeometry x="-2000.0900000000001" y="573.83" width="70.91" height="21.830000000000013" as="geometry" />
        </mxCell>
        <mxCell id="HSOn5zOCnuacAM8XR8tr-85" value="" style="group;points=[[0,0.5,0,0,0],[0.5,0,0,0,0],[0.5,1,0,0,0],[1,0.5,0,0,0]];fontSize=16;" vertex="1" connectable="0" parent="HSOn5zOCnuacAM8XR8tr-84">
          <mxGeometry y="5.460000000000008" width="60" height="16.37" as="geometry" />
        </mxCell>
        <mxCell id="HSOn5zOCnuacAM8XR8tr-86" value="" style="rounded=0;whiteSpace=wrap;html=1;fontSize=16;fillColor=#000000;points=[[0,0.5,0,0,0],[0.5,0,0,0,0],[0.5,1,0,0,0],[1,0.5,0,0,0]];" vertex="1" parent="HSOn5zOCnuacAM8XR8tr-85">
          <mxGeometry y="5.456666666666667" width="49.09090909090909" height="10.913333333333334" as="geometry" />
        </mxCell>
        <mxCell id="HSOn5zOCnuacAM8XR8tr-87" value="&lt;b style=&quot;font-size: 9px;&quot;&gt;stall_W&lt;/b&gt;" style="text;html=1;strokeColor=none;fillColor=none;align=center;verticalAlign=middle;whiteSpace=wrap;rounded=0;fontSize=16;" vertex="1" parent="HSOn5zOCnuacAM8XR8tr-84">
          <mxGeometry x="42.00090909090909" y="-2.0000000000000036" width="10.90909090909091" height="5.456666666666667" as="geometry" />
        </mxCell>
        <mxCell id="HSOn5zOCnuacAM8XR8tr-88" style="edgeStyle=orthogonalEdgeStyle;rounded=0;orthogonalLoop=1;jettySize=auto;html=1;fontSize=12;startSize=8;endSize=8;jumpStyle=line;startArrow=classic;startFill=1;dashed=1;entryX=0.5;entryY=0;entryDx=0;entryDy=0;entryPerimeter=0;exitX=0.804;exitY=0.906;exitDx=0;exitDy=0;exitPerimeter=0;" edge="1" parent="lydrGFN5QWvYqXAOOCpk-1" source="HSOn5zOCnuacAM8XR8tr-11" target="HSOn5zOCnuacAM8XR8tr-86">
          <mxGeometry relative="1" as="geometry">
            <mxPoint x="-2060.0299999999997" y="442.83000000000004" as="targetPoint" />
            <Array as="points">
              <mxPoint x="-1895" y="529" />
              <mxPoint x="-1895" y="530" />
              <mxPoint x="-1975" y="530" />
            </Array>
          </mxGeometry>
        </mxCell>
        <mxCell id="HSOn5zOCnuacAM8XR8tr-89" style="edgeStyle=orthogonalEdgeStyle;rounded=0;orthogonalLoop=1;jettySize=auto;html=1;fontSize=12;startSize=8;endSize=8;startArrow=classic;startFill=1;exitX=0.5;exitY=0;exitDx=0;exitDy=0;exitPerimeter=0;jumpStyle=line;dashed=1;entryX=0.5;entryY=1;entryDx=0;entryDy=0;entryPerimeter=0;" edge="1" parent="lydrGFN5QWvYqXAOOCpk-1" source="HSOn5zOCnuacAM8XR8tr-71" target="HSOn5zOCnuacAM8XR8tr-86">
          <mxGeometry relative="1" as="geometry">
            <Array as="points">
              <mxPoint x="-1990" y="657" />
              <mxPoint x="-1975" y="657" />
            </Array>
            <mxPoint x="-1975" y="600" as="targetPoint" />
          </mxGeometry>
        </mxCell>
        <mxCell id="HSOn5zOCnuacAM8XR8tr-90" style="edgeStyle=none;rounded=0;orthogonalLoop=1;jettySize=auto;html=1;fontSize=12;startSize=8;endSize=3;fillColor=#fff2cc;strokeColor=#d6b656;endArrow=circle;endFill=0;entryX=0.819;entryY=0.935;entryDx=0;entryDy=0;entryPerimeter=0;" edge="1" parent="lydrGFN5QWvYqXAOOCpk-1" source="HSOn5zOCnuacAM8XR8tr-94" target="HSOn5zOCnuacAM8XR8tr-106">
          <mxGeometry relative="1" as="geometry">
            <mxPoint x="-1400" y="598.19" as="targetPoint" />
            <Array as="points">
              <mxPoint x="-1311" y="637.83" />
              <mxPoint x="-1401" y="637.83" />
            </Array>
          </mxGeometry>
        </mxCell>
        <mxCell id="HSOn5zOCnuacAM8XR8tr-91" value="" style="group;fontSize=16;" vertex="1" connectable="0" parent="lydrGFN5QWvYqXAOOCpk-1">
          <mxGeometry x="-1283" y="633.83" width="68.75" height="60" as="geometry" />
        </mxCell>
        <mxCell id="HSOn5zOCnuacAM8XR8tr-92" value="" style="group;fontSize=16;" vertex="1" connectable="0" parent="HSOn5zOCnuacAM8XR8tr-91">
          <mxGeometry y="-2" width="52.5" height="50" as="geometry" />
        </mxCell>
        <mxCell id="HSOn5zOCnuacAM8XR8tr-93" value="" style="group;fontSize=16;" vertex="1" connectable="0" parent="HSOn5zOCnuacAM8XR8tr-92">
          <mxGeometry x="-3.75" width="56.25" height="48.75" as="geometry" />
        </mxCell>
        <object label="" markers="●" placeholders="1" id="HSOn5zOCnuacAM8XR8tr-94">
          <mxCell style="ellipse;whiteSpace=wrap;html=1;aspect=fixed;fontSize=16;direction=south;perimeterSpacing=0;strokeWidth=1;dashed=1;dashPattern=8 8;points=[[0,0.5,0,0,0],[0.5,0,0,0,0],[0.5,1,0,0,0],[1,0.5,0,0,0]];" vertex="1" parent="HSOn5zOCnuacAM8XR8tr-93">
            <mxGeometry y="6.25" width="42.5" height="42.5" as="geometry" />
          </mxCell>
        </object>
        <object label="" markers="●" placeholders="1" id="HSOn5zOCnuacAM8XR8tr-95">
          <mxCell style="ellipse;whiteSpace=wrap;html=1;aspect=fixed;fontSize=16;direction=south;perimeterSpacing=0;strokeWidth=1;points=[];" vertex="1" parent="HSOn5zOCnuacAM8XR8tr-93">
            <mxGeometry x="3.75" y="10" width="35" height="35" as="geometry" />
          </mxCell>
        </object>
        <mxCell id="HSOn5zOCnuacAM8XR8tr-96" value="&lt;font size=&quot;1&quot;&gt;&lt;b style=&quot;font-size: 9px;&quot;&gt;input_E&lt;/b&gt;&lt;/font&gt;" style="text;html=1;strokeColor=none;fillColor=none;align=center;verticalAlign=middle;whiteSpace=wrap;rounded=0;fontSize=16;" vertex="1" parent="HSOn5zOCnuacAM8XR8tr-91">
          <mxGeometry x="48.75" y="18" width="20" height="10" as="geometry" />
        </mxCell>
        <mxCell id="HSOn5zOCnuacAM8XR8tr-97" value="" style="group;fontSize=16;" vertex="1" connectable="0" parent="lydrGFN5QWvYqXAOOCpk-1">
          <mxGeometry x="-1290" y="587.1000000000001" width="70.91" height="21.830000000000013" as="geometry" />
        </mxCell>
        <mxCell id="HSOn5zOCnuacAM8XR8tr-98" value="" style="group;points=[[0,0.5,0,0,0],[0.5,0,0,0,0],[0.5,1,0,0,0],[1,0.5,0,0,0]];fontSize=16;" vertex="1" connectable="0" parent="HSOn5zOCnuacAM8XR8tr-97">
          <mxGeometry y="5.460000000000008" width="60" height="16.37" as="geometry" />
        </mxCell>
        <mxCell id="HSOn5zOCnuacAM8XR8tr-99" value="" style="rounded=0;whiteSpace=wrap;html=1;fontSize=16;fillColor=#000000;points=[[0,0.5,0,0,0],[0.5,0,0,0,0],[0.5,1,0,0,0],[1,0.5,0,0,0]];" vertex="1" parent="HSOn5zOCnuacAM8XR8tr-98">
          <mxGeometry y="5.456666666666667" width="49.09090909090909" height="10.913333333333334" as="geometry" />
        </mxCell>
        <mxCell id="HSOn5zOCnuacAM8XR8tr-100" value="&lt;b style=&quot;font-size: 9px;&quot;&gt;enter_E&lt;/b&gt;" style="text;html=1;strokeColor=none;fillColor=none;align=center;verticalAlign=middle;whiteSpace=wrap;rounded=0;fontSize=16;" vertex="1" parent="HSOn5zOCnuacAM8XR8tr-97">
          <mxGeometry x="57.00090909090909" y="-1" width="10.90909090909091" height="5.456666666666667" as="geometry" />
        </mxCell>
        <mxCell id="HSOn5zOCnuacAM8XR8tr-101" style="edgeStyle=none;curved=1;rounded=0;orthogonalLoop=1;jettySize=auto;html=1;entryX=0.5;entryY=1;entryDx=0;entryDy=0;entryPerimeter=0;fontSize=12;startSize=8;endSize=8;exitX=0;exitY=0.5;exitDx=0;exitDy=0;exitPerimeter=0;" edge="1" parent="lydrGFN5QWvYqXAOOCpk-1" source="HSOn5zOCnuacAM8XR8tr-94" target="HSOn5zOCnuacAM8XR8tr-99">
          <mxGeometry relative="1" as="geometry">
            <mxPoint x="-1241" y="637.83" as="sourcePoint" />
          </mxGeometry>
        </mxCell>
        <mxCell id="HSOn5zOCnuacAM8XR8tr-102" style="edgeStyle=orthogonalEdgeStyle;rounded=0;orthogonalLoop=1;jettySize=auto;html=1;fontSize=12;startSize=8;endSize=8;exitX=0.223;exitY=0.048;exitDx=0;exitDy=0;exitPerimeter=0;entryX=0.5;entryY=0;entryDx=0;entryDy=0;entryPerimeter=0;" edge="1" parent="lydrGFN5QWvYqXAOOCpk-1" source="HSOn5zOCnuacAM8XR8tr-99" target="HSOn5zOCnuacAM8XR8tr-8">
          <mxGeometry relative="1" as="geometry">
            <mxPoint x="-1460" y="524.83" as="targetPoint" />
            <Array as="points">
              <mxPoint x="-1279" y="516" />
            </Array>
          </mxGeometry>
        </mxCell>
        <mxCell id="HSOn5zOCnuacAM8XR8tr-103" style="edgeStyle=orthogonalEdgeStyle;rounded=0;orthogonalLoop=1;jettySize=auto;html=1;exitX=0.115;exitY=0.178;exitDx=0;exitDy=0;exitPerimeter=0;entryX=0.5;entryY=0;entryDx=0;entryDy=0;entryPerimeter=0;fontSize=12;startSize=3;endSize=3;endArrow=circle;endFill=0;fillColor=#fff2cc;strokeColor=#d6b656;" edge="1" parent="lydrGFN5QWvYqXAOOCpk-1" source="HSOn5zOCnuacAM8XR8tr-8" target="HSOn5zOCnuacAM8XR8tr-99">
          <mxGeometry relative="1" as="geometry">
            <Array as="points">
              <mxPoint x="-1265" y="500" />
              <mxPoint x="-1265" y="500" />
              <mxPoint x="-1265" y="500" />
            </Array>
          </mxGeometry>
        </mxCell>
        <mxCell id="HSOn5zOCnuacAM8XR8tr-104" value="" style="group" vertex="1" connectable="0" parent="lydrGFN5QWvYqXAOOCpk-1">
          <mxGeometry x="-1460.999090909091" y="588.1000000000001" width="69.08999999999997" height="20.830000000000013" as="geometry" />
        </mxCell>
        <mxCell id="HSOn5zOCnuacAM8XR8tr-105" value="&lt;b style=&quot;font-size: 9px;&quot;&gt;skip_E&lt;/b&gt;" style="text;html=1;strokeColor=none;fillColor=none;align=center;verticalAlign=middle;whiteSpace=wrap;rounded=0;fontSize=16;" vertex="1" parent="HSOn5zOCnuacAM8XR8tr-104">
          <mxGeometry y="-1" width="10.90909090909091" height="5.456666666666667" as="geometry" />
        </mxCell>
        <mxCell id="HSOn5zOCnuacAM8XR8tr-106" value="" style="rounded=0;whiteSpace=wrap;html=1;fontSize=16;fillColor=#000000;points=[[0,0.5,0,0,0],[0.5,0,0,0,0],[0.5,1,0,0,0],[1,0.5,0,0,0]];" vertex="1" parent="HSOn5zOCnuacAM8XR8tr-104">
          <mxGeometry x="19.99909090909091" y="9.916666666666686" width="49.09090909090909" height="10.913333333333334" as="geometry" />
        </mxCell>
        <mxCell id="HSOn5zOCnuacAM8XR8tr-107" value="" style="group" vertex="1" connectable="0" parent="lydrGFN5QWvYqXAOOCpk-1">
          <mxGeometry x="-1386.999090909091" y="588.19" width="69.08999999999997" height="20.830000000000013" as="geometry" />
        </mxCell>
        <mxCell id="HSOn5zOCnuacAM8XR8tr-108" value="&lt;b style=&quot;font-size: 9px;&quot;&gt;stall_E&lt;/b&gt;" style="text;html=1;strokeColor=none;fillColor=none;align=center;verticalAlign=middle;whiteSpace=wrap;rounded=0;fontSize=16;" vertex="1" parent="HSOn5zOCnuacAM8XR8tr-107">
          <mxGeometry x="16" y="-2" width="10.90909090909091" height="5.456666666666667" as="geometry" />
        </mxCell>
        <mxCell id="HSOn5zOCnuacAM8XR8tr-109" value="" style="rounded=0;whiteSpace=wrap;html=1;fontSize=16;fillColor=#000000;points=[[0,0.5,0,0,0],[0.5,0,0,0,0],[0.5,1,0,0,0],[1,0.5,0,0,0]];" vertex="1" parent="HSOn5zOCnuacAM8XR8tr-107">
          <mxGeometry x="19.99909090909091" y="9.916666666666686" width="49.09090909090909" height="10.913333333333334" as="geometry" />
        </mxCell>
        <mxCell id="HSOn5zOCnuacAM8XR8tr-110" style="edgeStyle=orthogonalEdgeStyle;rounded=0;orthogonalLoop=1;jettySize=auto;html=1;exitX=0.727;exitY=0.055;exitDx=0;exitDy=0;exitPerimeter=0;fontSize=12;startSize=8;endSize=8;startArrow=classic;startFill=1;dashed=1;jumpStyle=line;entryX=0.5;entryY=0;entryDx=0;entryDy=0;entryPerimeter=0;" edge="1" parent="lydrGFN5QWvYqXAOOCpk-1" source="HSOn5zOCnuacAM8XR8tr-8" target="HSOn5zOCnuacAM8XR8tr-109">
          <mxGeometry relative="1" as="geometry">
            <mxPoint x="-1260" y="546.19" as="targetPoint" />
          </mxGeometry>
        </mxCell>
        <mxCell id="HSOn5zOCnuacAM8XR8tr-111" style="rounded=0;orthogonalLoop=1;jettySize=auto;html=1;exitX=0.5;exitY=1;exitDx=0;exitDy=0;exitPerimeter=0;entryX=0.5;entryY=1;entryDx=0;entryDy=0;entryPerimeter=0;fontSize=12;startSize=8;endSize=8;edgeStyle=orthogonalEdgeStyle;jumpStyle=line;dashed=1;startArrow=classic;startFill=1;" edge="1" parent="lydrGFN5QWvYqXAOOCpk-1" source="HSOn5zOCnuacAM8XR8tr-94" target="HSOn5zOCnuacAM8XR8tr-109">
          <mxGeometry relative="1" as="geometry" />
        </mxCell>
        <mxCell id="HSOn5zOCnuacAM8XR8tr-112" value="&lt;b style=&quot;font-size: 9px;&quot;&gt;input_W&lt;/b&gt;" style="text;html=1;strokeColor=none;fillColor=none;align=center;verticalAlign=middle;whiteSpace=wrap;rounded=0;fontSize=16;" vertex="1" parent="lydrGFN5QWvYqXAOOCpk-1">
          <mxGeometry x="-2099.09" y="650" width="20" height="10" as="geometry" />
        </mxCell>
        <mxCell id="HSOn5zOCnuacAM8XR8tr-113" style="edgeStyle=none;curved=1;rounded=0;orthogonalLoop=1;jettySize=auto;html=1;exitX=0.5;exitY=1;exitDx=0;exitDy=0;exitPerimeter=0;entryX=1;entryY=0.5;entryDx=0;entryDy=0;entryPerimeter=0;fontSize=12;startSize=8;endSize=8;" edge="1" parent="lydrGFN5QWvYqXAOOCpk-1" source="HSOn5zOCnuacAM8XR8tr-178" target="HSOn5zOCnuacAM8XR8tr-71">
          <mxGeometry relative="1" as="geometry" />
        </mxCell>
        <mxCell id="HSOn5zOCnuacAM8XR8tr-114" value="" style="group;fontSize=16;" vertex="1" connectable="0" parent="lydrGFN5QWvYqXAOOCpk-1">
          <mxGeometry x="-1290" y="710.2900000000001" width="70.91" height="21.830000000000013" as="geometry" />
        </mxCell>
        <mxCell id="HSOn5zOCnuacAM8XR8tr-115" value="" style="group;points=[[0,0.5,0,0,0],[0.5,0,0,0,0],[0.5,1,0,0,0],[1,0.5,0,0,0]];fontSize=16;" vertex="1" connectable="0" parent="HSOn5zOCnuacAM8XR8tr-114">
          <mxGeometry y="5.460000000000008" width="60" height="16.37" as="geometry" />
        </mxCell>
        <mxCell id="HSOn5zOCnuacAM8XR8tr-116" value="" style="rounded=0;whiteSpace=wrap;html=1;fontSize=16;fillColor=#000000;points=[[0,0.5,0,0,0],[0.5,0,0,0,0],[0.5,1,0,0,0],[1,0.5,0,0,0]];" vertex="1" parent="HSOn5zOCnuacAM8XR8tr-115">
          <mxGeometry y="5.456666666666667" width="49.09090909090909" height="10.913333333333334" as="geometry" />
        </mxCell>
        <mxCell id="HSOn5zOCnuacAM8XR8tr-117" value="&lt;b style=&quot;font-size: 9px;&quot;&gt;generate_E&lt;/b&gt;" style="text;html=1;strokeColor=none;fillColor=none;align=center;verticalAlign=middle;whiteSpace=wrap;rounded=0;fontSize=16;" vertex="1" parent="HSOn5zOCnuacAM8XR8tr-114">
          <mxGeometry x="48.59090909090878" y="-2" width="10.90909090909091" height="5.456666666666667" as="geometry" />
        </mxCell>
        <mxCell id="HSOn5zOCnuacAM8XR8tr-118" style="edgeStyle=none;curved=1;rounded=0;orthogonalLoop=1;jettySize=auto;html=1;exitX=0.5;exitY=0;exitDx=0;exitDy=0;exitPerimeter=0;entryX=1;entryY=0.5;entryDx=0;entryDy=0;entryPerimeter=0;fontSize=12;startSize=8;endSize=8;" edge="1" parent="lydrGFN5QWvYqXAOOCpk-1" source="HSOn5zOCnuacAM8XR8tr-116" target="HSOn5zOCnuacAM8XR8tr-94">
          <mxGeometry relative="1" as="geometry" />
        </mxCell>
        <mxCell id="HSOn5zOCnuacAM8XR8tr-119" value="" style="group" vertex="1" connectable="0" parent="lydrGFN5QWvYqXAOOCpk-1">
          <mxGeometry x="-1377.909090909091" y="708.2900000000001" width="60" height="23.829999999999927" as="geometry" />
        </mxCell>
        <mxCell id="HSOn5zOCnuacAM8XR8tr-120" value="&lt;b style=&quot;font-size: 9px;&quot;&gt;skip_E&lt;/b&gt;" style="text;html=1;strokeColor=none;fillColor=none;align=center;verticalAlign=middle;whiteSpace=wrap;rounded=0;fontSize=16;" vertex="1" parent="HSOn5zOCnuacAM8XR8tr-119">
          <mxGeometry width="10.90909090909091" height="5.456666666666667" as="geometry" />
        </mxCell>
        <mxCell id="HSOn5zOCnuacAM8XR8tr-121" value="" style="rounded=0;whiteSpace=wrap;html=1;fontSize=16;fillColor=#000000;points=[[0,0.5,0,0,0],[0.5,0,0,0,0],[0.5,1,0,0,0],[1,0.5,0,0,0]];" vertex="1" parent="HSOn5zOCnuacAM8XR8tr-119">
          <mxGeometry x="10.909090909090992" y="12.916666666666629" width="49.09090909090909" height="10.913333333333334" as="geometry" />
        </mxCell>
        <mxCell id="HSOn5zOCnuacAM8XR8tr-122" value="" style="group;fontSize=16;" vertex="1" connectable="0" parent="lydrGFN5QWvYqXAOOCpk-1">
          <mxGeometry x="-1683.51" y="257.17" width="70.91" height="21.830000000000013" as="geometry" />
        </mxCell>
        <mxCell id="HSOn5zOCnuacAM8XR8tr-123" value="" style="group;points=[[0,0.5,0,0,0],[0.5,0,0,0,0],[0.5,1,0,0,0],[1,0.5,0,0,0]];fontSize=16;" vertex="1" connectable="0" parent="HSOn5zOCnuacAM8XR8tr-122">
          <mxGeometry y="5.460000000000008" width="60" height="16.37" as="geometry" />
        </mxCell>
        <mxCell id="HSOn5zOCnuacAM8XR8tr-124" value="" style="rounded=0;whiteSpace=wrap;html=1;fontSize=16;fillColor=#000000;points=[[0,0.5,0,0,0],[0.5,0,0,0,0],[0.5,1,0,0,0],[1,0.5,0,0,0]];" vertex="1" parent="HSOn5zOCnuacAM8XR8tr-123">
          <mxGeometry y="5.456666666666667" width="49.09090909090909" height="10.913333333333334" as="geometry" />
        </mxCell>
        <mxCell id="HSOn5zOCnuacAM8XR8tr-125" value="" style="group;fontSize=16;" vertex="1" connectable="0" parent="lydrGFN5QWvYqXAOOCpk-1">
          <mxGeometry x="-1603.51" y="258.17" width="70.91" height="21.830000000000013" as="geometry" />
        </mxCell>
        <mxCell id="HSOn5zOCnuacAM8XR8tr-126" value="" style="group;points=[[0,0.5,0,0,0],[0.5,0,0,0,0],[0.5,1,0,0,0],[1,0.5,0,0,0]];fontSize=16;" vertex="1" connectable="0" parent="HSOn5zOCnuacAM8XR8tr-125">
          <mxGeometry y="5.460000000000008" width="60" height="16.37" as="geometry" />
        </mxCell>
        <mxCell id="HSOn5zOCnuacAM8XR8tr-127" value="" style="rounded=0;whiteSpace=wrap;html=1;fontSize=16;fillColor=#000000;points=[[0,0.5,0,0,0],[0.5,0,0,0,0],[0.5,1,0,0,0],[1,0.5,0,0,0]];" vertex="1" parent="HSOn5zOCnuacAM8XR8tr-126">
          <mxGeometry y="5.456666666666667" width="49.09090909090909" height="10.913333333333334" as="geometry" />
        </mxCell>
        <mxCell id="HSOn5zOCnuacAM8XR8tr-128" value="&lt;b style=&quot;font-size: 9px;&quot;&gt;skip_N&lt;/b&gt;" style="text;html=1;strokeColor=none;fillColor=none;align=center;verticalAlign=middle;whiteSpace=wrap;rounded=0;fontSize=16;" vertex="1" parent="HSOn5zOCnuacAM8XR8tr-125">
          <mxGeometry x="60.00090909090909" width="10.90909090909091" height="5.456666666666667" as="geometry" />
        </mxCell>
        <mxCell id="HSOn5zOCnuacAM8XR8tr-129" style="edgeStyle=none;curved=1;rounded=0;orthogonalLoop=1;jettySize=auto;html=1;exitX=0;exitY=0.5;exitDx=0;exitDy=0;exitPerimeter=0;entryX=0.5;entryY=1;entryDx=0;entryDy=0;entryPerimeter=0;fontSize=12;startSize=8;endSize=8;" edge="1" parent="lydrGFN5QWvYqXAOOCpk-1" source="HSOn5zOCnuacAM8XR8tr-2" target="HSOn5zOCnuacAM8XR8tr-124">
          <mxGeometry relative="1" as="geometry">
            <mxPoint x="-1648.52" y="171.75" as="sourcePoint" />
          </mxGeometry>
        </mxCell>
        <mxCell id="HSOn5zOCnuacAM8XR8tr-130" value="&lt;b style=&quot;font-size: 9px;&quot;&gt;exit_N&lt;/b&gt;" style="text;html=1;strokeColor=none;fillColor=none;align=center;verticalAlign=middle;whiteSpace=wrap;rounded=0;fontSize=16;" vertex="1" parent="lydrGFN5QWvYqXAOOCpk-1">
          <mxGeometry x="-1702.5090909090911" y="255.17000000000002" width="10.90909090909091" height="5.456666666666667" as="geometry" />
        </mxCell>
        <mxCell id="HSOn5zOCnuacAM8XR8tr-131" value="" style="group" vertex="1" connectable="0" parent="lydrGFN5QWvYqXAOOCpk-1">
          <mxGeometry x="-1676.24" y="150.17000000000002" width="68.75" height="70" as="geometry" />
        </mxCell>
        <mxCell id="HSOn5zOCnuacAM8XR8tr-132" value="" style="group;fontSize=16;" vertex="1" connectable="0" parent="HSOn5zOCnuacAM8XR8tr-131">
          <mxGeometry width="68.75" height="60" as="geometry" />
        </mxCell>
        <mxCell id="HSOn5zOCnuacAM8XR8tr-133" value="" style="group;fontSize=16;" vertex="1" connectable="0" parent="HSOn5zOCnuacAM8XR8tr-132">
          <mxGeometry y="13" width="52.5" height="50" as="geometry" />
        </mxCell>
        <mxCell id="HSOn5zOCnuacAM8XR8tr-134" value="" style="group;fontSize=16;" vertex="1" connectable="0" parent="HSOn5zOCnuacAM8XR8tr-133">
          <mxGeometry x="-3.75" width="56.25" height="48.75" as="geometry" />
        </mxCell>
        <object label="" markers="●" placeholders="1" id="HSOn5zOCnuacAM8XR8tr-135">
          <mxCell style="ellipse;whiteSpace=wrap;html=1;aspect=fixed;fontSize=16;direction=south;perimeterSpacing=0;strokeWidth=1;dashed=1;dashPattern=8 8;points=[[0,0.5,0,0,0],[0.5,0,0,0,0],[0.5,1,0,0,0],[1,0.5,0,0,0]];" vertex="1" parent="HSOn5zOCnuacAM8XR8tr-134">
            <mxGeometry y="6.25" width="42.5" height="42.5" as="geometry" />
          </mxCell>
        </object>
        <object label="" markers="●" placeholders="1" id="HSOn5zOCnuacAM8XR8tr-136">
          <mxCell style="ellipse;whiteSpace=wrap;html=1;aspect=fixed;fontSize=16;direction=south;perimeterSpacing=0;strokeWidth=1;points=[];" vertex="1" parent="HSOn5zOCnuacAM8XR8tr-134">
            <mxGeometry x="3.75" y="10" width="35" height="35" as="geometry" />
          </mxCell>
        </object>
        <mxCell id="HSOn5zOCnuacAM8XR8tr-137" value="&lt;b style=&quot;font-size: 9px;&quot;&gt;output_N&lt;/b&gt;" style="text;html=1;strokeColor=none;fillColor=none;align=center;verticalAlign=middle;whiteSpace=wrap;rounded=0;fontSize=16;" vertex="1" parent="HSOn5zOCnuacAM8XR8tr-132">
          <mxGeometry x="52.24" y="27.83" width="20" height="10" as="geometry" />
        </mxCell>
        <mxCell id="HSOn5zOCnuacAM8XR8tr-138" style="edgeStyle=none;curved=1;rounded=0;orthogonalLoop=1;jettySize=auto;html=1;entryX=1;entryY=0.5;entryDx=0;entryDy=0;entryPerimeter=0;fontSize=12;startSize=8;endSize=8;" edge="1" parent="lydrGFN5QWvYqXAOOCpk-1" source="HSOn5zOCnuacAM8XR8tr-124" target="HSOn5zOCnuacAM8XR8tr-135">
          <mxGeometry relative="1" as="geometry" />
        </mxCell>
        <mxCell id="HSOn5zOCnuacAM8XR8tr-139" style="edgeStyle=orthogonalEdgeStyle;rounded=0;orthogonalLoop=1;jettySize=auto;html=1;entryX=0;entryY=0.5;entryDx=0;entryDy=0;entryPerimeter=0;fontSize=12;startSize=3;endSize=3;exitX=0.5;exitY=1;exitDx=0;exitDy=0;exitPerimeter=0;endArrow=circle;endFill=0;fillColor=#fff2cc;strokeColor=#d6b656;" edge="1" parent="lydrGFN5QWvYqXAOOCpk-1" source="HSOn5zOCnuacAM8XR8tr-135" target="HSOn5zOCnuacAM8XR8tr-124">
          <mxGeometry relative="1" as="geometry">
            <Array as="points">
              <mxPoint x="-1720" y="191" />
              <mxPoint x="-1720" y="274" />
            </Array>
          </mxGeometry>
        </mxCell>
        <mxCell id="HSOn5zOCnuacAM8XR8tr-140" value="" style="group;fontSize=16;" vertex="1" connectable="0" parent="lydrGFN5QWvYqXAOOCpk-1">
          <mxGeometry x="-1683.1799999999998" y="97.34000000000006" width="70.91" height="21.830000000000013" as="geometry" />
        </mxCell>
        <mxCell id="HSOn5zOCnuacAM8XR8tr-141" value="" style="group;points=[[0,0.5,0,0,0],[0.5,0,0,0,0],[0.5,1,0,0,0],[1,0.5,0,0,0]];fontSize=16;" vertex="1" connectable="0" parent="HSOn5zOCnuacAM8XR8tr-140">
          <mxGeometry y="5.460000000000008" width="60" height="16.37" as="geometry" />
        </mxCell>
        <mxCell id="HSOn5zOCnuacAM8XR8tr-142" value="" style="rounded=0;whiteSpace=wrap;html=1;fontSize=16;fillColor=#000000;points=[[0,0.5,0,0,0],[0.5,0,0,0,0],[0.5,1,0,0,0],[1,0.5,0,0,0]];" vertex="1" parent="HSOn5zOCnuacAM8XR8tr-141">
          <mxGeometry y="5.456666666666667" width="49.09090909090909" height="10.913333333333334" as="geometry" />
        </mxCell>
        <mxCell id="HSOn5zOCnuacAM8XR8tr-143" value="" style="group;fontSize=16;" vertex="1" connectable="0" parent="lydrGFN5QWvYqXAOOCpk-1">
          <mxGeometry x="-1603.1799999999998" y="98.34000000000006" width="70.91" height="21.830000000000013" as="geometry" />
        </mxCell>
        <mxCell id="HSOn5zOCnuacAM8XR8tr-144" value="" style="group;points=[[0,0.5,0,0,0],[0.5,0,0,0,0],[0.5,1,0,0,0],[1,0.5,0,0,0]];fontSize=16;" vertex="1" connectable="0" parent="HSOn5zOCnuacAM8XR8tr-143">
          <mxGeometry y="5.460000000000008" width="60" height="16.37" as="geometry" />
        </mxCell>
        <mxCell id="HSOn5zOCnuacAM8XR8tr-145" value="" style="rounded=0;whiteSpace=wrap;html=1;fontSize=16;fillColor=#000000;points=[[0,0.5,0,0,0],[0.5,0,0,0,0],[0.5,1,0,0,0],[1,0.5,0,0,0]];" vertex="1" parent="HSOn5zOCnuacAM8XR8tr-144">
          <mxGeometry y="5.456666666666667" width="49.09090909090909" height="10.913333333333334" as="geometry" />
        </mxCell>
        <mxCell id="HSOn5zOCnuacAM8XR8tr-146" value="&lt;b style=&quot;font-size: 9px;&quot;&gt;skip_N&lt;/b&gt;" style="text;html=1;strokeColor=none;fillColor=none;align=center;verticalAlign=middle;whiteSpace=wrap;rounded=0;fontSize=16;" vertex="1" parent="HSOn5zOCnuacAM8XR8tr-143">
          <mxGeometry x="60.00090909090909" width="10.90909090909091" height="5.456666666666667" as="geometry" />
        </mxCell>
        <mxCell id="HSOn5zOCnuacAM8XR8tr-147" value="&lt;b style=&quot;font-size: 9px;&quot;&gt;consume_N&lt;/b&gt;" style="text;html=1;strokeColor=none;fillColor=none;align=center;verticalAlign=middle;whiteSpace=wrap;rounded=0;fontSize=16;" vertex="1" parent="lydrGFN5QWvYqXAOOCpk-1">
          <mxGeometry x="-1702.179090909091" y="95.34000000000006" width="10.90909090909091" height="5.456666666666667" as="geometry" />
        </mxCell>
        <mxCell id="HSOn5zOCnuacAM8XR8tr-148" style="edgeStyle=none;curved=1;rounded=0;orthogonalLoop=1;jettySize=auto;html=1;exitX=0;exitY=0.5;exitDx=0;exitDy=0;exitPerimeter=0;entryX=0.5;entryY=1;entryDx=0;entryDy=0;entryPerimeter=0;fontSize=12;startSize=8;endSize=8;" edge="1" parent="lydrGFN5QWvYqXAOOCpk-1" source="HSOn5zOCnuacAM8XR8tr-135" target="HSOn5zOCnuacAM8XR8tr-142">
          <mxGeometry relative="1" as="geometry" />
        </mxCell>
        <mxCell id="HSOn5zOCnuacAM8XR8tr-149" value="" style="group;fontSize=16;" vertex="1" connectable="0" parent="lydrGFN5QWvYqXAOOCpk-1">
          <mxGeometry x="-1763" y="737" width="70.91" height="21.830000000000013" as="geometry" />
        </mxCell>
        <mxCell id="HSOn5zOCnuacAM8XR8tr-150" value="" style="group;points=[[0,0.5,0,0,0],[0.5,0,0,0,0],[0.5,1,0,0,0],[1,0.5,0,0,0]];fontSize=16;" vertex="1" connectable="0" parent="HSOn5zOCnuacAM8XR8tr-149">
          <mxGeometry y="5.460000000000008" width="60" height="16.37" as="geometry" />
        </mxCell>
        <mxCell id="HSOn5zOCnuacAM8XR8tr-151" value="" style="rounded=0;whiteSpace=wrap;html=1;fontSize=16;fillColor=#000000;points=[[0,0.5,0,0,0],[0.5,0,0,0,0],[0.5,1,0,0,0],[1,0.5,0,0,0]];" vertex="1" parent="HSOn5zOCnuacAM8XR8tr-150">
          <mxGeometry y="5.456666666666667" width="49.09090909090909" height="10.913333333333334" as="geometry" />
        </mxCell>
        <mxCell id="HSOn5zOCnuacAM8XR8tr-152" value="" style="group;fontSize=16;" vertex="1" connectable="0" parent="lydrGFN5QWvYqXAOOCpk-1">
          <mxGeometry x="-1683" y="737" width="70.91" height="21.830000000000013" as="geometry" />
        </mxCell>
        <mxCell id="HSOn5zOCnuacAM8XR8tr-153" value="" style="group;points=[[0,0.5,0,0,0],[0.5,0,0,0,0],[0.5,1,0,0,0],[1,0.5,0,0,0]];fontSize=16;" vertex="1" connectable="0" parent="HSOn5zOCnuacAM8XR8tr-152">
          <mxGeometry y="5.460000000000008" width="60" height="16.37" as="geometry" />
        </mxCell>
        <mxCell id="HSOn5zOCnuacAM8XR8tr-154" value="" style="rounded=0;whiteSpace=wrap;html=1;fontSize=16;fillColor=#000000;points=[[0,0.5,0,0,0],[0.5,0,0,0,0],[0.5,1,0,0,0],[1,0.5,0,0,0]];" vertex="1" parent="HSOn5zOCnuacAM8XR8tr-153">
          <mxGeometry y="5.456666666666667" width="49.09090909090909" height="10.913333333333334" as="geometry" />
        </mxCell>
        <mxCell id="HSOn5zOCnuacAM8XR8tr-155" value="&lt;b style=&quot;font-size: 9px;&quot;&gt;exit_S&lt;/b&gt;" style="text;html=1;strokeColor=none;fillColor=none;align=center;verticalAlign=middle;whiteSpace=wrap;rounded=0;fontSize=16;" vertex="1" parent="HSOn5zOCnuacAM8XR8tr-152">
          <mxGeometry x="57.00090909090909" y="-1" width="10.90909090909091" height="5.456666666666667" as="geometry" />
        </mxCell>
        <mxCell id="HSOn5zOCnuacAM8XR8tr-156" value="&lt;b style=&quot;font-size: 9px;&quot;&gt;skip_S&lt;/b&gt;" style="text;html=1;strokeColor=none;fillColor=none;align=center;verticalAlign=middle;whiteSpace=wrap;rounded=0;fontSize=16;" vertex="1" parent="lydrGFN5QWvYqXAOOCpk-1">
          <mxGeometry x="-1782.9990909090911" y="738" width="10.90909090909091" height="5.456666666666667" as="geometry" />
        </mxCell>
        <mxCell id="HSOn5zOCnuacAM8XR8tr-157" value="" style="group" vertex="1" connectable="0" parent="lydrGFN5QWvYqXAOOCpk-1">
          <mxGeometry x="-1679" y="777" width="68.75" height="70" as="geometry" />
        </mxCell>
        <mxCell id="HSOn5zOCnuacAM8XR8tr-158" value="" style="group;fontSize=16;" vertex="1" connectable="0" parent="HSOn5zOCnuacAM8XR8tr-157">
          <mxGeometry width="68.75" height="60" as="geometry" />
        </mxCell>
        <mxCell id="HSOn5zOCnuacAM8XR8tr-159" value="" style="group;fontSize=16;" vertex="1" connectable="0" parent="HSOn5zOCnuacAM8XR8tr-158">
          <mxGeometry y="13" width="52.5" height="50" as="geometry" />
        </mxCell>
        <mxCell id="HSOn5zOCnuacAM8XR8tr-160" value="" style="group;fontSize=16;" vertex="1" connectable="0" parent="HSOn5zOCnuacAM8XR8tr-159">
          <mxGeometry x="-3.75" width="56.25" height="48.75" as="geometry" />
        </mxCell>
        <object label="" markers="●" placeholders="1" id="HSOn5zOCnuacAM8XR8tr-161">
          <mxCell style="ellipse;whiteSpace=wrap;html=1;aspect=fixed;fontSize=16;direction=south;perimeterSpacing=0;strokeWidth=1;dashed=1;dashPattern=8 8;points=[[0,0.5,0,0,0],[0.5,0,0,0,0],[0.5,1,0,0,0],[1,0.5,0,0,0]];" vertex="1" parent="HSOn5zOCnuacAM8XR8tr-160">
            <mxGeometry y="6.25" width="42.5" height="42.5" as="geometry" />
          </mxCell>
        </object>
        <object label="" markers="●" placeholders="1" id="HSOn5zOCnuacAM8XR8tr-162">
          <mxCell style="ellipse;whiteSpace=wrap;html=1;aspect=fixed;fontSize=16;direction=south;perimeterSpacing=0;strokeWidth=1;points=[];" vertex="1" parent="HSOn5zOCnuacAM8XR8tr-160">
            <mxGeometry x="3.75" y="10" width="35" height="35" as="geometry" />
          </mxCell>
        </object>
        <mxCell id="HSOn5zOCnuacAM8XR8tr-163" style="edgeStyle=none;curved=1;rounded=0;orthogonalLoop=1;jettySize=auto;html=1;entryX=-0.011;entryY=0.425;entryDx=0;entryDy=0;entryPerimeter=0;fontSize=12;startSize=8;endSize=8;" edge="1" parent="lydrGFN5QWvYqXAOOCpk-1" source="HSOn5zOCnuacAM8XR8tr-154" target="HSOn5zOCnuacAM8XR8tr-161">
          <mxGeometry relative="1" as="geometry" />
        </mxCell>
        <mxCell id="HSOn5zOCnuacAM8XR8tr-164" style="edgeStyle=orthogonalEdgeStyle;rounded=0;orthogonalLoop=1;jettySize=auto;html=1;exitX=0.5;exitY=0;exitDx=0;exitDy=0;exitPerimeter=0;entryX=1;entryY=0.5;entryDx=0;entryDy=0;entryPerimeter=0;fontSize=12;startSize=3;endSize=3;endArrow=circle;endFill=0;fillColor=#fff2cc;strokeColor=#d6b656;" edge="1" parent="lydrGFN5QWvYqXAOOCpk-1" source="HSOn5zOCnuacAM8XR8tr-161" target="HSOn5zOCnuacAM8XR8tr-154">
          <mxGeometry relative="1" as="geometry">
            <Array as="points">
              <mxPoint x="-1610" y="818" />
              <mxPoint x="-1610" y="753" />
            </Array>
          </mxGeometry>
        </mxCell>
        <mxCell id="HSOn5zOCnuacAM8XR8tr-165" style="edgeStyle=none;curved=1;rounded=0;orthogonalLoop=1;jettySize=auto;html=1;exitX=1;exitY=0.5;exitDx=0;exitDy=0;exitPerimeter=0;entryX=0.5;entryY=0;entryDx=0;entryDy=0;entryPerimeter=0;fontSize=12;startSize=8;endSize=8;" edge="1" parent="lydrGFN5QWvYqXAOOCpk-1" source="HSOn5zOCnuacAM8XR8tr-5" target="HSOn5zOCnuacAM8XR8tr-154">
          <mxGeometry relative="1" as="geometry" />
        </mxCell>
        <mxCell id="HSOn5zOCnuacAM8XR8tr-166" value="" style="group;fontSize=16;" vertex="1" connectable="0" parent="lydrGFN5QWvYqXAOOCpk-1">
          <mxGeometry x="-1685.9999999999998" y="870" width="70.91" height="21.830000000000013" as="geometry" />
        </mxCell>
        <mxCell id="HSOn5zOCnuacAM8XR8tr-167" value="" style="group;points=[[0,0.5,0,0,0],[0.5,0,0,0,0],[0.5,1,0,0,0],[1,0.5,0,0,0]];fontSize=16;" vertex="1" connectable="0" parent="HSOn5zOCnuacAM8XR8tr-166">
          <mxGeometry y="5.460000000000008" width="60" height="16.37" as="geometry" />
        </mxCell>
        <mxCell id="HSOn5zOCnuacAM8XR8tr-168" value="" style="rounded=0;whiteSpace=wrap;html=1;fontSize=16;fillColor=#000000;points=[[0,0.5,0,0,0],[0.5,0,0,0,0],[0.5,1,0,0,0],[1,0.5,0,0,0]];" vertex="1" parent="HSOn5zOCnuacAM8XR8tr-167">
          <mxGeometry y="5.456666666666667" width="49.09090909090909" height="10.913333333333334" as="geometry" />
        </mxCell>
        <mxCell id="HSOn5zOCnuacAM8XR8tr-169" value="" style="group;fontSize=16;" vertex="1" connectable="0" parent="lydrGFN5QWvYqXAOOCpk-1">
          <mxGeometry x="-1769.1799999999998" y="870" width="70.91" height="21.830000000000013" as="geometry" />
        </mxCell>
        <mxCell id="HSOn5zOCnuacAM8XR8tr-170" value="" style="group;points=[[0,0.5,0,0,0],[0.5,0,0,0,0],[0.5,1,0,0,0],[1,0.5,0,0,0]];fontSize=16;" vertex="1" connectable="0" parent="HSOn5zOCnuacAM8XR8tr-169">
          <mxGeometry y="5.460000000000008" width="60" height="16.37" as="geometry" />
        </mxCell>
        <mxCell id="HSOn5zOCnuacAM8XR8tr-171" value="" style="rounded=0;whiteSpace=wrap;html=1;fontSize=16;fillColor=#000000;points=[[0,0.5,0,0,0],[0.5,0,0,0,0],[0.5,1,0,0,0],[1,0.5,0,0,0]];" vertex="1" parent="HSOn5zOCnuacAM8XR8tr-170">
          <mxGeometry y="5.456666666666667" width="49.09090909090909" height="10.913333333333334" as="geometry" />
        </mxCell>
        <mxCell id="HSOn5zOCnuacAM8XR8tr-172" value="&lt;b style=&quot;font-size: 9px;&quot;&gt;consume_S&lt;/b&gt;" style="text;html=1;strokeColor=none;fillColor=none;align=center;verticalAlign=middle;whiteSpace=wrap;rounded=0;fontSize=16;" vertex="1" parent="lydrGFN5QWvYqXAOOCpk-1">
          <mxGeometry x="-1626.999090909091" y="869" width="10.90909090909091" height="5.456666666666667" as="geometry" />
        </mxCell>
        <mxCell id="HSOn5zOCnuacAM8XR8tr-173" value="&lt;b style=&quot;font-size: 9px;&quot;&gt;output_S&lt;/b&gt;" style="text;html=1;strokeColor=none;fillColor=none;align=center;verticalAlign=middle;whiteSpace=wrap;rounded=0;fontSize=16;" vertex="1" parent="lydrGFN5QWvYqXAOOCpk-1">
          <mxGeometry x="-1716" y="827" width="20" height="10" as="geometry" />
        </mxCell>
        <mxCell id="HSOn5zOCnuacAM8XR8tr-174" value="&lt;b style=&quot;font-size: 9px;&quot;&gt;skip_S&lt;/b&gt;" style="text;html=1;strokeColor=none;fillColor=none;align=center;verticalAlign=middle;whiteSpace=wrap;rounded=0;fontSize=16;" vertex="1" parent="lydrGFN5QWvYqXAOOCpk-1">
          <mxGeometry x="-1780.9990909090907" y="867" width="10.90909090909091" height="5.456666666666667" as="geometry" />
        </mxCell>
        <mxCell id="HSOn5zOCnuacAM8XR8tr-175" style="edgeStyle=none;curved=1;rounded=0;orthogonalLoop=1;jettySize=auto;html=1;exitX=1;exitY=0.5;exitDx=0;exitDy=0;exitPerimeter=0;entryX=0.5;entryY=0;entryDx=0;entryDy=0;entryPerimeter=0;fontSize=12;startSize=8;endSize=8;" edge="1" parent="lydrGFN5QWvYqXAOOCpk-1" source="HSOn5zOCnuacAM8XR8tr-161" target="HSOn5zOCnuacAM8XR8tr-168">
          <mxGeometry relative="1" as="geometry" />
        </mxCell>
        <mxCell id="HSOn5zOCnuacAM8XR8tr-176" value="" style="group;fontSize=16;" vertex="1" connectable="0" parent="lydrGFN5QWvYqXAOOCpk-1">
          <mxGeometry x="-2071" y="709.2900000000002" width="70.91" height="21.830000000000013" as="geometry" />
        </mxCell>
        <mxCell id="HSOn5zOCnuacAM8XR8tr-177" value="" style="group;points=[[0,0.5,0,0,0],[0.5,0,0,0,0],[0.5,1,0,0,0],[1,0.5,0,0,0]];fontSize=16;" vertex="1" connectable="0" parent="HSOn5zOCnuacAM8XR8tr-176">
          <mxGeometry y="5.460000000000008" width="60" height="16.37" as="geometry" />
        </mxCell>
        <mxCell id="HSOn5zOCnuacAM8XR8tr-178" value="" style="rounded=0;whiteSpace=wrap;html=1;fontSize=16;fillColor=#000000;points=[[0,0.5,0,0,0],[0.5,0,0,0,0],[0.5,1,0,0,0],[1,0.5,0,0,0]];" vertex="1" parent="HSOn5zOCnuacAM8XR8tr-177">
          <mxGeometry y="5.456666666666667" width="49.09090909090909" height="10.913333333333334" as="geometry" />
        </mxCell>
        <mxCell id="HSOn5zOCnuacAM8XR8tr-179" value="" style="rounded=0;whiteSpace=wrap;html=1;fontSize=16;fillColor=#000000;points=[[0,0.5,0,0,0],[0.5,0,0,0,0],[0.5,1,0,0,0],[1,0.5,0,0,0]];" vertex="1" parent="lydrGFN5QWvYqXAOOCpk-1">
          <mxGeometry x="-1991" y="721.2066666666668" width="49.09090909090909" height="10.913333333333334" as="geometry" />
        </mxCell>
        <mxCell id="HSOn5zOCnuacAM8XR8tr-180" value="&lt;b style=&quot;font-size: 9px;&quot;&gt;generate_W&lt;/b&gt;" style="text;html=1;strokeColor=none;fillColor=none;align=center;verticalAlign=middle;whiteSpace=wrap;rounded=0;fontSize=16;" vertex="1" parent="lydrGFN5QWvYqXAOOCpk-1">
          <mxGeometry x="-2089.999090909091" y="707.2900000000002" width="10.90909090909091" height="5.456666666666667" as="geometry" />
        </mxCell>
        <mxCell id="HSOn5zOCnuacAM8XR8tr-181" value="&lt;b style=&quot;font-size: 9px;&quot;&gt;skip_W&lt;/b&gt;" style="text;html=1;strokeColor=none;fillColor=none;align=center;verticalAlign=middle;whiteSpace=wrap;rounded=0;fontSize=16;" vertex="1" parent="lydrGFN5QWvYqXAOOCpk-1">
          <mxGeometry x="-1941.909090909091" y="709.2900000000002" width="10.90909090909091" height="5.456666666666667" as="geometry" />
        </mxCell>
      </root>
    </mxGraphModel>
  </diagram>
</mxfile>
